<svg id="title" xmlns="http://www.w3.org/2000/svg" width="481.437" height="67.312" viewBox="0 0 481.437 67.312">
  <defs>
    <style>
      .cls-1 {
        fill: #fff;
      }

      .cls-1, .cls-2 {
        fill-rule: evenodd;
      }

      .cls-2 {
        fill: #f1d430;
      }
    </style>
  </defs>
  <path id="by" class="cls-1" d="M436.028,402.2a2.823,2.823,0,0,0,1.008-.168,10.247,10.247,0,0,1-3.191-.084,0.354,0.354,0,0,1,.294-0.084,34.68,34.68,0,0,0,4.2-.378,33.58,33.58,0,0,0,5.753-1.3c1.091-.336,2.183-0.756,3.359-1.049,0.21-.126.42-0.252,0.672-0.378a0.358,0.358,0,0,1,.21,0c0.084,0,0,.168-0.126.21-0.252.042-.546,0.126-0.8,0.168a1.752,1.752,0,0,1-.63.461c-0.084.042-.252,0.042-0.21,0.252,0.588-.252,1.218-0.461,1.806-0.713a1.009,1.009,0,0,0,.671-0.5,0.609,0.609,0,0,1,.378-0.253,2.992,2.992,0,0,0,1.764-2.183,9.371,9.371,0,0,0,.21-2.855c-0.084-.63-0.21-1.218-0.294-1.806a5.433,5.433,0,0,0-1.806-3.359,0.981,0.981,0,0,1-.294-0.294,0.336,0.336,0,0,1,.042-0.546c0.21-.168.462-0.336,0.714-0.5a20.065,20.065,0,0,0,3.276-2.645,1.885,1.885,0,0,0,.5-0.672,2.772,2.772,0,0,1,.5-0.924,2.028,2.028,0,0,0,.336-1.3,4.748,4.748,0,0,1,0-1.092,3.729,3.729,0,0,0-.042-0.966,15.693,15.693,0,0,0-.672-2.772,5.472,5.472,0,0,0-4.577-4.073,15.167,15.167,0,0,0-3.065-.251,3.878,3.878,0,0,0-1.218.126,10.914,10.914,0,0,1-2.309.545,10.445,10.445,0,0,0-2.435.84,1.461,1.461,0,0,0-.756.672,0.462,0.462,0,0,0,.126.63,0.36,0.36,0,0,0,.546.126,1.955,1.955,0,0,0,.419-0.21,1.136,1.136,0,0,1-.377,0,0.142,0.142,0,0,1-.126-0.084,0.223,0.223,0,0,1,.084-0.126,0.32,0.32,0,0,1,.209-0.084,18.48,18.48,0,0,1,7.853-.924l0.378,0.126a0.354,0.354,0,0,1-.42.126,28.444,28.444,0,0,0-3.276.084,15.25,15.25,0,0,0-4.325.882c0.42-.042.84-0.126,1.26-0.21a22.227,22.227,0,0,1,3.275-.546h0.714a2.1,2.1,0,0,1,.84.084,5.578,5.578,0,0,1-1.26.21,29.23,29.23,0,0,0-5.081.882c-0.125.042-.293,0.084-0.377,0.126a0.533,0.533,0,0,0-.378.63,0.541,0.541,0,0,0,.63.377,1.225,1.225,0,0,0,.377-0.083c0.672-.084,1.3-0.21,1.974-0.336a1.372,1.372,0,0,1,.714,0,0.09,0.09,0,0,1,.084.084c0.042,0.042,0,.084-0.042.126a1.894,1.894,0,0,1-.462.126c-0.378.083-.8,0.125-1.176,0.209a11.513,11.513,0,0,0-1.176.21,0.223,0.223,0,0,0-.084.126,0.323,0.323,0,0,0,.084.126,1.314,1.314,0,0,0,.8.042c0.336-.042.336,0.042,0.42,0.336a0.538,0.538,0,0,1-.21.63,5.739,5.739,0,0,0-.966,1.05,13.667,13.667,0,0,0-2.183,3.149,5.055,5.055,0,0,1-.63,1.26,7.758,7.758,0,0,0-.882,1.89,1.93,1.93,0,0,1-.42.755,2.766,2.766,0,0,0-.588,1.092c-0.587,1.6-1.217,3.149-1.8,4.7a4.032,4.032,0,0,0-.252,1.386,1.58,1.58,0,0,0,.336,1.133,1.869,1.869,0,0,1,.42.924,2.55,2.55,0,0,0,.21.756c0.126,0.252.252,0.336,0.5,0.21a0.424,0.424,0,0,1,.545.168,0.878,0.878,0,0,0,1.05.336,0.671,0.671,0,0,0,.63-0.546,15.591,15.591,0,0,1,.714-1.764h0c-0.126-.084-0.126-0.21,0-0.336h0l0.378-.377a0.508,0.508,0,0,0,.126-0.42,0.5,0.5,0,0,1,.294-0.63h0a1.833,1.833,0,0,1,1.385-.5,2.4,2.4,0,0,0,.546-0.042,11.592,11.592,0,0,1,2.94-.126,6.5,6.5,0,0,1,1.805.294,0.13,0.13,0,0,0-.042.084,6.2,6.2,0,0,1-.882-0.042,8.431,8.431,0,0,0-2.057-.042,0.419,0.419,0,0,0-.462.168h0.5a10.677,10.677,0,0,1,3.065.21,5.821,5.821,0,0,1,1.47.378,0.262,0.262,0,0,1,.084.462l-0.168.168a5.413,5.413,0,0,1-1.932,1.049c-0.672.3-1.385,0.546-2.057,0.84a21.075,21.075,0,0,1-2.73.966c-0.839.21-1.721,0.252-2.561,0.546a0.863,0.863,0,0,1-.462,0,2.555,2.555,0,0,0-.966.126,10.026,10.026,0,0,1-2.981.42,11.477,11.477,0,0,1-2.687-.336,2.345,2.345,0,0,0-.924-0.126,0.5,0.5,0,0,0-.462.462,10.122,10.122,0,0,0-.126,1.05,1.711,1.711,0,0,0,.126.923,3.094,3.094,0,0,0,2.645,2.016,2.5,2.5,0,0,1,1.092.294,1.367,1.367,0,0,0,.588.168C434.391,402.154,435.189,402.2,436.028,402.2Zm-3.107-2.562a1.452,1.452,0,0,1-.882-0.293,23.675,23.675,0,0,0,3.444,0,0.2,0.2,0,0,1-.252.209A10.64,10.64,0,0,1,432.921,399.634Zm-0.126-.461a5.345,5.345,0,0,1-1.427-.252,0.223,0.223,0,0,1-.084-0.126c-0.042-.084.084-0.084,0.126-0.084a23.588,23.588,0,0,0,2.981.126c0.672,0,1.343-.042,2.1-0.042a1.347,1.347,0,0,1-.21.126A16.234,16.234,0,0,1,432.8,399.173Zm2.184,2.183a9.229,9.229,0,0,1-3.024-.252,0.779,0.779,0,0,1-.294-0.084c-0.084-.042-0.168-0.084-0.126-0.168a0.142,0.142,0,0,1,.126-0.084H432a26.888,26.888,0,0,0,7.559-.336c0.168,0,.336-0.042.546-0.042,0-.042.041,0,0.167,0.042a12.189,12.189,0,0,1-2.813.63C436.616,401.188,435.818,401.272,434.979,401.356Zm2.057,0.672h0a14.224,14.224,0,0,0,2.688-.252,3.174,3.174,0,0,0,.671-0.252C439.262,401.608,438.17,401.86,437.036,402.028Zm3.359-.5h0.126c0.084,0,.126-0.042.084-0.042,0-.042-0.042,0-0.084,0S440.437,401.524,440.4,401.524Zm1.3-.21c0.126-.042.294-0.084,0.462-0.126a2.167,2.167,0,0,0,.462-0.084c0.168-.042.294-0.042,0.462-0.084s0.294-.084.462-0.126l0.378-.126c0.126-.042.293-0.084,0.461-0.126a1.755,1.755,0,0,1,.42-0.168c0.168-.084.336-0.084,0.462-0.168,0.126-.042.294,0,0.336-0.252C444.258,400.432,443,400.894,441.7,401.314Zm-3.695-6.8h0v0Zm4.829,3.066a0.154,0.154,0,0,0,.126-0.042h0A0.154,0.154,0,0,1,442.831,397.577Zm-4.031-4.829h0Zm1.637-.21h0.042c0.042-.042.042-0.042-0.042-0.042v0.042Zm6-.8a2.89,2.89,0,0,1-.546-0.084,22.836,22.836,0,0,0-5.081,0H440.1l-0.084-.084a0.142,0.142,0,0,1,.084-0.126,0.378,0.378,0,0,1,.293-0.126,14.6,14.6,0,0,1,3.192-.336,11.356,11.356,0,0,1,2.645.294,2.569,2.569,0,0,1,.5.21,0.08,0.08,0,0,1,.042.126,0.09,0.09,0,0,1-.084.084A0.533,0.533,0,0,1,446.442,391.74Zm-2.687-3.107c-0.042,0-.084,0-0.042-0.084h0.042A0.042,0.042,0,1,1,443.755,388.633Zm1.091,0.672a0.041,0.041,0,0,0-.042-0.042l0.084-.084a0.084,0.084,0,0,1,.084.042C444.93,389.263,444.888,389.263,444.846,389.305Zm-1.259-3.234a1.258,1.258,0,0,1,.336-0.168,2.605,2.605,0,0,1,.293-0.167h0.042c-0.125.042-.209,0.125-0.335,0.167A2.476,2.476,0,0,0,443.587,386.071Zm1.763-1.133c0.126-.042.21-0.126,0.336-0.168A1.258,1.258,0,0,1,445.35,384.938Zm3.276,2.267c0,0.042-.084,0-0.126-0.042a0.154,0.154,0,0,1,.042-0.126,4.037,4.037,0,0,1,1.763-.966,0.634,0.634,0,0,1,.168-0.168,1.075,1.075,0,0,1,.63-0.5,1.251,1.251,0,0,1-.63.5,0.634,0.634,0,0,0-.168.168,3.207,3.207,0,0,1-.378.378C449.507,386.7,449.087,386.953,448.626,387.205Zm-3.36-4.577a0.193,0.193,0,0,1-.294-0.126,1.033,1.033,0,0,1,.042-0.714,4.573,4.573,0,0,1,.336-0.8c0.084-.253.168-0.463,0.252-0.672a0.455,0.455,0,0,0-.042-0.252c-0.042-.042-0.126.042-0.168,0.084a6.132,6.132,0,0,1-.672.8,0.319,0.319,0,0,0-.042.211,0.784,0.784,0,0,1-.126.168c-0.168-.084,0-0.126.042-0.21a0.45,0.45,0,0,1,.126-0.169,7.29,7.29,0,0,1,.588-1.3,1.79,1.79,0,0,0-.21-2.1,0.3,0.3,0,0,1,.084-0.463,1.318,1.318,0,0,1,.672-0.252,0.455,0.455,0,0,1,.252.042,0.786,0.786,0,0,0,.84.21,10.007,10.007,0,0,1,2.9.84,0.362,0.362,0,0,1,.126.588,1.865,1.865,0,0,1-.336.462,25.008,25.008,0,0,1-3.695,3.275C445.728,382.376,445.518,382.5,445.266,382.628Zm7.013,1.89a0.147,0.147,0,0,0,.084-0.042l0.168-.168h0a0.58,0.58,0,0,0-.126.168h-0.084A0.041,0.041,0,0,1,452.279,384.518Zm-6.593-8.314a5.95,5.95,0,0,1-1.26-.084,0.116,0.116,0,0,1-.126-0.168,0.09,0.09,0,0,1,.084-0.084,5.739,5.739,0,0,1,.8-0.084c0.5,0.042,1.008.084,1.512,0.084a0.285,0.285,0,0,1,.168.126c0.042,0.126-.084.126-0.126,0.126C446.358,376.162,445.98,376.162,445.686,376.2Zm11.729,30.779a2.17,2.17,0,0,0,.461-0.084,3.249,3.249,0,0,0,1.176-.8,24.417,24.417,0,0,0,2.939-3.317c2.058-2.562,3.822-5.333,5.753-7.979,0.462-.672.882-1.385,1.3-2.1,1.008-1.554,1.973-3.149,2.981-4.7a14.5,14.5,0,0,1,1.47-2.1,1.6,1.6,0,0,1,.252-0.293c0.042,0,.084,0,0.084.042a0.041,0.041,0,0,1,.042.042,0.8,0.8,0,0,1-.21.419c-0.966,1.47-1.89,2.94-2.814,4.451-0.8,1.344-1.721,2.646-2.477,3.989-0.126.252-.294,0.463-0.42,0.673-0.5.671-1.008,1.259-1.428,1.931-0.545.924-1.217,1.764-1.805,2.6a5.13,5.13,0,0,0-.84,1.47,2.827,2.827,0,0,0,.588-0.63q1.071-1.386,2.015-2.771a10.078,10.078,0,0,1,.882-1.3,26.907,26.907,0,0,0,1.806-2.645c0.8-1.26,1.553-2.562,2.393-3.864,0.294-.461.546-1.007,0.882-1.469a27.286,27.286,0,0,0,2.6-4.577,6.816,6.816,0,0,1-.587.546c-0.042.042-.126,0.084-0.168,0-0.042,0-.042-0.084,0-0.126a7.88,7.88,0,0,1,1.133-1.764,1.018,1.018,0,0,0,.252-0.42h0a2.459,2.459,0,0,1,.546-1.6,1.8,1.8,0,0,0,.336-1.3,0.169,0.169,0,0,0-.21-0.168,0.223,0.223,0,0,1-.126.084c-0.252.042-.378-0.042-0.336-0.294a0.715,0.715,0,0,1,.042-0.294,1.7,1.7,0,0,0-.126-1.554,0.924,0.924,0,0,0-.63-0.546,1,1,0,0,1-.713-0.8,0.623,0.623,0,0,0-.336-0.5c-1.05-.546-1.512-0.63-2.268.378-0.462.63-.882,1.343-1.428,1.974-0.587.671-1.091,1.427-1.637,2.183a9.643,9.643,0,0,0-1.47,2.351,3.5,3.5,0,0,1-.336.5,18.771,18.771,0,0,0-1.091,1.68,5.38,5.38,0,0,1-.462.84,12.249,12.249,0,0,0-1.386,2.225,2.981,2.981,0,0,1-.42.588,0.361,0.361,0,0,1-.588-0.168,4.883,4.883,0,0,1-.168-0.756c-0.168-1.8-.126-3.569-0.252-5.332a0.2,0.2,0,0,1,.042-0.168,18.576,18.576,0,0,1,.252-2.142,0.81,0.81,0,0,0,0-.546,20.6,20.6,0,0,0,.168-2.268,6.379,6.379,0,0,1,.126-0.881c0.042-.546.084-1.05,0.126-1.6,0-.168-0.042-0.336-0.252-0.294-0.126,0-.21-0.042-0.168-0.168a6.754,6.754,0,0,0,0-1.595,1.989,1.989,0,0,0-.8-1.6,3.41,3.41,0,0,1-.8-0.756,1.19,1.19,0,0,0-.714-0.462,0.931,0.931,0,0,0-.966.252c-0.084.126-.168,0.294-0.252,0.42a15.922,15.922,0,0,0-1.47,3.611c-0.294.882-.5,1.848-0.713,2.772a18.932,18.932,0,0,0-.294,5.962c0.042,0.5.21,1.05,0.21,1.554a31.885,31.885,0,0,0,.5,3.4,17.506,17.506,0,0,0,1.974,5.543,2.048,2.048,0,0,1,.126.294,1.022,1.022,0,0,1,0,.924c-0.336.587-.672,1.176-1.008,1.805a9.472,9.472,0,0,1-1.092,1.554c-0.293.336-.461,0.756-0.8,1.091-0.8.757-1.344,1.764-2.184,2.52-0.21.21-.378,0.42-0.588,0.672a2.409,2.409,0,0,0-.336,2.477,0.287,0.287,0,0,0,.5.126,1.827,1.827,0,0,0,.294-0.252,33.114,33.114,0,0,0,2.436-2.435,4.6,4.6,0,0,0,.42-0.462,0.281,0.281,0,0,1,.293-0.126,0.259,0.259,0,0,1-.042.294,6.171,6.171,0,0,1-.629.84c-0.63.672-1.3,1.386-1.974,2.057a2.892,2.892,0,0,0-.462.546,0.08,0.08,0,0,0-.042.126c0.042,0.084.126,0.042,0.21,0,0.252-.21.5-0.42,0.756-0.672,0.84-.755,1.638-1.511,2.477-2.267a3.883,3.883,0,0,1-.545.882,15.67,15.67,0,0,1-1.848,1.889,8.063,8.063,0,0,0-.63.588,0.546,0.546,0,0,0,.042.8,1.1,1.1,0,0,0,.63.294,1.971,1.971,0,0,0,1.008-.126,2.241,2.241,0,0,0,.8-0.546,25.037,25.037,0,0,0,3.947-4.2,5.753,5.753,0,0,1,1.385-1.47,2.494,2.494,0,0,1,.168-0.336,1.225,1.225,0,0,1,.294-0.5,0.58,0.58,0,0,0,.168-0.126,1.6,1.6,0,0,1,.8-1.134,2.136,2.136,0,0,1-.8,1.092,0.328,0.328,0,0,1-.168.168,0.88,0.88,0,0,1-.294.461,2.476,2.476,0,0,0-.168.336,2.092,2.092,0,0,1-.42.8c-0.588.8-1.133,1.6-1.721,2.352a14.453,14.453,0,0,1-2.772,2.981,4.451,4.451,0,0,0-.629.63c-0.042,0-.042.126,0,0.21A0.321,0.321,0,0,0,457.415,406.983Zm1.637-.336a2.058,2.058,0,0,0,.84-0.462,11.415,11.415,0,0,0,1.008-1.008,19.807,19.807,0,0,0,1.847-2.267,2.222,2.222,0,0,0,.462-0.882c-0.294.336-.588,0.672-0.84,1.008a26.369,26.369,0,0,1-3.065,3.4A1.114,1.114,0,0,0,459.052,406.647Zm-1.092-6.215a0.328,0.328,0,0,1,.168-0.168A0.634,0.634,0,0,0,457.96,400.432Zm5.249,1.6a0.634,0.634,0,0,0,.168-0.168h0Zm0.168-.168a1.191,1.191,0,0,0,.336-0.462A1.191,1.191,0,0,0,463.377,401.86Zm0.336-.462a0.328,0.328,0,0,1,.168-0.168,0.58,0.58,0,0,0-.168.126V401.4Zm-2.1-5.123h0Zm3.864-5.921c0.042-.126.084-0.21,0.126-0.336a1.034,1.034,0,0,0,.168-0.293,0.668,0.668,0,0,1-.168.293A2.894,2.894,0,0,1,465.477,390.354Zm1.133-1.889a0.041,0.041,0,0,1-.042-0.042,0.1,0.1,0,1,1,.168-0.084C466.694,388.423,466.694,388.465,466.61,388.465Zm0.966-1.6v-0.042l0.126-.126a1.258,1.258,0,0,1,.168-0.336c0.084-.21.168-0.378,0.252-0.587a0.323,0.323,0,0,1,.126-0.084c0.084-.042.084,0.126,0.042,0.209a4.791,4.791,0,0,0-.462.462c-0.042.126-.084,0.21-0.126,0.336C467.66,386.743,467.618,386.827,467.576,386.869ZM469,384.476l-0.042-.042a0.147,0.147,0,0,1,.126-0.168,0.041,0.041,0,0,1,.042.042A0.147,0.147,0,0,1,469,384.476Zm6.046-.5c0-.042.042-0.084,0.042-0.126V383.8c-0.042-.042-0.084-0.042-0.084.042C475.008,383.888,475.05,383.93,475.05,383.972Zm0.63-1.764a0.634,0.634,0,0,0,.168-0.168Z" transform="translate(-429.094 -340.313)"/>
  <path id="Ole_Fahnick" data-name="Ole Fahnick" class="cls-2" d="M516.5,404.042a12.972,12.972,0,0,0,10.086-4.428,41.958,41.958,0,0,0,4.673-5.985,12.494,12.494,0,0,0,1.968-3.362c-0.574.738-1.148,1.476-1.722,2.3-0.984,1.312-1.886,2.706-2.87,4.018a23.518,23.518,0,0,1-3.115,3.279c-0.246.246-.574,0.41-0.82,0.656a0.48,0.48,0,0,1,.082-0.656c2.377-2.541,4.427-5.329,6.559-8.117,0.41-.492.82-0.984,1.23-1.394,0.164-.246.41-0.164,0.656,0a4.506,4.506,0,0,0,.574-0.738,28.34,28.34,0,0,0,2.624-4.92,1.9,1.9,0,0,1,.328-0.82,17.373,17.373,0,0,0,2.05-3.854c-0.41-.164-0.41-0.245.082-0.573h0.246a4.222,4.222,0,0,1,1.066-2.378,0.886,0.886,0,0,0,.246-0.574c-0.246-.738.164-1.066,0.656-1.558a1.715,1.715,0,0,0,.574-1.066,7.608,7.608,0,0,1,1.312-2.87,0.631,0.631,0,0,0,.164-0.41,5.158,5.158,0,0,1,.984-2.706c0.9-1.476,1.065-3.2,1.557-4.838,0.082-.328.164-0.738,0.246-1.066a0.176,0.176,0,0,0-.164-0.163c-0.41.082-.574-0.165-0.328-0.41a6.426,6.426,0,0,0,1.476-3.526,14.747,14.747,0,0,0,.246-3.28,6.159,6.159,0,0,0-.41-2.132,15.629,15.629,0,0,0-4.1-6.15,2.144,2.144,0,0,0-1.8-.737,1.55,1.55,0,0,1-1.066-.575,13.22,13.22,0,0,0-1.066-1.065,5.079,5.079,0,0,0-2.05-1.394,1.113,1.113,0,0,0-1.23.082c-0.574.656-1.23,0.328-1.8,0.082-0.164-.082-0.41-0.246-0.574-0.328-0.41-.328-0.738-0.082-1.066.246a0.72,0.72,0,0,1-.082.574,0.245,0.245,0,0,1-.328.082c-0.082,0-.082-0.164,0-0.246a1.933,1.933,0,0,0,.41-0.41,29.357,29.357,0,0,1-2.87.9l0.082,0.082a4.588,4.588,0,0,1,2.542-1.722,0.718,0.718,0,0,0,.738-0.656,1.3,1.3,0,0,0-.738-0.738,1.639,1.639,0,0,0-1.066-.164,7.04,7.04,0,0,0-1.394.246,18.214,18.214,0,0,0-5.329,3.116,7.757,7.757,0,0,1-1.23,1.066,25.441,25.441,0,0,0-6.068,5.411,9.332,9.332,0,0,1-1.558,1.558c-0.492.492-.984,0.984-1.394,1.476a31.259,31.259,0,0,1-1.968,2.624c-0.492.656-1.066,1.311-1.476,1.968a31.754,31.754,0,0,0-2.623,4.592c-0.164.245-.328,0.573-0.492,0.819a16.814,16.814,0,0,0-2.624,4.756,10.2,10.2,0,0,1-.82,1.64,33.84,33.84,0,0,0-2.624,6.15l-0.246,1.23c-0.246,1.394-.41,2.869-0.656,4.263a16.5,16.5,0,0,0,1.968,11.48,59.919,59.919,0,0,0,4.592,6.641,15.329,15.329,0,0,0,6.313,4.1A15.912,15.912,0,0,0,516.5,404.042Zm6.314-2.05c-0.082,0-.082-0.164-0.082-0.246a0.949,0.949,0,0,1,.574-0.41,0.286,0.286,0,0,1,.164.082C523.468,401.746,522.976,402.157,522.812,401.992Zm-5.084-6.314a0.287,0.287,0,0,1-.164-0.081,0.409,0.409,0,0,1-.082-0.247c0.164-.163.246-0.327,0.41-0.491a40.412,40.412,0,0,0,4.018-3.444,1.358,1.358,0,0,1,.41-0.164,0.275,0.275,0,0,1,.246.164,0.494,0.494,0,0,1-.082.328,14.562,14.562,0,0,1-4.264,3.771A1.152,1.152,0,0,1,517.728,395.678Zm1.476,0.575a0.081,0.081,0,0,1-.082-0.083l-0.082-.081a1.825,1.825,0,0,1,.246-0.411c1.148-.983,2.3-1.967,3.362-2.951a0.291,0.291,0,0,1,.41-0.082,0.249,0.249,0,0,1,0,.328,13.147,13.147,0,0,1-3.526,3.2A0.392,0.392,0,0,1,519.2,396.253Zm2.378,4.1a0.614,0.614,0,0,1-.41-0.082,0.366,0.366,0,0,1,0-.41,3.545,3.545,0,0,1,.738-0.82,43.194,43.194,0,0,0,5.166-5.084,2.169,2.169,0,0,1,.491-0.409h0.164a0.08,0.08,0,0,1,.082.082,0.392,0.392,0,0,1-.082.327c-1.394,1.805-2.541,3.772-4.345,5.249A8.425,8.425,0,0,1,521.582,400.352Zm-5.166-24.681h0Zm-1.64,17.138c-1.558.82-2.132,0.41-2.378-1.394a8.966,8.966,0,0,1,.574-4.428,42.668,42.668,0,0,0,1.722-5.494c0.328-.9.656-1.885,0.9-2.787,0.328-.984.574-2.05,0.82-3.035h0a0.785,0.785,0,0,1,.246-0.819c0.164-.328.41-0.574,0.574-0.9a0.405,0.405,0,0,0,.082-0.574c-0.738-.656-0.246-1.066.246-1.312a3.075,3.075,0,0,0,1.312-1.722c1.148-2.624,2.706-5.084,4.018-7.626a10.554,10.554,0,0,0,.656-1.394l-0.492.247c-0.082,0-.246,0-0.246-0.083a0.259,0.259,0,0,1,0-.245l0.738-.492v0.573a48.23,48.23,0,0,0,3.443-4.919c-0.656.492-1.229,0.984-1.885,1.476a10.026,10.026,0,0,1,.984-1.558c0.656-.82,1.229-1.64,1.885-2.46a3.723,3.723,0,0,1,1.722-1.476,0.781,0.781,0,0,0,.656-0.82,1.92,1.92,0,0,1,.656-1.476c0.492-.574,1.066-0.984,1.558-1.558v0.082a6.474,6.474,0,0,1,1.722-2.214,0.518,0.518,0,0,1,.738-0.163,2.217,2.217,0,0,1,1.476,2.132,10.448,10.448,0,0,1-.082,1.639c-0.328,1.8-.492,3.526-0.984,5.248-0.656,2.624-1.476,5.165-2.214,7.789-0.164.411-.328,0.739-0.492,1.148a34.7,34.7,0,0,0-1.722,5.166,8.685,8.685,0,0,1-1.148,2.706q-1.107,2.091-1.968,4.182a12.421,12.421,0,0,1-1.475,2.951,1.823,1.823,0,0,0-.247.411,23.75,23.75,0,0,1-3.361,5.247,4.577,4.577,0,0,0-.41.656,17.181,17.181,0,0,1-3.28,4.1A18.6,18.6,0,0,1,514.776,392.809Zm5.74-27.223c-0.246,0,.082-0.41.574-0.82A0.789,0.789,0,0,1,520.516,365.586ZM538.883,380.1l-0.082-.083a2.051,2.051,0,0,0,.328-0.573h-0.246V380.1Zm-14.677-20.663h0Zm-3.116-7.708v-0.082l0.246-.246A1.132,1.132,0,0,0,521.09,351.729Zm5.9,4.674a4.99,4.99,0,0,1,.328-0.656,1.661,1.661,0,0,0-.328.656h0Zm0.328-.656h0Zm-4.673-5.658a1.132,1.132,0,0,0,.246-0.328,1.132,1.132,0,0,1-.246.328h0Zm6.231,3.608h0.164v-0.164a0.286,0.286,0,0,0-.164.082V353.7Zm-4.673-5.166h0Zm19.925,19.351h0ZM526.665,346.4h0Zm4.674,4.346h0Zm1.23-2.132v-0.082c0.41,0.328.492,0,.656-0.246h0A2.485,2.485,0,0,0,532.569,348.613Zm0.656-.328a1.237,1.237,0,0,1,.328-0.328,0.64,0.64,0,0,0-.328.328h0Zm0.328-.328a1.221,1.221,0,0,1,.328-0.327H533.8a1.112,1.112,0,0,0-.246.327h0Zm0.246-.327h0.082a1.146,1.146,0,0,0,.246-0.328h0A1.267,1.267,0,0,1,533.8,347.63Zm0.328-.328h0a0.642,0.642,0,0,0,.328-0.329A0.642,0.642,0,0,1,534.127,347.3Zm0.328-.329h0Zm-0.82-1.312c-0.082,0-.246,0-0.246-0.081-0.164-.083,0-0.247.082-0.328,0.246-.083.492-0.247,0.574-0.247,0.246-.081.328-0.081,0.41,0.083a0.08,0.08,0,0,1-.082.081A0.788,0.788,0,0,1,533.635,345.661Zm10.915,59.283a8.057,8.057,0,0,0,1.8-.41,9.894,9.894,0,0,1,3.116-.984,1.789,1.789,0,0,1,.41-0.328h0.164c0.082,0.082.082,0.164-.082,0.164a1.185,1.185,0,0,1-.574.164l-1.476.984c2.214-.574,4.346-1.312,6.478-2.05A55.88,55.88,0,0,1,560.7,400.6c1.312-.328,2.706-0.656,4.018-0.984,2.214-.492,4.428-0.82,6.642-1.148,1.066-.164,2.131-0.327,3.2-0.41a16.733,16.733,0,0,1,4.018-.328,9.569,9.569,0,0,1,3.362.738,1.722,1.722,0,0,0,2.05-.082,0.443,0.443,0,0,0,.164-0.656,1.355,1.355,0,0,1-.246-1.147,3,3,0,0,0-.656-2.46c-0.41-.656-0.9-1.394-1.312-2.132a5.61,5.61,0,0,0-4.92-3.034,7.5,7.5,0,0,0-1.394-.082,28.268,28.268,0,0,0-6.969-.082c-1.886.164-3.772,0.328-5.74,0.492a21.146,21.146,0,0,0-3.2.328,3.126,3.126,0,0,1-1.23.082,0.838,0.838,0,0,1-.82-1.23,4.869,4.869,0,0,0,.328-0.656c0.328-.9,1.066-1.722.9-2.788-0.164-1.148,1.148-1.558,1.148-2.624,0-.082-0.082-0.164-0.082-0.246,0,0.082.082,0.164,0.082,0.246l0.984-1.968a0.779,0.779,0,0,0,.164-0.574,1.332,1.332,0,0,1,.656-1.558,1.62,1.62,0,0,0,.41-1.147,2.816,2.816,0,0,1,.738-1.477c0.492-.491,1.066-1.065.656-1.885a0.39,0.39,0,0,1,.164-0.41,11.836,11.836,0,0,1,1.558-3.034,0.779,0.779,0,0,0,.164-1.148,0.8,0.8,0,0,1,.246-0.984,3.164,3.164,0,0,0,.9-1.394,6.2,6.2,0,0,1,.9-2.131,1.877,1.877,0,0,0,.492-0.985,10.847,10.847,0,0,1,1.23-3.443,1.6,1.6,0,0,0,.082-0.656,2.14,2.14,0,0,1,.574-1.394,1.785,1.785,0,0,0,.41-0.656,43.257,43.257,0,0,0,1.968-6.314c0.164-.574.082-0.656-0.574-0.656-0.41-.082-0.492-0.246-0.328-0.492,0.164-.328.656-0.492,0.492-0.9a12.055,12.055,0,0,1,0-1.721c-0.246-1.149-.246-2.542-1.558-3.2a1.011,1.011,0,0,1-.574-0.9c0-1.066-.738-1.476-1.558-1.968a1.872,1.872,0,0,0-2.378.246,8.777,8.777,0,0,0-1.148,1.312c-1.312,1.394-1.968,3.116-3.116,4.674-1.476,2.049-2.624,4.345-3.936,6.477a19.334,19.334,0,0,0-1.557,2.87c-0.492,1.23-.984,2.46-1.558,3.608a37.279,37.279,0,0,0-2.214,5.247c-1.64,4.838-3.444,9.594-4.756,14.514a46.586,46.586,0,0,0-1.64,7.461c-0.164,1.312-.328,2.624-0.41,4.018a2.8,2.8,0,0,1-1.066,1.968,25.682,25.682,0,0,0-2.3,1.885,5.289,5.289,0,0,0-1.476,2.3,2.736,2.736,0,0,0,.082,2.131,5.126,5.126,0,0,1,1.066,2.87,0.434,0.434,0,0,0,.164.246,0.912,0.912,0,0,0,1.23.574,2.913,2.913,0,0,0,.738-0.328c0.82-.41,1.64-0.82,2.46-1.311a11.425,11.425,0,0,1,3.28-1.313,0.286,0.286,0,0,1,.328.246c0,0.082,0,.246-0.082.246a3.641,3.641,0,0,1-.9.656,19.1,19.1,0,0,1-2.3.9,8.86,8.86,0,0,0-2.46,1.312,0.4,0.4,0,0,0-.246.492C544.058,404.944,544.3,404.944,544.55,404.944Zm3.28-.41h0Zm-5.248-5.657c0.246-.083.41-0.165,0.656-0.247a5.7,5.7,0,0,1,2.3-1.886,0.3,0.3,0,0,1,.246-0.081,0.621,0.621,0,0,1,.41.081,0.314,0.314,0,0,1-.164.492,3.491,3.491,0,0,1-.574.328,7.6,7.6,0,0,1-2.214.984A2.49,2.49,0,0,1,542.582,398.877Zm1.23,0.409c0.82-.409,1.64-0.9,2.542-1.394a0.37,0.37,0,0,1,.41,0,0.3,0.3,0,0,1-.164.41A6.291,6.291,0,0,1,543.812,399.286Zm10.5,2.46v-0.164a0.254,0.254,0,0,0,.164-0.082,0.286,0.286,0,0,0,.082.164A0.3,0.3,0,0,0,554.308,401.746Zm3.033-.82a0.127,0.127,0,0,1,0-.246,0.3,0.3,0,0,0,.246-0.082v0.164A0.434,0.434,0,0,1,557.341,400.926Zm3.034-.738c0.164-.164.328-0.246,0.41-0.328s0.164-.082.164,0c0.082,0.082.082,0.164-.082,0.164C560.7,400.106,560.539,400.106,560.375,400.188Zm-3.69-5.493c0-.246.164-0.083,0.247-0.164a0.436,0.436,0,0,0,.245-0.164h0.164c0.082,0.082.082,0.164-.082,0.164h-0.327C556.849,394.612,556.768,394.612,556.685,394.7Zm8.282,4.345c-0.082-.082-0.082-0.082.082-0.082a1.879,1.879,0,0,1,.328-0.081,1.177,1.177,0,0,0-.328.163h-0.082Zm-10.085.82a0.7,0.7,0,0,1-.41-0.246,0.736,0.736,0,0,1,.082-0.409,1.907,1.907,0,0,1,1.23-.575,39.654,39.654,0,0,1,4.263-.983c2.542-.493,5.084-0.984,7.708-1.394,1.8-.247,3.69-0.328,5.575-0.492a3.662,3.662,0,0,0,.411.081v0.247a2.991,2.991,0,0,1-.9.164,96.179,96.179,0,0,0-15.251,2.869Zm1.967-6.149a0.618,0.618,0,0,0-.328-0.082c-0.081,0-.081-0.082-0.081-0.164a0.3,0.3,0,0,1,.081-0.246,0.628,0.628,0,0,1,.247-0.164c2.541-.492,5.083-0.82,7.707-1.066,0.082,0,.246,0,0.246.082,0.082,0.246-.082.246-0.246,0.328a1.04,1.04,0,0,0-.492.082c-0.984.164-1.886,0.328-2.87,0.492-1.23.164-2.378,0.41-3.526,0.656C557.341,393.629,557.1,393.711,556.849,393.711Zm12.3-1.968c-0.082-.083-0.164-0.164,0-0.246h0.574v0.163C569.559,391.66,569.313,391.743,569.149,391.743Zm-4.264-25.173s-0.164-.164-0.082-0.164a7.072,7.072,0,0,1,.9-2.3c0-.082.164-0.082,0.246-0.082a0.31,0.31,0,0,1,.164.164,15.149,15.149,0,0,1-1.066,2.378h-0.164Zm2.378-6.313a1.118,1.118,0,0,1,.246-0.328h0C567.427,360.011,567.345,360.175,567.263,360.257Zm44.4,40.341a2.564,2.564,0,0,0,1.558-.328,0.72,0.72,0,0,0,.164-1.312,0.807,0.807,0,0,1-.328-1.066,1.482,1.482,0,0,0-.492-2.05,5.735,5.735,0,0,0-.82-0.655,2.738,2.738,0,0,1-.9-1.066,3.455,3.455,0,0,0-2.132-1.722,11.612,11.612,0,0,0-1.8-.574c-2.706-.493-5.412-0.9-8.117-1.148-1.148-.164-2.214-0.328-3.28-0.492a0.673,0.673,0,0,1-.574-0.9,9.914,9.914,0,0,0,.41-1.476H595.02a0.189,0.189,0,0,1,.328,0,7.269,7.269,0,0,0,.9-2.542H596c0.164-.164.246-0.41,0.41-0.574a8.636,8.636,0,0,0,1.394-2.378,0.4,0.4,0,0,0-.246-0.492V381.9a2.464,2.464,0,0,1,.328-0.82,0.352,0.352,0,0,1,.574-0.164h0a3.636,3.636,0,0,1,1.311-.492,10.832,10.832,0,0,1,2.3.082,8.985,8.985,0,0,0,2.952-.163,54.173,54.173,0,0,1,7.216-.821c0.328-.081.656-0.081,0.9-0.164a1.38,1.38,0,0,0,.82-0.573,0.522,0.522,0,0,0-.246-0.821c-0.328-.081-0.656-0.163-0.9-0.245a0.177,0.177,0,0,1-.164-0.164,0.4,0.4,0,0,1,.082-0.328l0.492-.246c0.9-.575.984-0.984,0.246-1.722-0.328-.246-0.656-0.41-0.9-0.574-0.328-.246-0.574-0.41-0.9-0.656a0.627,0.627,0,0,1-.164-0.738c0.41-.574.082-0.9-0.328-1.312a3.011,3.011,0,0,0-1.64-.738,19.786,19.786,0,0,0-3.116-.082,5.294,5.294,0,0,1-1.968,0,0.8,0.8,0,0,1-.574-0.9,17.174,17.174,0,0,1,1.066-2.87,29.859,29.859,0,0,0,2.46-5.165,4.36,4.36,0,0,1,1.968-2.543v0.082c0-.327,0-0.573.328-0.655a7.677,7.677,0,0,1,1.312-.328l4.674-.738a41.661,41.661,0,0,1,5.575-.246,6.54,6.54,0,0,1,3.034.656,2.619,2.619,0,0,0,1.148.246,0.485,0.485,0,0,0,.574-0.574,1.163,1.163,0,0,1,.328-1.148,1.5,1.5,0,0,0,.082-1.968,1.792,1.792,0,0,0-.246-0.41,2.6,2.6,0,0,1-.574-1.886,2.574,2.574,0,0,0-.492-1.312,5.387,5.387,0,0,0-1.394-.984,7.4,7.4,0,0,0-3.526-.492c-0.738.082-1.558,0.082-2.3,0.164-2.377.164-4.837,0.328-7.133,0.574a37.25,37.25,0,0,0-4.182.738,16.461,16.461,0,0,0-3.854,1.312,2.691,2.691,0,0,0-1.476,1.23,1.008,1.008,0,0,0-.082,1.066,0.885,0.885,0,0,0,.9,0c0.164,0,.246-0.082.41-0.082s0.328,0,.328.246c0.082,0-.082.164-0.164,0.164a1,1,0,0,0-.738.492c0,0.738-.738,1.148-0.984,1.886a8.139,8.139,0,0,1-.9,1.64c-1.722,2.214-3.444,4.509-5,6.887-2.05,3.116-4.346,5.986-5.9,9.348a0.431,0.431,0,0,0-.164.246,54.949,54.949,0,0,0-4.592,9.019,5.281,5.281,0,0,1-.9,1.64,4.163,4.163,0,0,0-.737,3.116,7.7,7.7,0,0,0,.9,2.952,8.706,8.706,0,0,1,1.312,2.787c0.164,0.411.41,0.9,0.574,1.313a2.117,2.117,0,0,0,.82.9,11.65,11.65,0,0,0,7.626,2.624h2.788c2.869-.082,5.739.082,8.609,0.246C607.4,400.516,609.533,400.516,611.665,400.6Zm-13.2-19.679h0Zm4.345-2.3a0.307,0.307,0,0,1-.164-0.163,0.437,0.437,0,0,1,.246-0.165c0.82-.163,1.722-0.245,2.542-0.328,1.148-.163,2.214-0.245,3.28-0.409a0.165,0.165,0,0,0,.082.164,0.434,0.434,0,0,1-.246.164l-5.412.737h-0.328Zm3.936-16.562a0.207,0.207,0,0,1-.164-0.246c0.082-.082.082-0.165,0.164-0.246s0.164,0,.246.081A0.452,0.452,0,0,1,606.745,362.061Zm2.624-2.3v-0.082a6.282,6.282,0,0,0,1.23-.081,4.325,4.325,0,0,0,.984-0.246v-0.164A22.246,22.246,0,0,0,609.369,359.764Zm0.984-1.8a1.219,1.219,0,0,1-.492-0.082,0.08,0.08,0,0,1-.082-0.082v-0.328c0.246-.082.492-0.246,0.738-0.329a53.416,53.416,0,0,1,6.313-.9c1.066-.082,2.132-0.164,3.2-0.164a8.119,8.119,0,0,1,2.46.164,0.434,0.434,0,0,1,.164.246,0.277,0.277,0,0,1-.164.246,4.8,4.8,0,0,1-1.066.164,64.135,64.135,0,0,0-10.5,1.066h-0.574Zm-0.574-3.362a0.286,0.286,0,0,1-.082-0.164,0.114,0.114,0,0,1,0-.164,1.385,1.385,0,0,1,.41-0.164,76.176,76.176,0,0,1,8.691-.984c0.656,0,1.394.082,2.132,0.082a0.3,0.3,0,0,1-.082.246c-1.066.082-2.132,0.246-3.2,0.328-2.459.164-4.837,0.574-7.215,0.82A1.765,1.765,0,0,1,609.779,354.6Zm0-.738a2.27,2.27,0,0,1-.738-0.082,0.209,0.209,0,0,1-.082-0.41,3.7,3.7,0,0,1,.9-0.246c1.148-.164,2.378-0.41,3.526-0.492a36.358,36.358,0,0,1,6.067-.492c0.656,0.164,1.64-.246,2.46.328a5.46,5.46,0,0,1-2.542.328A95.352,95.352,0,0,0,609.779,353.861Zm11.561,4.51h0.41a0.08,0.08,0,0,0,.082-0.082c0-.246.082,0-0.082,0a0.523,0.523,0,0,0-.492,0C621.094,358.289,621.176,358.371,621.34,358.371Zm28.782,44.359a1.468,1.468,0,0,0,1.148-.328,1.485,1.485,0,0,1,1.64-.245,0.55,0.55,0,0,0,.656-0.247,6.9,6.9,0,0,0,1.23-2.132v-0.164h-0.328l-0.328.328h-0.328a0.493,0.493,0,0,1,.082-0.328,2.125,2.125,0,0,1,.82-0.9,2.666,2.666,0,0,0,.984-1.312,0.614,0.614,0,0,1,0-.983,0.769,0.769,0,0,0,.41-0.739,1.7,1.7,0,0,1,.738-1.557,4.086,4.086,0,0,0,.82-0.9,18.214,18.214,0,0,0,2.378-4.92l-0.984,1.23a2.951,2.951,0,0,1-.9,1.64h0a2.176,2.176,0,0,1,.9-1.558,3.978,3.978,0,0,1,.656-1.722c0.164-.246.328-0.41,0.574-0.246,0.82-1.64,1.558-3.28,2.3-4.92a1.869,1.869,0,0,0,.246-0.9,2.893,2.893,0,0,1,.656-2.132,3.892,3.892,0,0,0,.738-1.557,1.551,1.551,0,0,1,.984-1.148c0.328-.082.656-0.246,0.984-0.328l2.951-.492a52.282,52.282,0,0,1,8.036-.328,7.97,7.97,0,0,1,3.116.41,2.1,2.1,0,0,0,1.23,0,0.429,0.429,0,0,0,.328-0.656,1.22,1.22,0,0,1-.164-0.738,2.854,2.854,0,0,0-.328-3.2,2.957,2.957,0,0,1-.492-1.64,1.273,1.273,0,0,0-.41-1.148,4.114,4.114,0,0,0-1.23-1.148,14.457,14.457,0,0,0-6.888-1.64,7.445,7.445,0,0,1-1.886-.246,1.028,1.028,0,0,1-.984-1.147,2.913,2.913,0,0,1,.164-0.821c0.328-1.393.492-2.787,0.738-4.263a26.339,26.339,0,0,0,.082-5.084c0-1.394.082-1.64,1.476-1.886,0.41-.082.9-0.082,1.394-0.164,0.574-.082,1.23-0.246,1.8-0.328,0.164-.082.492,0,0.328-0.328-1.394.164-2.706,0.328-4.1,0.492a0.905,0.905,0,0,1-.656,0,0.08,0.08,0,0,1-.082-0.082,0.3,0.3,0,0,1,.082-0.246,0.866,0.866,0,0,1,.41-0.164c2.46-.41,5-0.656,7.462-0.82a3.458,3.458,0,0,1,2.378.492,11.044,11.044,0,0,0-1.8.082,2.2,2.2,0,0,0-1.476.328c0.82,0,1.64-.082,2.46-0.082a7.811,7.811,0,0,1,4.345.82c0.247,0.082.41,0.164,0.656,0.246a0.634,0.634,0,0,0,.9-0.656,3.98,3.98,0,0,1,0-1.394,3.889,3.889,0,0,0-.246-2.706,13.058,13.058,0,0,1-.574-1.639,4.321,4.321,0,0,0-4.181-3.854c-1.476-.164-3.034-0.246-4.51-0.328a4.078,4.078,0,0,0-1.722.082,36.091,36.091,0,0,1-4.182.41,53.882,53.882,0,0,0-12.381,2.213,15.745,15.745,0,0,0-3.772,1.722,2.924,2.924,0,0,0-1.394,3.28,2.374,2.374,0,0,1,0,1.312c-0.246,1.558.328,2.132,1.886,1.8,0.164,0,.328-0.082.492-0.082,1.148-.246,2.3-0.492,3.526-0.738l3.444-.738a0.77,0.77,0,0,1,.738.082,0.157,0.157,0,0,1,.082.246,0.923,0.923,0,0,1-.656.41c-2.378.492-4.756,0.984-7.134,1.558a0.9,0.9,0,0,0-.738.246s-0.082.082,0,.082c0,0.082,0,.246.082,0.246a0.744,0.744,0,0,0,.574.246,9.5,9.5,0,0,0,2.624-.246c1.148-.246,2.378-0.41,3.526-0.656,0.164,0,.328,0,0.328.246a0.434,0.434,0,0,1-.164.246c-0.41.082-.738,0.164-1.066,0.246l-1.23.246-1.23.246a3.676,3.676,0,0,0,1.886,0,6.206,6.206,0,0,1,1.23-.082,0.481,0.481,0,0,1,.328.738,29.843,29.843,0,0,0-2.706,4.755c-0.328.575-.738,1.23-1.066,1.886-0.492.985-.984,2.051-1.394,3.116a2.785,2.785,0,0,1-2.378,1.722,9.468,9.468,0,0,0-3.28.984c-1.065.492-2.131,0.984-3.279,1.476a3.808,3.808,0,0,0-1.64,1.066,3.277,3.277,0,0,0-.82,1.886c-0.164.492,0.328,0.656,0.574,0.984a0.739,0.739,0,0,1,.082.41c0,0.328.164,0.328,0.41,0.41,0.246,0,.41.164,0.246,0.41-0.082.164-.164,0.246-0.246,0.41a1.359,1.359,0,0,0,0,1.722,1.606,1.606,0,0,0,1.64.737,9.79,9.79,0,0,0,1.476-.409c0.246,0,.492-0.164.737-0.164a0.277,0.277,0,0,1,.247.164,0.264,0.264,0,0,1,0,.246,1.084,1.084,0,0,1-.82.491,2.069,2.069,0,0,0-1.148.493c-0.246.163-.246,0.491,0.082,0.737,0.9,0.656,1.066.82,0.738,1.886a17.073,17.073,0,0,1-.984,2.624c-0.984,2.132-2.05,4.182-3.034,6.314a10,10,0,0,0-.574,1.394,5.289,5.289,0,0,0-.41,3.362,1.927,1.927,0,0,0,1.066,1.558,1.652,1.652,0,0,1,1.23,2.049,6.165,6.165,0,0,0,0,1.23,1.957,1.957,0,0,0,.82,1.476,0.871,0.871,0,0,0,1.148.082c0.246-.164.492-0.41,0.738-0.574a0.432,0.432,0,0,1,.656.41,4.155,4.155,0,0,1-.164,1.066A0.634,0.634,0,0,0,650.122,402.73Zm5.494-5.33h0Zm1.312-2.541h0Zm3.116-6.56h0a2.055,2.055,0,0,1,.328-0.574A2.055,2.055,0,0,0,660.044,388.3ZM648.4,374.114a1.132,1.132,0,0,1-.328-0.246,0.434,0.434,0,0,1,.164-0.246l0.082-.082a17.487,17.487,0,0,1,4.017-1.23,0.434,0.434,0,0,1,.246.164c0.082,0.082,0,.246-0.164.328A38.209,38.209,0,0,1,648.4,374.114Zm-0.738-1.066a0.826,0.826,0,0,1-.246-0.082,0.626,0.626,0,0,1,.164-0.41,0.277,0.277,0,0,1,.246-0.164,35.656,35.656,0,0,1,5-1.64,1,1,0,0,1,.492,0,0.31,0.31,0,0,1,.164.164,0.493,0.493,0,0,1-.082.328c-0.246.082-.41,0.246-0.656,0.328-1.476.492-2.951,0.984-4.427,1.394A1.806,1.806,0,0,1,647.663,373.048ZM666.686,376a0.176,0.176,0,0,1-.164-0.164c0-.246.246-0.246,0.41-0.246,0.082,0.081.164,0.164,0.164,0.164C667.1,376,666.85,376,666.686,376Zm2.623-.246c-0.082,0-.082-0.083-0.082-0.164a0.845,0.845,0,0,1,.984-0.164v0.082A0.776,0.776,0,0,1,669.309,375.754Zm-1.066-1.394a1.588,1.588,0,0,1-1.475-.246c-0.164-.246.41-0.656,1.393-0.738,1.558-.082,3.116-0.164,4.51-0.328a15.61,15.61,0,0,1,3.608.41,0.31,0.31,0,0,1,.164.164,0.277,0.277,0,0,1-.164.246,7.956,7.956,0,0,1-1.394.082A60.166,60.166,0,0,0,668.243,374.36Zm1.148-4.182c-0.082,0-.164-0.082-0.246-0.082a0.08,0.08,0,0,1,.082-0.082c0.082,0,.246-0.082.246,0C669.555,370.1,669.473,370.178,669.391,370.178Zm0-.984a0.63,0.63,0,0,1-.246-0.164,0.227,0.227,0,0,1,.246-0.328,15.777,15.777,0,0,1,4.674.246A32.476,32.476,0,0,1,669.391,369.194ZM654.96,350.089a0.164,0.164,0,0,1,.082-0.164h0.082c0.082,0.082,0,.164-0.082.164H654.96Zm5.576-1.476a0.134,0.134,0,0,1,.164-0.164h0.246a3.553,3.553,0,0,1,1.558-.328,42.319,42.319,0,0,1,6.231-1.311c2.542-.328,5.166-0.574,7.708-0.821a9.985,9.985,0,0,1,3.116,0,0.354,0.354,0,0,1,.328.328,0.627,0.627,0,0,1-.41.165,7.594,7.594,0,0,1-1.394.081,94.629,94.629,0,0,0-9.594.82,47.526,47.526,0,0,1-5.985.738,3.315,3.315,0,0,1-1.558.328c-0.082,0-.164.082-0.246,0.082S660.618,348.613,660.536,348.613Zm-1.722-.656a0.434,0.434,0,0,1-.246-0.164l0.082-.082a10.513,10.513,0,0,1,1.476-.492c2.624-.574,5.33-1.147,7.953-1.475a51.057,51.057,0,0,1,11.152-.82,6.837,6.837,0,0,1,2.214.245,0.436,0.436,0,0,1,.164.247c0.082,0.164-.164.245-0.246,0.245h-3.936a85.609,85.609,0,0,0-12.053,1.149c-1.968.245-3.854,0.737-5.822,1.065A2.27,2.27,0,0,1,658.814,347.957Zm11.315,2.952a3.551,3.551,0,0,0-.41-0.082,0.434,0.434,0,0,1-.164-0.246,0.277,0.277,0,0,1,.164-0.246,2.937,2.937,0,0,1,.9-0.328,41.79,41.79,0,0,1,9.1-.738,9.131,9.131,0,0,1,1.394.164,0.509,0.509,0,0,1,.328.246,0.367,0.367,0,0,1-.41.328,1.806,1.806,0,0,1-.656.082,65.157,65.157,0,0,0-9.758.738C670.457,350.827,670.375,350.909,670.129,350.909Zm13.761,47.147a1.428,1.428,0,0,0,2.05-.984,3.266,3.266,0,0,1,.737-1.722,3.4,3.4,0,0,0,.328-0.819,0.327,0.327,0,0,1-.328-0.164h0.164l0.164,0.164a3.733,3.733,0,0,0,.656-1.558h-0.328l-0.082.082,0.082-.082h0.328a9.887,9.887,0,0,0,1.23-2.46c-0.246.082-.41,0.164-0.656,0.246a2.455,2.455,0,0,1-.328.656h0.082c0.082-.246.164-0.41,0.246-0.656a2.119,2.119,0,0,1,1.23-1.64c0.328-.164.574-0.492,0.082-0.9a0.493,0.493,0,0,1,0-.574c0.246-.41.492-0.82,0.738-1.148a0.717,0.717,0,0,1,.738-0.41,4.31,4.31,0,0,1,1.394-.328c1.23-.082,2.46-0.246,3.69-0.328a6.236,6.236,0,0,0,2.05-.492,1.055,1.055,0,0,1,.984-0.082h0c0.9-.246,1.722-0.41,2.624-0.656,2.049-.574,2.295-0.328,2.377,1.8,0,1.23.082,2.378,0.082,3.608a6.039,6.039,0,0,0,1.394,3.69,7.118,7.118,0,0,1,.9,1.476,5.85,5.85,0,0,0,.656,1.229,1.332,1.332,0,0,0,1.312.738,1.162,1.162,0,0,1,1.23.738,0.547,0.547,0,0,0,.82.082,4.649,4.649,0,0,0,1.066-.656,2.315,2.315,0,0,0,1.23-2.049v-0.738a40.285,40.285,0,0,1,.41-5.494,47.013,47.013,0,0,1,.574-4.756,1.6,1.6,0,0,0,.082-0.656,21.753,21.753,0,0,1,.41-4.592c0.164-1.393.41-2.787,0.492-4.181,0.164-2.788.738-5.412,1.066-8.2,0.082-.656.246-1.312,0.328-1.968,0.246-2.869.41-5.739,0.574-8.527a17.808,17.808,0,0,0-.246-3.608,23.011,23.011,0,0,1-.656-2.542,3.568,3.568,0,0,0-1.066-2.05,2.131,2.131,0,0,1-.738-1.311,3.846,3.846,0,0,0-1.312-2.214,4.315,4.315,0,0,1-.984-1.148,1.514,1.514,0,0,0-1.886-.738,6.938,6.938,0,0,0-2.706,1.311,24.809,24.809,0,0,0-4.264,4.019c-0.655.819-1.393,1.721-2.131,2.541a40.845,40.845,0,0,0-3.936,5.166c-0.656,1.066-1.23,2.214-1.8,3.28a46.976,46.976,0,0,0-2.87,4.838c-0.984,2.05-2.05,4.181-3.116,6.231a44.81,44.81,0,0,0-2.46,4.838c-0.738,1.722-1.475,3.362-2.3,5a36.191,36.191,0,0,0-1.968,4.428,15.535,15.535,0,0,1-.738,1.722,34.991,34.991,0,0,0-2.05,5.821,3.738,3.738,0,0,0,.82,3.773,8.9,8.9,0,0,1,1.066,1.393,1.774,1.774,0,0,0,1.64,1.23A3.469,3.469,0,0,1,683.89,398.056Zm5-7.543v0h0Zm1.558-3.116v0Zm0,0a4.869,4.869,0,0,1,.328-0.656h0a2.055,2.055,0,0,0-.328.574V387.4Zm0.328-.656a2.455,2.455,0,0,1,.328-0.656h-0.082C690.941,386.331,690.859,386.5,690.777,386.741Zm8.364-1.886h0Zm11.889,11.48c-0.082,0-.164-0.082-0.246-0.082a0.286,0.286,0,0,1,.246-0.328c0.082-.083.164,0,0.246,0.081A0.345,0.345,0,0,1,711.03,396.335Zm-13.775-21.4a4.835,4.835,0,0,0,.328-0.656A4.835,4.835,0,0,1,697.255,374.934Zm0.328-.656a2.455,2.455,0,0,0-.328-0.656A7.541,7.541,0,0,0,699.8,369.6a2.855,2.855,0,0,0,.9-1.066c0.328-.41.656-0.738,0.984-1.148-0.328.656-.574,1.394-0.984,2.05A37.4,37.4,0,0,1,697.583,374.278Zm1.558,1.23a1.725,1.725,0,0,1-1.8-.656,1.792,1.792,0,0,0-.41.246c-0.246,0-.328-0.082-0.328-0.246a2.755,2.755,0,0,1,.738-1.23,12.086,12.086,0,0,1,2.46-4.018,10.2,10.2,0,0,1,2.787-4.346v-0.082c-0.327.738-.655,1.476-0.9,2.214a4.948,4.948,0,0,0,.656-0.656c0.573-.82,1.065-1.721,1.639-2.624,0.082-.082.082-0.246,0-0.246-0.082-.164-0.246-0.081-0.41,0h-0.245a0.434,0.434,0,0,1,0-.328c0.491-.656.983-1.311,1.475-2.05h0.246c0,0.083.082,0.164,0.082,0.247a0.78,0.78,0,0,0,0,.738,3.275,3.275,0,0,1,.328,2.459c-0.328,2.214-.492,4.428-0.656,6.642a12.846,12.846,0,0,1-.41,2.46,1.044,1.044,0,0,1-.9.9C702.011,375.1,700.617,375.343,699.141,375.508Zm9.1-29.026a1.45,1.45,0,0,1,.574-0.574l0.328-.328h0a1.252,1.252,0,0,1-.328.328,1.118,1.118,0,0,0-.246.328A1.1,1.1,0,0,0,708.242,346.482Zm2.706-2.707,0.082-.081Zm34.677,59.857a2.7,2.7,0,0,1,1.395-.328,0.753,0.753,0,0,0,.9-0.656c0.328-.984.656-2.05,0.984-3.115a1.1,1.1,0,0,1-.41.245c-0.164,0-.164-0.245-0.164-0.328a3.427,3.427,0,0,1,1.148-2.131,0.886,0.886,0,0,0,.9-0.493,24.1,24.1,0,0,1,1.148-2.542c1.148-2.787,2.3-5.575,3.69-8.2,0.656-1.312,1.148-2.788,1.722-4.182,0.164-.328.164-0.573-0.328-0.492-0.246,0-.246-0.164-0.246-0.328a2.241,2.241,0,0,1,.738-0.983,4,4,0,0,0,1.23-1.394,6.749,6.749,0,0,1,1.886-2.378,1.1,1.1,0,0,0,.492-1.148,9.269,9.269,0,0,1,0-2.132,0.68,0.68,0,0,1-.246-0.656,2.254,2.254,0,0,1,.82-1.558c-0.082.82-.574,1.476-0.574,2.214a3.382,3.382,0,0,0,.82-1.066,37.383,37.383,0,0,0,1.393-3.936c-0.081,0-.163.082-0.245,0.082a0.244,0.244,0,0,1-.328,0c-0.164-.082-0.082-0.246,0-0.328a2.221,2.221,0,0,1,.573-0.656h0v0.9a17.032,17.032,0,0,0,1.886-4.346,2.019,2.019,0,0,0-.082-0.984l0.082,0.083c0.82-1.149.738-2.624,1.722-3.608a0.5,0.5,0,0,0,.082-0.492,3.931,3.931,0,0,1,.41-1.886l0.738-2.214c0.082-.492,0-0.738-0.574-0.738-0.328,0-.41-0.246-0.328-0.574a9.914,9.914,0,0,1,.41-1.476,2.215,2.215,0,0,0-2.3-2.787,1.356,1.356,0,0,1-.574,0c-0.164-.247.164-0.411,0.328-0.656a0.788,0.788,0,0,0-.246-0.821,1.873,1.873,0,0,0-2.377-.328,4.708,4.708,0,0,0-1.312.9,19.786,19.786,0,0,0-3.444,3.936c-0.984,1.394-1.64,3.034-2.87,4.264a2.552,2.552,0,0,0-.328.492c-0.656,1.148-1.312,2.214-1.886,3.362a4.312,4.312,0,0,0-.492.82c-0.656,1.885-1.64,3.607-2.46,5.411a2.211,2.211,0,0,1-1.722,1.312,4.667,4.667,0,0,0-1.065.082c-1.64.082-3.362,0.164-5,.164a1.355,1.355,0,0,1-.574,0,0.575,0.575,0,0,1-.574-0.738,6.145,6.145,0,0,1,.41-1.312,13.065,13.065,0,0,0-1.066,1.066,5.439,5.439,0,0,1,1.066-2.542,2.934,2.934,0,0,0,.9-2.049,2.025,2.025,0,0,1,.328-0.9,14.545,14.545,0,0,0,1.8-3.771,25.961,25.961,0,0,0,.984-3.608c0.082-.41-0.246-0.492-0.656-0.41a2.961,2.961,0,0,1-1.23,2.542h0a4.253,4.253,0,0,1,1.312-2.542,7.923,7.923,0,0,1-.082-1.968c0-1.148-.082-2.3-1.312-3.033a1.432,1.432,0,0,1-.656-0.985,2.336,2.336,0,0,0-4.1-.738,2.2,2.2,0,0,0-.41.493A48.5,48.5,0,0,0,732.1,355.5a60.889,60.889,0,0,0-3.279,6.56c-1.066,2.377-2.214,4.755-3.2,7.215a3.844,3.844,0,0,1-2.132,2.378,5.043,5.043,0,0,0-1.558.984,2.054,2.054,0,0,0-.41,2.705,1.729,1.729,0,0,1,.41,1.231,6.135,6.135,0,0,1-.82,3.443,95.523,95.523,0,0,0-4.346,10.988,4.879,4.879,0,0,0-.082,1.886,1.946,1.946,0,0,0,1.8,2.132,0.33,0.33,0,0,1,.328.41v0.9a2.242,2.242,0,0,0,.41,1.476,1.457,1.457,0,0,0,.9.655,0.991,0.991,0,0,0,.82-0.246,0.44,0.44,0,0,1,.246-0.164,0.486,0.486,0,0,1,.656.246c0.082,0.164,0,.328.082,0.492a0.568,0.568,0,0,0,.9.411,12.209,12.209,0,0,0,1.066-.739,0.615,0.615,0,0,1,.738,0c0.164,0.246.41,0.328,0.574-.082,0.41-.984.82-1.967,1.312-2.951,0.656-1.477,1.394-2.952,2.132-4.51a0.953,0.953,0,0,0,.245-1.066c-1.065,1.558-1.475,3.362-2.787,4.755a2.922,2.922,0,0,1,.492-1.557,29.947,29.947,0,0,0,1.476-2.788c0.574-1.394,1.23-2.788,1.885-4.264a12.387,12.387,0,0,1,.738-1.476l0.164-.164a0.3,0.3,0,0,0,.246-0.082,0.826,0.826,0,0,0,.082.246,6.5,6.5,0,0,1-.328.738,0.875,0.875,0,0,0,0,.9c0.574-.984.984-1.968,1.476-2.87,0.492-1.066,1.066-2.132,1.558-3.2a2.489,2.489,0,0,1,1.886-1.477l1.23-.245a17.939,17.939,0,0,0,3.526-.739,19.37,19.37,0,0,1,3.034-.409,0.765,0.765,0,0,1,.984.9,7.979,7.979,0,0,1-.82,2.951,20.968,20.968,0,0,0-.9,1.968,17.151,17.151,0,0,1-.9,2.46l-0.492,1.476a44.781,44.781,0,0,1-1.722,5,15.367,15.367,0,0,0-.738,3.361,5.649,5.649,0,0,0,.246,2.625,1.211,1.211,0,0,0,.738.9,1.578,1.578,0,0,1,1.23,1.557,5.212,5.212,0,0,0,.492,1.476,1.329,1.329,0,0,0,1.886.738,1.165,1.165,0,0,1,.492-0.164,0.86,0.86,0,0,1,.328.246,0.4,0.4,0,0,1,.082.328C744.724,403.8,744.888,403.96,745.625,403.632Zm-20.58-6.478v-0.163c0.082-.083.164-0.083,0.164,0v0.163h-0.164Zm4.591-8.855c0,0.082.082,0.082,0.082,0,0.082-.082.082-0.164,0.164-0.246a0.434,0.434,0,0,0-.246.164V388.3Zm0.246-.246a2.455,2.455,0,0,1,.328-0.656h-0.082a5.65,5.65,0,0,0-.246.656h0Zm0.246-.656h0Zm1.64-4.346a2.074,2.074,0,0,1,.492-1.23A2.16,2.16,0,0,1,731.768,383.051Zm17.137,16.482h0c0.082-.083.164-0.247,0.246-0.328v-0.247a0.176,0.176,0,0,0-.164.164A0.893,0.893,0,0,0,748.905,399.533Zm-15.825-19.6c0-.083,0-0.083.082-0.083a0.081,0.081,0,0,1,.082.083C733.162,380.017,733.08,380.017,733.08,379.936Zm16.973,15.906c-0.164,0-.164-0.081-0.082-0.164,0-.081.082-0.081,0.082,0,0.082,0,.082,0,0.082.083A0.08,0.08,0,0,0,750.053,395.842Zm0.738-1.886,0.082-.081a0.434,0.434,0,0,0,.164-0.246,0.3,0.3,0,0,1-.082.246C750.955,394.039,750.873,394.039,750.791,393.956Zm1.148-2.541v-0.246c0-.164.164-0.246,0.164-0.41,0.082,0,.164,0,0.164.082v0.082a0.4,0.4,0,0,1-.082.328C752.1,391.332,752.021,391.332,751.939,391.415Zm1.64-3.69a3.573,3.573,0,0,1,.9-2.378c0.082-.082.246-0.164,0.246-0.082a0.178,0.178,0,0,1,.082.328C754.4,386.331,753.989,386.987,753.579,387.725Zm1.8-3.854c-0.082.082-.164-0.082-0.164-0.246a3.269,3.269,0,0,1,.246-0.328h0.246v0.246A0.64,0.64,0,0,1,755.383,383.871Zm-14.6-17.957v0h0Zm16.727,12.628a0.824,0.824,0,0,1-.082-0.247c0.082-.245.082-0.491,0.41-0.409a0.306,0.306,0,0,1,.164.164A0.53,0.53,0,0,1,757.515,378.542Zm6.641-17.3h0Zm-1.23-10a1.237,1.237,0,0,1,.328-0.328c0.082-.082.164-0.246,0.246-0.328a0.64,0.64,0,0,0,.328-0.328l0.164-.164a0.164,0.164,0,0,1,.164-0.082c0.082,0.082.082,0.082-.082,0.164a0.3,0.3,0,0,1-.246.082,0.64,0.64,0,0,1-.328.328,1.237,1.237,0,0,1-.328.328A1.132,1.132,0,0,0,762.926,351.237Zm31.358,56.249a0.519,0.519,0,0,0,.738-0.082,6.262,6.262,0,0,0,.738-0.738,3.291,3.291,0,0,1,1.312-1.066,0.638,0.638,0,0,0,.492-0.738v-0.574a2.107,2.107,0,0,1,.246-1.968c0.082-.246.164-0.574,0.246-0.9h0c-0.246-1.148.328-2.132,0.491-3.279a0.969,0.969,0,0,1,.41-0.411,3.713,3.713,0,0,0,.984-3.279,2.494,2.494,0,0,1,.246-1.722h0a2.345,2.345,0,0,1,0-1.067c0.492-1.475.9-2.951,1.312-4.427a64.946,64.946,0,0,1,2.3-6.724,19.912,19.912,0,0,1,.82-1.967,0.825,0.825,0,0,1,.9-0.492h0c0.41-.984.82-1.968,1.148-2.87a7.216,7.216,0,0,0,.41-1.23c0.082,0,0-.082,0-0.082-0.082-.164-0.082.164-0.082-0.082-0.246.328-.328,0.574-0.492,0.82-0.246.492-.492,0.984-0.738,1.394a0.63,0.63,0,0,1-.246.164c0-.082-0.164-0.164-0.082-0.246a4.742,4.742,0,0,1,.41-1.148,30.293,30.293,0,0,0,1.394-3.444,10.794,10.794,0,0,1,1.066-3.116c0.328-.656.656-1.394,0.984-2.132,0.738-1.393,1.312-2.87,2.214-4.263a6.839,6.839,0,0,0,1.394-3.772,2.227,2.227,0,0,1,.492-1.394,3.755,3.755,0,0,0,.656-1.066,17.782,17.782,0,0,1,.573-2.87,0.275,0.275,0,0,0-.164-0.246c0-.082-0.163,0-0.245.082-0.164.164-.164,0.738-0.492,0.656-0.492-.164-0.164-0.656-0.082-0.984a12.234,12.234,0,0,1,.164-1.722,1.688,1.688,0,0,0-.984-2.05,0.982,0.982,0,0,1-.41-0.41,0.781,0.781,0,0,0-.574-0.164c-0.656.082-.656,0.082-0.492-0.492a0.879,0.879,0,0,0-.492-1.229,2.489,2.489,0,0,0-2.706.245,13.909,13.909,0,0,0-3.2,3.362c-1.148,1.968-2.378,4.018-3.608,5.986a2.455,2.455,0,0,0-.328.656c-0.984,2.378-1.968,4.592-2.7,6.969a9.658,9.658,0,0,1-.574,1.641,16.244,16.244,0,0,0-1.148,3.361c-0.246.738-.41,1.476-0.656,2.132a23.4,23.4,0,0,0-1.558,5.165,9.211,9.211,0,0,1-.656,2.133,19.85,19.85,0,0,0-.82,2.951,20.621,20.621,0,0,1-.574,2.133,1.232,1.232,0,0,1-1.148.737,16.5,16.5,0,0,0,.246-4.509,6.08,6.08,0,0,1-.082-1.722,18.475,18.475,0,0,0-.082-4.756,61.825,61.825,0,0,1-.246-7.79,30.156,30.156,0,0,0-.574-4.756,10.956,10.956,0,0,0-.9-3.2,9.573,9.573,0,0,1-.9-2.3,4.183,4.183,0,0,0-.984-1.886,3.44,3.44,0,0,1-.738-1.148,3.7,3.7,0,0,0-2.46-2.788,0.44,0.44,0,0,0-.246-0.164,0.581,0.581,0,0,1-.574-0.656,0.88,0.88,0,0,0-.738-0.9,4.154,4.154,0,0,0-1.065-.164,2.708,2.708,0,0,0-3.116,1.394,21.468,21.468,0,0,0-1.394,2.3c-0.574,1.148-1.148,2.3-1.8,3.444a16.112,16.112,0,0,0-1.066,2.05c-0.41,1.065-.82,2.132-1.312,3.2a14.4,14.4,0,0,0-.82,2.46,3.031,3.031,0,0,1-.328,1.229c-1.64,2.87-2.378,6.068-3.608,9.1-0.9,4.018-2.624,7.872-3.607,11.889,0,0.082-.083.082-0.083,0.164-0.655,2.05-1.311,4.182-1.967,6.232a7.019,7.019,0,0,0-.164,3.444,2.96,2.96,0,0,0,1.476,2.213,2.205,2.205,0,0,1,1.229,1.476,2.531,2.531,0,0,0,1.394,1.64,0.631,0.631,0,0,0,.82-0.082c0.246-.163.41-0.738,0.9-0.492a1.057,1.057,0,0,1,.328.985,0.277,0.277,0,0,0,.164.245,0.626,0.626,0,0,0,.41.164,0.862,0.862,0,0,0,.738-0.409,9.486,9.486,0,0,1,.9-0.9c0.082-.164.246-0.164,0.41,0,0.082,0.247.246,0.656,0.41,0.164a20.586,20.586,0,0,0,.574-2.131,0.542,0.542,0,0,0-.492-0.574,0.3,0.3,0,0,1-.082.246,0.255,0.255,0,0,0,.082-0.165,1.519,1.519,0,0,1,.574-1.065,2.621,2.621,0,0,0,.738-1.312,8.384,8.384,0,0,0,.574-2.378c-0.164.574-.41,1.066-0.574,1.558a7.563,7.563,0,0,0-.41.656c0,0.082-.164.082-0.164,0.082a0.434,0.434,0,0,1-.164-0.246c0.246-.738.41-1.476,0.738-2.214,0.082-.246.082-0.82,0.574-0.656,0.246,0.082,0,.574,0,0.9a8.917,8.917,0,0,0,1.23-2.706,76.708,76.708,0,0,1,3.772-9.347,7.469,7.469,0,0,1,.738-1.394,0.554,0.554,0,0,1,.492-0.328,0.449,0.449,0,0,1,.328.492v0.737c0.082,1.723.082,3.444,0.246,5.166,0.328,3.526.737,6.97,1.148,10.5a5.07,5.07,0,0,0,1.475,3.2,8.514,8.514,0,0,1,1.8,2.049,12.6,12.6,0,0,0,1.394,1.558,0.972,0.972,0,0,0,1.148.164,0.692,0.692,0,0,1,.984.328c0.984,1.64,2.788,2.624,3.362,4.428,0,0.082.082,0.082,0.082,0.164,0.574,0.656.9,0.738,1.558,0.164a1.012,1.012,0,0,1,.656-0.328,0.826,0.826,0,0,1,.246.082v0.492A0.505,0.505,0,0,0,794.284,407.486Zm-20.171-18.449c-0.082-.082-0.164-0.164-0.082-0.246a0.626,0.626,0,0,1,.164-0.41,0.08,0.08,0,0,1,.082-0.082l0.164,0.164c-0.082.164-.082,0.246-0.164,0.41C774.277,388.955,774.113,388.955,774.113,389.037Zm0.9-2.542c-0.164,0-.164-0.164-0.082-0.492,0.574-1.476,1.148-3.115,1.8-4.756,0.246-.656.574-1.311,0.82-2.05a18.576,18.576,0,0,1,1.394-2.869c0.082-.082.164-0.246,0.246-0.164,0.164,0,.164.164,0.164,0.328a9.111,9.111,0,0,1-.574,1.312,53.389,53.389,0,0,0-2.542,6.313c-0.328.738-.656,1.476-0.984,2.3A0.157,0.157,0,0,1,775.015,386.5Zm24.106,10c-0.082.083-.164,0-0.164-0.163a1.385,1.385,0,0,1,.164-0.41,0.4,0.4,0,0,0,.246-0.083,0.636,0.636,0,0,0,.082.247C799.367,396.17,799.285,396.335,799.121,396.5Zm-9.265-10.9,0.082-.082Zm10.331,7.134a1.57,1.57,0,0,0,.82-1.476A13.267,13.267,0,0,1,800.187,392.727Zm1.886-4.92h0.082c0.082,0,.082-0.082.082-0.164h-0.164v0.164Zm1.23-3.772v0Zm0-.082a0.254,0.254,0,0,0,.082-0.164A0.254,0.254,0,0,1,803.3,383.953Zm0.984-2.788a0.431,0.431,0,0,0,.164-0.246,0.613,0.613,0,0,0,.082-0.41h0.082c-0.082.165-.164,0.246-0.246,0.41C804.287,381,804.369,381.083,804.287,381.165Zm0.328-.819a2.408,2.408,0,0,0,.574-1.313A3.076,3.076,0,0,0,804.615,380.346Zm0.574-1.313a4.6,4.6,0,0,0,.328-0.983h0C805.435,378.378,805.271,378.706,805.189,379.033Zm2.542-7.215a4,4,0,0,1,.328-0.9A2.937,2.937,0,0,0,807.731,371.818Zm0.246-.9h0Zm1.886-4.674h0Zm0,0a2.455,2.455,0,0,0,.328-0.656A4.869,4.869,0,0,0,809.863,366.242Zm0.328-.656c0.082-.245.246-0.41,0.328-0.656A2.47,2.47,0,0,0,810.191,365.586Zm0.328-.656a2.669,2.669,0,0,0,.656-1.558A2.4,2.4,0,0,0,810.519,364.93Zm0.574-1.558h0Zm1.312-7.461h0Zm-1.23-7.134h0Zm3.544,54.2a15.033,15.033,0,0,1,2.049-.738,1.2,1.2,0,0,0,.984-1.476c-0.082-1.148.492-2.132,0.574-3.2a1.093,1.093,0,0,1,.41-0.492v0.082a10.085,10.085,0,0,0,1.148-2.542,26.511,26.511,0,0,0,1.312-4.345h0c-0.246-.082-0.328-0.164-0.164-0.41a3.566,3.566,0,0,0,.492-0.574,2.308,2.308,0,0,1,.492-1.23,1.661,1.661,0,0,0,.492-1.312,1.628,1.628,0,0,1,.574-1.476,0.866,0.866,0,0,1,.164-0.41,1.568,1.568,0,0,1,.574-1.64,0.76,0.76,0,0,0,.246-0.984c-0.164-.492-0.164-0.738.328-0.984a1.007,1.007,0,0,0,.41-1.147,1.492,1.492,0,0,1,.656-1.312,2.621,2.621,0,0,0,.738-1.312c-0.082,0-.082.082-0.164,0.082s-0.328.081-.41,0.081a0.389,0.389,0,0,1-.082-0.409,2.491,2.491,0,0,1,.738-1.066,4.015,4.015,0,0,0,1.394-2.05,17.545,17.545,0,0,1,.82-1.8,7.691,7.691,0,0,0,.82-2.3h-0.328a2.055,2.055,0,0,1-.328.574,3.551,3.551,0,0,1-.082.41,0.434,0.434,0,0,1-.246.164c0.082-.082,0-0.164.082-0.246l0.246-.246a4.835,4.835,0,0,0,.328-0.656,0.171,0.171,0,0,1,.328,0,20.731,20.731,0,0,0,1.476-3.034,0.636,0.636,0,0,0-.164-0.82,0.405,0.405,0,0,1,.082-0.574c0.328-.41.738-0.82,1.066-1.229h0V363.7h0a18.315,18.315,0,0,1,.983-2.214c0.574-2.049,1.23-4.017,1.886-5.985,0.082-.41.164-0.9,0.246-1.394a1.1,1.1,0,0,0-.164-0.738,2.989,2.989,0,0,1-.492-2.214,3.2,3.2,0,0,0-.656-2.214,14.963,14.963,0,0,1-1.393-1.8,2.006,2.006,0,0,0-3.362-.411,17.234,17.234,0,0,0-3.69,4.674,30.762,30.762,0,0,1-1.968,2.952,5.387,5.387,0,0,0-.984,1.394c-0.9,1.8-1.8,3.69-2.788,5.494a33.656,33.656,0,0,0-2.3,5.329c-0.655,1.886-1.311,3.69-2.049,5.494-0.328.82-.82,1.64-1.148,2.46-0.492,1.066-.738,2.214-1.23,3.28a130.116,130.116,0,0,0-4.592,12.3,8.247,8.247,0,0,0-.574,4.674,3.634,3.634,0,0,0,1.312,2.377,2.5,2.5,0,0,1,1.148,1.968,4.8,4.8,0,0,0,.328,1.558,1.939,1.939,0,0,0,.984,1.148,1.778,1.778,0,0,0,1.148-.41,0.717,0.717,0,0,1,1.066.246c0.164,0.328.246,0.738,0.41,0.984A0.6,0.6,0,0,0,814.719,402.976Zm4.017-5.9h0Zm2.46-6.805h0Zm0.328-.9v0Zm4.674-11.889h0Zm5.576-13.119h0v0Zm0.328-5.576h0Zm0.328-.984h0Zm14.85,42.227c0.246,0,.41-0.082.656-0.082a10.7,10.7,0,0,0,6.8-4.592v-0.245a2.244,2.244,0,0,0-.984.737,13.429,13.429,0,0,1-5.165,3.363,10.859,10.859,0,0,1,2.378-1.969,30.9,30.9,0,0,0,3.115-2.624,3.958,3.958,0,0,1,1.312-.983,1.547,1.547,0,0,0,.984-0.9,0.5,0.5,0,0,1,0-.656h0v0.656a4.184,4.184,0,0,0,.984-1.64,0.514,0.514,0,0,1,.164-0.656,2.772,2.772,0,0,0,1.066-1.476h0a7.761,7.761,0,0,1,.41-1.476,20.246,20.246,0,0,0,.82-2.378,1.675,1.675,0,0,0-.082-1.64,4.545,4.545,0,0,1-.492-1.8,4.349,4.349,0,0,0-1.394-2.707,4.273,4.273,0,0,1-.984-1.393,2.157,2.157,0,0,0-1.312-1.23c-0.656-.328-1.148-0.164-1.23.574a7.249,7.249,0,0,1-1.23,3.2,26.49,26.49,0,0,1-4.263,5.329,5.2,5.2,0,0,1-1.886,1.312c-0.656.246-1.23,0.492-1.886,0.738a7.045,7.045,0,0,1-2.624.41,0.754,0.754,0,0,1-.82-0.738,4.118,4.118,0,0,1-.164-1.722,22.321,22.321,0,0,1,.82-4.674,1.345,1.345,0,0,0,.164-0.819,3.442,3.442,0,0,1,.492-1.722c0.492-1.23.984-2.378,1.476-3.608a5.715,5.715,0,0,1,1.558-2.3,1.6,1.6,0,0,0,.738-1.148h0a0.424,0.424,0,0,1-.164-0.492,12.3,12.3,0,0,0,1.558-2.624,1.154,1.154,0,0,1,.574-0.492,3.382,3.382,0,0,0,.82-1.066h0.082c-0.41-.328-0.328-0.656.082-0.984,0.164-.082.328-0.163,0.492-0.246h0a3.8,3.8,0,0,1,.983-1.886,3.989,3.989,0,0,0,.9-1.475,2.892,2.892,0,0,1,1.148-1.805,13.3,13.3,0,0,0,1.394-1.639,3.215,3.215,0,0,1,1.722-1.394,3.571,3.571,0,0,0,1.312-.82h0a0.548,0.548,0,0,1,0-.82,11.22,11.22,0,0,1,5.33-3.034,4.155,4.155,0,0,1,1.066-.164,0.434,0.434,0,0,1,.246.164,1.18,1.18,0,0,1-.164.246l-0.984.246a4.7,4.7,0,0,0-2.3,1.148c0.82-.246,1.558-0.492,2.3-0.738a1,1,0,0,1,1.066.082,0.747,0.747,0,0,1-.082.984c-0.328.656-.656,1.23-0.984,1.8-0.41.738-.82,1.476-1.23,2.132a3.05,3.05,0,0,0-.41,1.64c0.082,0.9.082,1.8,0.082,2.624a0.733,0.733,0,0,0,.656.819,2.423,2.423,0,0,1,.738.164,0.272,0.272,0,0,1,0,.411c-0.164.245-.246,0.41,0.164,0.41a4,4,0,0,0,1.394-.083h0.328a1.712,1.712,0,0,1,.328-0.491,33.531,33.531,0,0,0,3.034-5.248,11.125,11.125,0,0,0,.9-2.788,17.021,17.021,0,0,0-1.065-8.117c-0.164-.411-0.411-0.739-0.575-1.148a5.139,5.139,0,0,0-3.115-2.214,13.068,13.068,0,0,0-6.15.41,4.537,4.537,0,0,0-1.8.819,8.8,8.8,0,0,1-1.968.985,11.67,11.67,0,0,0-3.771,2.214c-1.394,1.147-2.87,2.377-4.264,3.607a28.093,28.093,0,0,0-2.706,2.706c-1.722,2.214-3.362,4.51-5,6.806-0.574.819-1.148,1.64-1.64,2.459a21.369,21.369,0,0,1-1.394,2.3,30.313,30.313,0,0,0-1.722,2.706c-0.491,1.148-.983,2.214-1.475,3.28a19.162,19.162,0,0,0-1.558,4.1,17.744,17.744,0,0,0,.574,9.019,42.767,42.767,0,0,0,3.115,7.134,15.3,15.3,0,0,0,4.51,4.919C841.458,399.7,844.328,399.942,847.28,400.024Zm0.738-3.116a0.866,0.866,0,0,1-.41-0.164,0.359,0.359,0,0,1,.082-0.409,7.352,7.352,0,0,1,2.952-1.558c0.164-.082.245,0.082,0.245,0.328a0.3,0.3,0,0,1-.081.245A5.861,5.861,0,0,1,848.018,396.908Zm-1.148-4.755a0.157,0.157,0,0,1-.246-0.082c0-.082,0-0.246.082-0.246a2.145,2.145,0,0,1,1.476-.738h0.164v0.328A2.544,2.544,0,0,1,846.87,392.153Zm-2.05-.574a1.18,1.18,0,0,0-.246-0.164,0.618,0.618,0,0,1,.164-0.328,33.889,33.889,0,0,1,3.444-1.8,5.226,5.226,0,0,1,.574-0.164,0.434,0.434,0,0,1,.246.164c0,0.082,0,.246-0.082.246A8.471,8.471,0,0,1,844.82,391.579Zm8.445,1.722,0.328-.328h0A0.64,0.64,0,0,1,853.265,393.3Zm-11.151-15.989a0.286,0.286,0,0,1-.082-0.164,0.164,0.164,0,0,0,.164-0.082c0,0.082,0,.082.082,0.082Zm0.574-1.476h0Zm15.5,11.069c-0.164,0-.246-0.082-0.164-0.164a0.529,0.529,0,0,1,.492-0.492,0.31,0.31,0,0,1,.164.164A0.739,0.739,0,0,1,858.185,386.905Zm-11.479-15.743a0.64,0.64,0,0,0,.328-0.328h0A1.237,1.237,0,0,1,846.706,371.162Zm0.328-.328h0Zm2.46-4.346h0.082a5.65,5.65,0,0,0,.246-0.656A1.648,1.648,0,0,1,849.494,366.488Zm0.328-.656h0a1.132,1.132,0,0,0,.328-0.246A1.132,1.132,0,0,1,849.822,365.832Zm0.328-.246h0v0Zm-0.574-2.214h0Zm3.115-3.853c-0.082,0-.164-0.082-0.082-0.082a1.879,1.879,0,0,1,.984-1.23c0.082-.082.082,0,0.164,0,0,0.082.082,0.082,0.082,0.164a2.385,2.385,0,0,1-1.066,1.148h-0.082Zm11.808,4.755h0Zm-6.888-8.035,0.328-.328h0l-0.328.328h0Zm0.328-.328h0Zm1.886-1.394a1.25,1.25,0,0,0,.9-0.492h0.082a2.326,2.326,0,0,0-1.066.328v0.082A0.08,0.08,0,0,0,859.825,354.517Zm-3.69-5.166c0.164-.082.41-0.246,0.574-0.327a2.516,2.516,0,0,0,.656-0.328,6.477,6.477,0,0,0,.9-0.328h0.164l0.082-.083c-0.082.083-.164,0.083-0.246,0.164-0.328.082-.574,0.164-0.9,0.247a2.516,2.516,0,0,1-.656.328A2.076,2.076,0,0,1,856.135,349.351Zm5.658,2.05c-0.082,0-.082-0.164-0.082-0.246a0.286,0.286,0,0,1,.082-0.164,3.886,3.886,0,0,1,2.542-.328,0.176,0.176,0,0,1,.164.164,0.207,0.207,0,0,1-.164.328c-0.492.082-.984,0.164-1.312,0.246A3.038,3.038,0,0,1,861.793,351.4Zm-2.46-4.182h0.246a6.728,6.728,0,0,1,4.182-.737c0.164,0,.492,0,0.492.245a0.75,0.75,0,0,1-.574.246,34.966,34.966,0,0,1-4.182.165C859.5,347.219,859.415,347.219,859.333,347.219Zm2.624,0.738a0.08,0.08,0,0,1-.082-0.082c0-.082,0-0.245.082-0.245a2.928,2.928,0,0,1,2.05,0A3.524,3.524,0,0,1,861.957,347.957Zm8.152,55.675a4.493,4.493,0,0,0,1.476-1.312,1.623,1.623,0,0,0,.328-1.476,2.5,2.5,0,0,1-.082-1.558c0.164-2.3,1.066-4.427,1.476-6.641,0.082-.164.164-0.246,0.246-0.41h0a1.714,1.714,0,0,1,.246-1.558,4.351,4.351,0,0,0,.656-1.394,1.162,1.162,0,0,1,1.558-.9c0.164,0,.328.082,0.492,0.082a3.788,3.788,0,0,1-.574-0.574,0.157,0.157,0,0,1-.082-0.246,0.176,0.176,0,0,1,.164-0.164,4.068,4.068,0,0,1,1.066.246c2.869,1.148,5.821,2.3,8.691,3.444,1.394,0.574,2.788,1.066,4.182,1.722,2.214,0.984,4.428,1.886,6.641,2.787a41.8,41.8,0,0,1,6.642,3.28,2.757,2.757,0,0,1,1.476,1.558,2,2,0,0,0,1.23,1.066c0.574,0.164.984,0.082,1.066-.574a1,1,0,0,1,.82-1.148,1.319,1.319,0,0,0,.984-1.066,4.808,4.808,0,0,0-.082-1.886h0c0.41-.245.246-0.738,0.492-1.066a1.782,1.782,0,0,0-.082-2.459,11.351,11.351,0,0,0-2.788-2.46,29.833,29.833,0,0,0-5.166-2.46,4.3,4.3,0,0,1-1.476-.82,8.931,8.931,0,0,0-3.116-1.722,7.589,7.589,0,0,1-1.148-.574c-1.639-.82-3.361-1.722-5.083-2.542a10.951,10.951,0,0,0-1.476-.574c-1.722-.573-3.444-1.476-5.084-2.214-0.82-.409-0.82-0.492-0.656-1.475a1.939,1.939,0,0,0-.738.164c-0.082,0-.164-0.083-0.246-0.083a0.5,0.5,0,0,1,.082-0.328c0.246-.163.574-0.409,0.82-0.573,1.476-.738,2.87-1.476,4.264-2.3a119.165,119.165,0,0,0,12.053-7.134c0.574-.41,1.148-0.82,1.722-1.312l1.722-1.23c0.246-.164.492-0.409,0.656-0.246,0.246,0.328-.164.574-0.328,0.738-0.328.246-.574,0.41-0.9,0.656a6.626,6.626,0,0,0-1.312,1.312,9.4,9.4,0,0,0,4.1-3.69,1.816,1.816,0,0,1-.574.082c-0.328-.245,0-0.492.164-0.655a3.819,3.819,0,0,1,1.64-1.067h0a2.069,2.069,0,0,1,.328-0.574h0c0.164-.328.41-0.656,0.574-0.984v0.083l0.328-.328h0l0.328-.328h0a25.131,25.131,0,0,1,2.542-4.592c0.082-.164.328-0.41,0.082-0.574a0.486,0.486,0,0,0-.574.082c-0.164.164-.328,0.246-0.492,0.41a4.649,4.649,0,0,1,.656-1.066,0.674,0.674,0,0,0,.328-0.492,5.419,5.419,0,0,0,0-2.3,1.055,1.055,0,0,0-.82-0.984c-0.328-.082-0.574-0.082-0.82-0.164h0a2.394,2.394,0,0,0,.164-0.738,0.918,0.918,0,0,0-.984-1.311,2.7,2.7,0,0,0-1.558.491c-0.328.246-.656,0.574-0.984,0.82-2.214,1.886-4.428,3.69-6.806,5.412-1.476,1.066-2.952,2.132-4.345,3.28a14.328,14.328,0,0,1-3.444,2.378,4.384,4.384,0,0,0-.984.738,13.3,13.3,0,0,1-3.362,2.214c-0.9.409-1.722,0.984-2.624,1.393-0.574.328-.984,0-0.984-0.656a1.4,1.4,0,0,1,.082-0.574,18.327,18.327,0,0,0,.82-3.034c0.492-2.3,1.066-4.591,1.558-6.969a1.948,1.948,0,0,0-.246-1.886,1.7,1.7,0,0,1-.082-0.9c-0.082-.574-0.082-1.066-0.164-1.558a3.545,3.545,0,0,0-1.066-2.214,2.588,2.588,0,0,1-.656-0.984,1.741,1.741,0,0,0-3.034-.246,23.943,23.943,0,0,0-1.721,2.3,48.276,48.276,0,0,0-3.854,6.969c-0.82,1.8-1.64,3.526-2.46,5.412-0.738,1.8-1.476,3.608-2.05,5.493-0.656,2.3-1.64,4.592-2.46,6.888a2.227,2.227,0,0,1-1.558,1.394,1.366,1.366,0,0,0-.9,1.64,2.574,2.574,0,0,0,.492,1.312,0.752,0.752,0,0,1,.164.819,32.937,32.937,0,0,1-.82,4.1,81.543,81.543,0,0,0-2.05,8.856,13.918,13.918,0,0,0-.082,3.2,4.7,4.7,0,0,0,.656,2.377,18.193,18.193,0,0,1,1.64,3.362,2.585,2.585,0,0,0,1.722,1.722,3.583,3.583,0,0,1,1.476.738A1.5,1.5,0,0,0,870.109,403.632Zm25.254-7.626a9.862,9.862,0,0,0-1.229-.737c-1.722-.738-3.526-1.558-5.33-2.214-2.46-1.066-5-1.968-7.462-3.034-1.558-.574-3.116-1.148-4.673-1.558a36.791,36.791,0,0,0,5.821,2.542c3.772,1.312,7.462,2.87,11.07,4.509A6.439,6.439,0,0,0,895.363,396.006Zm9.266,2.542-0.738-.246a121.4,121.4,0,0,0-14.759-6.97c-3.69-1.557-7.38-3.033-11.151-4.345a13.672,13.672,0,0,1-1.64-.656,0.516,0.516,0,0,1-.246-0.656,0.47,0.47,0,0,1,.574-0.164,9.946,9.946,0,0,1,1.148.41c3.2,1.23,6.477,2.542,9.675,3.854,3.772,1.557,7.461,3.2,11.151,4.756a50.583,50.583,0,0,1,5.166,2.623,3.878,3.878,0,0,1,.984.738,0.329,0.329,0,0,1,.164.328A0.3,0.3,0,0,1,904.629,398.548Zm-7.544-1.8a4.155,4.155,0,0,0-1.722-.738h0A4.256,4.256,0,0,0,897.085,396.744Zm3.2,1.395h0.082a4.68,4.68,0,0,1-.984-0.328A6.35,6.35,0,0,0,900.283,398.139Zm0.656,0.327c-0.164-.082-0.41-0.246-0.574-0.327A1.33,1.33,0,0,0,900.939,398.466Zm0.082,0.082-0.082-.082Zm5.576-3.2a3.169,3.169,0,0,1-1.722-.655,249.955,249.955,0,0,0-23.861-10.824c-1.066-.41-2.132-0.82-3.116-1.23a1.225,1.225,0,0,1-.164-0.246,0.277,0.277,0,0,1,.247-0.164l0.983,0.246c2.788,1.148,5.494,2.214,8.282,3.362s5.494,2.378,8.282,3.608c2.951,1.312,5.9,2.706,8.773,4.264A5.664,5.664,0,0,1,906.6,395.35Zm0.41-.573a5.518,5.518,0,0,1-.984-0.493c-3.034-1.8-6.314-3.361-9.512-4.919-5.165-2.378-10.413-4.674-15.743-6.724-0.574-.246-1.148-0.574-1.722-0.82v-0.246a0.164,0.164,0,0,1,.082-0.164,2.669,2.669,0,0,1,1.148.328c1.558,0.574,3.034,1.149,4.51,1.8,5.822,2.46,11.725,4.838,17.3,7.708,1.312,0.656,2.624,1.394,3.854,2.132a3.283,3.283,0,0,1,1.312,1.066,0.154,0.154,0,0,1,0,.246C907.253,394.777,907.089,394.777,907.007,394.777Zm-23.861-16.235h0.082a2.031,2.031,0,0,1,.574-0.328A2.426,2.426,0,0,0,883.146,378.542Zm-1.8-5.9c-0.328-.082.082-0.41,0.82-0.738a6.868,6.868,0,0,1,2.87-1.476,2.091,2.091,0,0,1,.984-0.656,2.055,2.055,0,0,0,.574-0.328,2.055,2.055,0,0,1-.574.328,1.632,1.632,0,0,1-.984.656,7.07,7.07,0,0,1-2.706,1.64A1.75,1.75,0,0,1,881.342,372.638Zm0.41-1.558c-0.082.082-.164,0-0.164-0.164v-0.082a2.174,2.174,0,0,1,.492-0.41c2.05-1.312,4.264-2.378,6.314-3.69a0.614,0.614,0,0,1,.41-0.082,0.08,0.08,0,0,1,.082.082,0.164,0.164,0,0,1-.082.164,1.237,1.237,0,0,1-.328.328c-2.05,1.23-4.182,2.46-6.232,3.69A1.165,1.165,0,0,1,881.752,371.08Zm-1.886,6.887a0.626,0.626,0,0,1-.41-0.163,0.392,0.392,0,0,1,.082-0.41,7.211,7.211,0,0,1,.82-0.492c3.2-1.8,6.478-3.526,9.676-5.33,2.05-1.066,4.018-2.378,5.985-3.608a7.047,7.047,0,0,1,2.46-.984c-0.82.574-1.558,1.23-2.378,1.8-3.771,2.46-7.625,4.756-11.643,6.887-1.148.575-2.214,1.149-3.28,1.805A6.214,6.214,0,0,1,879.866,377.967Zm3.936,0.247a6.238,6.238,0,0,0,1.722-.656c3.772-1.722,7.3-3.936,10.9-5.9,1.148-.656,2.214-1.394,3.28-2.132a2.743,2.743,0,0,0,1.23-1.312c-1.394.9-2.788,1.8-4.182,2.624-2.951,1.722-5.821,3.608-8.937,5.084A19.565,19.565,0,0,0,883.8,378.214Zm3.772-9.348a2.055,2.055,0,0,1,.574-0.328,1.237,1.237,0,0,0,.328-0.328h0a0.64,0.64,0,0,1-.328.328C887.984,368.62,887.738,368.784,887.574,368.866Zm-3.116-14.349h0Zm13.693,6.56a2.338,2.338,0,0,1,.9-0.657A1.847,1.847,0,0,1,898.151,361.077Zm7.052,3.2a1.609,1.609,0,0,0,.738-0.738C905.7,363.783,905.449,364.028,905.2,364.274Zm0.738-.738h0a1.222,1.222,0,0,0,.328-0.328A1.222,1.222,0,0,1,905.941,363.536Zm0.328-.328h0v0Zm-5-4.673a1.237,1.237,0,0,0,.328-0.328,1.45,1.45,0,0,0,.574-0.574,1.237,1.237,0,0,0,.328-0.328h0c-0.082.082-.164,0.246-0.246,0.328a0.64,0.64,0,0,0-.328.328,1.237,1.237,0,0,0-.328.328C901.513,358.371,901.349,358.453,901.267,358.535Zm5.33,3.771h0Zm0.246,0h0.082c0.082-.081.164-0.245,0.246-0.328A1.209,1.209,0,0,1,906.843,362.306Zm0.328-.328a1.445,1.445,0,0,0,.656-1.229l-0.328.328h0l-0.328.328v0.573Zm1.23-3.853c-0.082.082-.164,0.082-0.246-0.082a0.344,0.344,0,0,1,.246-0.328c0.082-.082.164-0.082,0.246,0.082A0.344,0.344,0,0,1,908.4,358.125Z" transform="translate(-429.094 -340.313)"/>
</svg>
