<svg id="title" xmlns="http://www.w3.org/2000/svg" width="555.47" height="69.469" viewBox="0 0 555.47 69.469">
  <defs>
    <style>
      .cls-1 {
        fill: #f1d430;
      }

      .cls-1, .cls-2 {
        fill-rule: evenodd;
      }

      .cls-2 {
        fill: #fff;
      }
    </style>
  </defs>
  <path id="Lets" class="cls-1" d="M1021.01,405.518a34.672,34.672,0,0,0,6.23-2.05c3.04-1.066,6.24-1.886,9.35-2.87,1.97-.656,3.86-1.148,5.82-1.721a2.991,2.991,0,0,0,2.14-1.805,0.525,0.525,0,0,0,0-.491,0.748,0.748,0,0,0-.41-0.083c-0.41.083-.91,0.574-1.15,0.165-0.41-.493.24-0.738,0.41-1.149,0-.081.08-0.081,0.08-0.164a0.727,0.727,0,0,0-.25-1.066,5.289,5.289,0,0,0-.82-0.655,22.008,22.008,0,0,1-2.21-1.476,5,5,0,0,0-2.3-.9,10.586,10.586,0,0,0-2.29.081c-2.38.328-4.68,0.575-6.97,1.067a3.386,3.386,0,0,1-.9.082,0.789,0.789,0,0,1-.82-0.9,4.062,4.062,0,0,1,.32-0.9c0.25-.738.58-1.394,0.91-2.132a4.631,4.631,0,0,0,.57-2.05,25.558,25.558,0,0,0-2.13,4.264,3.511,3.511,0,0,1-.74,1.558c-0.08,0-.25.082-0.33,0.082-0.16-.082-0.24-0.246-0.16-0.328a9.974,9.974,0,0,1,.9-2.788,99.355,99.355,0,0,0,3.94-9.183,9.071,9.071,0,0,1,.65-1.23,7.766,7.766,0,0,0,.9-2.3,0.569,0.569,0,0,1,.09-0.41c1.06-2.3,1.8-4.674,2.95-6.888a4.7,4.7,0,0,0,.65-1.066,0.907,0.907,0,0,1,.41-0.164,0.33,0.33,0,0,1,.17.492c-0.17.41-.41,0.738-0.58,1.148a21.055,21.055,0,0,0-1.72,4.92,4.452,4.452,0,0,0,.49-0.9c0.99-2.214,1.97-4.428,2.87-6.56a28.56,28.56,0,0,0,1.07-2.787,6.3,6.3,0,0,0-1.31,1.721,1.092,1.092,0,0,1-.41.246,0.4,0.4,0,0,1-.08-0.574,16.848,16.848,0,0,1,2.21-3.689,7.7,7.7,0,0,0,1.07-1.722c0-.164.08-0.328-0.17-0.41-0.08,0-.16.163-0.24,0.163-0.09.083-.25,0.247-0.41,0.083a0.632,0.632,0,0,1,.08-0.411c0.41-.655.82-1.393,1.23-1.967a2.247,2.247,0,0,0,.65-1.722,2.121,2.121,0,0,1,.17-1.23,36.236,36.236,0,0,1,1.23-4.018,9.7,9.7,0,0,0,.49-1.8c0.08-.411.08-0.411-0.49-0.411-0.41-.082-0.58-0.164-0.49-0.574a1.423,1.423,0,0,1,.08-0.573,3.112,3.112,0,0,0-1.15-3.608,8.33,8.33,0,0,1-1.15-1.23c-1.47-1.805-3.03-1.886-4.51-.492a2.2,2.2,0,0,0-.41.41,17.161,17.161,0,0,0-1.97,2.951,5.423,5.423,0,0,1-1.55,1.969,7.767,7.767,0,0,0-1.4,1.475c-0.57.984-1.23,1.968-1.8,3.034-0.9,1.558-1.89,3.034-2.63,4.592-1.14,2.46-1.88,5.083-3.19,7.461a2.679,2.679,0,0,0-.41,1.148,8.528,8.528,0,0,1-1.07,2.3,12.973,12.973,0,0,0-1.15,2.378c-0.74,1.476-.98,3.2-1.88,4.51-0.58,1.886-1.4,3.607-2.14,5.412-0.49,1.23-.98,2.377-1.55,3.525a18.952,18.952,0,0,0-1.89,4.428,6.324,6.324,0,0,1-.49,1.312c-0.08.328-.25,0.656-0.33,1.066-0.41,1.557-.74,3.116-1.06,4.674a15.325,15.325,0,0,0-.41,1.967,4.789,4.789,0,0,0,1.23,3.444c0.73,0.164,1.14,1.066,2.05.984,0.24-.082.32,0.164,0.32,0.41a1.912,1.912,0,0,0,.82,1.886,3.238,3.238,0,0,0,1.72,1.23,5.949,5.949,0,0,1,2.05.656A4.784,4.784,0,0,0,1021.01,405.518Zm-5.66-11.562c-0.08,0-.08,0-0.08-0.081-0.08-.246.17-0.656,0.33-0.574,0.08,0,.08.082,0.08,0.164C1015.76,393.711,1015.52,394.039,1015.35,393.956Zm0.91-2.459a3.153,3.153,0,0,1,.82-1.8,3.485,3.485,0,0,1-.82,1.722V391.5Zm3.44-8.364v-0.082a3.56,3.56,0,0,1,.33-0.574v0c-0.08.164-.25,0.411-0.33,0.574v0.082Zm1.56-3.608c-0.17,0-.08-0.164-0.08-0.328a1.43,1.43,0,0,1,.73-1.065,5.421,5.421,0,0,1,.33-0.984,5.97,5.97,0,0,1,.25-1.23c0-.247.33-0.492,0.41-0.328a1.063,1.063,0,0,1-.08.492c-0.17.327-.41,0.656-0.66,1.066-0.08.246-.16,0.574-0.25,0.9-0.16.492-.24,0.9-0.41,1.311A0.269,0.269,0,0,1,1021.26,379.525Zm7.46,6.97a3.921,3.921,0,0,0,1.39-2.378,26.716,26.716,0,0,1,1.64-3.69,7.775,7.775,0,0,0,.74-2.705A34.575,34.575,0,0,0,1028.72,386.5Zm3.77-8.773a8.561,8.561,0,0,0,1.23-3.116A4.086,4.086,0,0,0,1032.49,377.722Zm5.66-13.365v0h0Zm3.12-14.022v0Zm31.41,50.263a2.589,2.589,0,0,0,1.56-.328,0.722,0.722,0,0,0,.16-1.312,0.811,0.811,0,0,1-.33-1.066,1.48,1.48,0,0,0-.49-2.05,5.735,5.735,0,0,0-.82-0.655,2.7,2.7,0,0,1-.9-1.066,3.456,3.456,0,0,0-2.13-1.722,11.757,11.757,0,0,0-1.81-.574c-2.7-.493-5.41-0.9-8.11-1.148-1.15-.164-2.22-0.328-3.28-0.492a0.673,0.673,0,0,1-.58-0.9,9.035,9.035,0,0,0,.41-1.476h-0.33c0.17-.164.25-0.082,0.33,0a7.225,7.225,0,0,0,.9-2.542h-0.24c0.16-.164.24-0.41,0.41-0.574a8.776,8.776,0,0,0,1.39-2.378,0.4,0.4,0,0,0-.24-0.492V381.9a2.5,2.5,0,0,1,.32-0.82,0.358,0.358,0,0,1,.58-0.164h0a3.645,3.645,0,0,1,1.31-.492,10.869,10.869,0,0,1,2.3.082,8.987,8.987,0,0,0,2.95-.163,54.085,54.085,0,0,1,7.21-.821c0.33-.081.66-0.081,0.9-0.164a1.358,1.358,0,0,0,.82-0.573,0.518,0.518,0,0,0-.24-0.821c-0.33-.081-0.66-0.163-0.9-0.245a0.177,0.177,0,0,1-.17-0.164,0.4,0.4,0,0,1,.08-0.328c0.17-.082.33-0.164,0.5-0.246,0.9-.575.98-0.984,0.24-1.722-0.33-.246-0.65-0.41-0.9-0.574-0.33-.246-0.57-0.41-0.9-0.656a0.626,0.626,0,0,1-.17-0.738c0.41-.574.09-0.9-0.32-1.312a3.057,3.057,0,0,0-1.64-.738,19.837,19.837,0,0,0-3.12-.082,5.3,5.3,0,0,1-1.97,0,0.8,0.8,0,0,1-.57-0.9,16.675,16.675,0,0,1,1.07-2.87,30.457,30.457,0,0,0,2.46-5.165,4.332,4.332,0,0,1,1.96-2.543v0.082c0-.327,0-0.573.33-0.655a7.656,7.656,0,0,1,1.31-.328l4.68-.738a41.608,41.608,0,0,1,5.57-.246,6.569,6.569,0,0,1,3.04.656,2.559,2.559,0,0,0,1.14.246,0.49,0.49,0,0,0,.58-0.574,1.164,1.164,0,0,1,.33-1.148,1.5,1.5,0,0,0,.08-1.968,1.787,1.787,0,0,0-.25-0.41,2.6,2.6,0,0,1-.57-1.886,2.626,2.626,0,0,0-.49-1.312,5.45,5.45,0,0,0-1.4-.984,7.374,7.374,0,0,0-3.52-.492c-0.74.082-1.56,0.082-2.3,0.164-2.38.164-4.84,0.328-7.13,0.574a36.821,36.821,0,0,0-4.18.738,16.382,16.382,0,0,0-3.86,1.312,2.666,2.666,0,0,0-1.47,1.23,1.01,1.01,0,0,0-.09,1.066,0.9,0.9,0,0,0,.91,0c0.16,0,.24-0.082.41-0.082s0.32,0,.32.246c0.09,0-.08.164-0.16,0.164a1,1,0,0,0-.74.492c0,0.738-.74,1.148-0.98,1.886a8.888,8.888,0,0,1-.9,1.64c-1.73,2.214-3.45,4.509-5.01,6.887-2.05,3.116-4.34,5.986-5.9,9.348a0.432,0.432,0,0,0-.16.246,54.525,54.525,0,0,0-4.6,9.019,5.157,5.157,0,0,1-.9,1.64,4.2,4.2,0,0,0-.74,3.116,7.729,7.729,0,0,0,.91,2.952,8.874,8.874,0,0,1,1.31,2.787c0.16,0.411.41,0.9,0.57,1.313a2.156,2.156,0,0,0,.82.9,11.672,11.672,0,0,0,7.63,2.624h2.79c2.87-.082,5.74.082,8.61,0.246C1068.42,400.516,1070.55,400.516,1072.68,400.6Zm-13.2-19.679h0Zm4.34-2.3a0.3,0.3,0,0,1-.16-0.163,0.415,0.415,0,0,1,.25-0.165c0.82-.163,1.72-0.245,2.54-0.328,1.15-.163,2.21-0.245,3.28-0.409a0.167,0.167,0,0,0,.08.164,0.413,0.413,0,0,1-.25.164q-2.7.369-5.41,0.737h-0.33Zm3.94-16.562a0.206,0.206,0,0,1-.16-0.246c0.08-.082.08-0.165,0.16-0.246s0.16,0,.25.081A0.464,0.464,0,0,1,1067.76,362.061Zm2.62-2.3v-0.082a6.282,6.282,0,0,0,1.23-.081,4.373,4.373,0,0,0,.99-0.246v-0.164A22.355,22.355,0,0,0,1070.38,359.764Zm0.99-1.8a1.249,1.249,0,0,1-.5-0.082,0.08,0.08,0,0,1-.08-0.082v-0.328c0.25-.082.49-0.246,0.74-0.329a53.4,53.4,0,0,1,6.31-.9c1.07-.082,2.14-0.164,3.2-0.164a8.124,8.124,0,0,1,2.46.164,0.46,0.46,0,0,1,.17.246,0.285,0.285,0,0,1-.17.246,4.837,4.837,0,0,1-1.06.164,64.107,64.107,0,0,0-10.5,1.066h-0.57Zm-0.58-3.362a0.288,0.288,0,0,1-.08-0.164,0.115,0.115,0,0,1,0-.164,1.365,1.365,0,0,1,.41-0.164,76.184,76.184,0,0,1,8.69-.984c0.66,0,1.4.082,2.13,0.082a0.306,0.306,0,0,1-.08.246c-1.06.082-2.13,0.246-3.2,0.328-2.46.164-4.83,0.574-7.21,0.82A1.786,1.786,0,0,1,1070.79,354.6Zm0-.738a2.312,2.312,0,0,1-.74-0.082,0.27,0.27,0,0,1-.24-0.164,0.277,0.277,0,0,1,.16-0.246,3.807,3.807,0,0,1,.9-0.246c1.15-.164,2.38-0.41,3.53-0.492a36.429,36.429,0,0,1,6.07-.492c0.65,0.164,1.64-.246,2.46.328a5.452,5.452,0,0,1-2.54.328A95.456,95.456,0,0,0,1070.79,353.861Zm11.56,4.51h0.41a0.083,0.083,0,0,0,.09-0.082c0-.246.08,0-0.09,0a0.519,0.519,0,0,0-.49,0C1082.11,358.289,1082.19,358.371,1082.35,358.371Zm11.93,45.671a3.29,3.29,0,0,0,1.23-.246l2.7-1.23a5.247,5.247,0,0,0,.66-1.722c0.16-1.311.82-2.46,0.74-3.772a1.9,1.9,0,0,1,.08-0.328,18.847,18.847,0,0,0,1.23-4.345,2.135,2.135,0,0,0,.16-0.41,9.48,9.48,0,0,0,.99-2.3,21.328,21.328,0,0,1,1.06-3.2c1.15-2.378,1.73-4.92,2.87-7.215a1.436,1.436,0,0,0,.17-0.82c0.24-1.23,1.06-2.214,1.23-3.444a1.01,1.01,0,0,1,.33-0.574,3.28,3.28,0,0,0,.81-1.968,4.273,4.273,0,0,1,.58-1.394,30.885,30.885,0,0,0,2.38-5.248,6.759,6.759,0,0,1,.57-1.147,37.467,37.467,0,0,0,1.72-4.265,1.285,1.285,0,0,0-.08-1.229,1.549,1.549,0,0,1-.25-1.312c0.09-1.886.58-2.378,2.46-2.46h4.1a18.247,18.247,0,0,1,5.91.984,1.9,1.9,0,0,0,.65.164,2.94,2.94,0,0,0,2.05-.246,0.391,0.391,0,0,0,.09-0.656,2.1,2.1,0,0,0-.41-0.246c-0.25-.164-0.41-0.328-0.17-0.656,0.17-.164.33-0.328,0.41-0.41a1.777,1.777,0,0,0,.49-2.05c-0.24-.656-0.57-1.312-0.82-1.968a5.465,5.465,0,0,1-.65-1.8,3.467,3.467,0,0,0-1.64-2.787,7.826,7.826,0,0,0-5-1.476,7.914,7.914,0,0,1-2.79-.41,3.6,3.6,0,0,0-1.31-.164,22.361,22.361,0,0,0-4.68.164,8.889,8.889,0,0,1-2.95-.083,1.592,1.592,0,0,0-1.06-.081,13,13,0,0,0-4.35.656,8.933,8.933,0,0,1-2.13.246c-1.48.082-2.87,0.245-4.35,0.245a38.079,38.079,0,0,0-7.46,1.722,4.844,4.844,0,0,0-2.79,2.3,1.205,1.205,0,0,0-.33.82c0.25,0.492.66,0.246,0.99,0.246a0.512,0.512,0,0,1,.33.082,0.306,0.306,0,0,1,.16.164,0.288,0.288,0,0,1-.08.164,2.925,2.925,0,0,0-.74.328,0.326,0.326,0,0,0-.16.492,0.6,0.6,0,0,1-.17.9,1.27,1.27,0,0,0-.33,1.558,1.444,1.444,0,0,0,1.4.9,17.8,17.8,0,0,0,2.95-.164c3.28-.41,6.64-0.9,10-1.312a16.565,16.565,0,0,1,2.05-.082,0.26,0.26,0,0,1,.25.246,0.635,0.635,0,0,1-.16.41,5.339,5.339,0,0,1-1.07.328c-0.74.082-1.48,0.164-2.13,0.246-3.77.41-7.46,0.9-11.15,1.394a1.216,1.216,0,0,0-.58.164,0.205,0.205,0,0,0-.16.246,0.306,0.306,0,0,0,.08.246,2.752,2.752,0,0,0,1.97.328c1.23-.082,2.46-0.246,3.69-0.328,2.21-.246,4.43-0.574,6.64-0.82a4,4,0,0,1,.98-0.082,0.63,0.63,0,0,1,.17.246,0.41,0.41,0,0,1-.17.246c-0.16,0-.32.082-0.49,0.082-1.47.246-2.95,0.41-4.43,0.656-1.88.164-3.69,0.41-5.57,0.656a0.384,0.384,0,0,0,.41.164c0.9-.082,1.88-0.082,2.79-0.164,1.96-.164,3.93-0.41,5.9-0.574a4.374,4.374,0,0,1,1.07-.082,0.551,0.551,0,0,1,.32.656c-0.08.246-.16,0.41-0.24,0.656-1.07,2.378-2.3,4.674-3.2,7.134-0.33.9-.66,1.885-1.07,2.787-1.14,2.788-2.37,5.494-3.28,8.364a21.554,21.554,0,0,1-.65,2.131,80.083,80.083,0,0,0-2.71,8.938,44.441,44.441,0,0,0-.98,4.838,6.778,6.778,0,0,0,.41,3.854,12.833,12.833,0,0,1,1.06,3.853,4.768,4.768,0,0,0,.58,1.8,1.22,1.22,0,0,0,1.56.738h0.57a0.406,0.406,0,0,1,.33.574c0,0.082-.08.164-0.08,0.246A0.6,0.6,0,0,0,1094.28,404.042Zm2.79,0.164a0.289,0.289,0,0,0,.24-0.082,1.589,1.589,0,0,0,.9-1.558h0c-0.41.41-.73,0.82-1.14,1.312C1096.98,403.96,1096.82,404.124,1097.07,404.206Zm3.19-14.021v-0.164a0.1,0.1,0,0,1,.17.082c0,0.082,0,.082-0.08.082C1100.35,390.267,1100.26,390.185,1100.26,390.185Zm-6.31-39.768a0.92,0.92,0,0,1-.98-0.164c0.57-.082,1.06-0.246,1.55-0.328,2.46-.492,4.92-0.82,7.38-1.066a12.344,12.344,0,0,1,1.73-.163,7.127,7.127,0,0,1,2.29-.083,0.287,0.287,0,0,1,.25.164,0.415,0.415,0,0,1-.17.247,5.283,5.283,0,0,1-1.64.327C1100.84,349.515,1097.39,350.007,1093.95,350.417Zm-2.13-.9a0.866,0.866,0,0,1-.41-0.164c-0.08-.246.24-0.327,0.41-0.327a9.848,9.848,0,0,1,1.47-.411,100.9,100.9,0,0,1,10.99-1.394c0.74,0,1.56-.164,2.3-0.164,0.24,0,.41.083,0.57,0.083a0.323,0.323,0,0,1,.17.081,0.37,0.37,0,0,1-.09.328,1.165,1.165,0,0,1-.57.246c-0.57.082-1.23,0.164-1.8,0.246-4.19.329-8.29,0.738-12.39,1.394C1092.23,349.433,1092.06,349.515,1091.82,349.515Zm25.91,5.576c-0.74-.082-1.4-0.164-2.13-0.246V354.6c1.06,0,2.13,0,3.19-.082a0.274,0.274,0,0,1,.25.164,0.49,0.49,0,0,1-.25.328C1118.38,355.009,1118.06,355.091,1117.73,355.091Zm2.7-1.8c-0.65,0-1.39-.082-2.13-0.082v-0.082h-3.28a0.782,0.782,0,0,1-.82-0.328,0.717,0.717,0,0,1,.74-0.656,28.423,28.423,0,0,1,5.9.246,7,7,0,0,1,1.4.246c0.16,0.082.33,0.164,0.24,0.328a0.349,0.349,0,0,1-.32.328h-1.73Zm-6.56-4.591a2.153,2.153,0,0,1-.57-0.165,0.414,0.414,0,0,1,.08-0.246,0.993,0.993,0,0,1,.82-0.246,15.916,15.916,0,0,1,5.17.574C1117.56,348.7,1115.68,348.7,1113.87,348.7Zm6.97-.985a60.357,60.357,0,0,0-7.7-.164c-0.41-.081-0.82-0.081-1.23-0.164a0.361,0.361,0,0,1-.25-0.245,0.218,0.218,0,0,1,.25-0.247,5.53,5.53,0,0,1,1.14-.164,33.788,33.788,0,0,1,5.74.164c0.82,0.082,1.73.164,2.63,0.247a2.441,2.441,0,0,1,.74.164,0.277,0.277,0,0,1,.16.245l-0.16.164h-1.32Zm7.55,9.594,0.08-.082-0.08-.083v0.165Zm1.71,47.475a9.119,9.119,0,0,0,2.13-.082,3.627,3.627,0,0,1,2.29.082,1.672,1.672,0,0,0,.9,0,12.552,12.552,0,0,1,1.73-.246,4.823,4.823,0,0,0,2.05-.738,12.012,12.012,0,0,1,2.87-1.558,29.15,29.15,0,0,0,8.61-5.657,19.09,19.09,0,0,1,1.96-1.641,2.589,2.589,0,0,0,1.07-1.229h0a1.818,1.818,0,0,1,.33-1.722,12.042,12.042,0,0,0,1.47-6.068,45.091,45.091,0,0,0-.49-4.756,20.858,20.858,0,0,0-1.72-6.641c-0.74-1.8-1.56-3.608-2.46-5.33a16.078,16.078,0,0,0-5.74-6.641c-1.07-.82-2.21-1.476-3.36-2.214-0.25-.164-0.41-0.328-0.66-0.492a0.425,0.425,0,0,1,0-.738,4.72,4.72,0,0,1,1.07-.656,34.743,34.743,0,0,1,7.3-2.952c1.06-.328,2.13-0.492,3.19-0.738a0.692,0.692,0,0,1,.91.82,7.558,7.558,0,0,0,.49,2.3V357.8a1.307,1.307,0,0,1,0,1.23,2.871,2.871,0,0,0-.25,1.64,0.964,0.964,0,0,0,1.23.9,1.367,1.367,0,0,1,.58,0c0.16,0,.32.164,0.24,0.246a2.943,2.943,0,0,1-.33.574,0.58,0.58,0,0,0,.58.9,5.882,5.882,0,0,0,1.97-.492,5.023,5.023,0,0,1,1.55-.574,14.049,14.049,0,0,1-1.96,1.558,4.723,4.723,0,0,0,2.54-1.312c0.57-.574,1.06-1.23,1.64-1.8a0.779,0.779,0,0,1,.41-0.9,6.651,6.651,0,0,0,1.15-.983h0a8.934,8.934,0,0,0,1.64-2.952,1.437,1.437,0,0,0,0-1.394,4.388,4.388,0,0,1-.17-1.476,8.587,8.587,0,0,0-.9-4.51,14.756,14.756,0,0,1-.98-2.46,7.308,7.308,0,0,0-3.12-3.853,2.746,2.746,0,0,0-.98-0.41,16.363,16.363,0,0,0-4.02-.246c-0.99.082-2.05,0.082-3.12,0.082a13.757,13.757,0,0,0-4.43.574,16.313,16.313,0,0,1-2.87.82c-0.98.246-1.96-.164-2.95,0.246a26.6,26.6,0,0,1-2.7,1.066,8.029,8.029,0,0,0-2.63,1.065,10.854,10.854,0,0,1-2.78,1.312,7.044,7.044,0,0,0-2.96,1.886,12.043,12.043,0,0,0-1.72,1.8,6.091,6.091,0,0,0-1.06,1.886,8.688,8.688,0,0,0-.25,4.346,45.324,45.324,0,0,1,.57,4.755,14.837,14.837,0,0,0,.33,1.722,2.9,2.9,0,0,0,.66,1.558,26.409,26.409,0,0,0,1.97,2.624,8.718,8.718,0,0,0,2.46,2.132,29.084,29.084,0,0,0,5.32,2.542,15.022,15.022,0,0,1,2.71.984,39.22,39.22,0,0,1,3.69,1.886c1.56,0.9,1.8,1.639,1.31,3.362a13.065,13.065,0,0,1-1.72,3.771c-0.66.9-1.31,1.8-1.97,2.706a6.178,6.178,0,0,1-1.64,1.64,3.245,3.245,0,0,0-.82.656,13.213,13.213,0,0,1-4.1,2.542,65.14,65.14,0,0,1-7.62,2.706,6.267,6.267,0,0,1-2.13.164,0.935,0.935,0,0,1-.99-0.574,1.018,1.018,0,0,1,.33-1.148,11.827,11.827,0,0,0,2.38-2.87v0.082c-0.33.082-.58,0.164-0.9,0.246a1.911,1.911,0,0,1-.99,1.23v0.082a2.265,2.265,0,0,1,.99-1.312,3.126,3.126,0,0,1,.9-1.394c0.65-.574,1.23-1.066,1.88-1.64s1.4-1.066,2.05-1.64c0.17-.082.41-0.246,0.17-0.491a9.215,9.215,0,0,0-2.05.983l-2.46,1.722c-0.33.164-.66,0.246-0.66,0a0.692,0.692,0,0,1,.25-0.492c0.49-.41.9-0.82,1.39-1.23,0.58-.41,1.23-0.82,1.81-1.23a3.577,3.577,0,0,0,.9-0.574,1.278,1.278,0,0,0,.16-1.721,0.89,0.89,0,0,0-1.23-.082c-0.57.245-1.15,0.491-1.72,0.738-0.49.245-1.07,0.491-1.56,0.737-0.16.082-.33,0.246-0.49-0.081,0.49-.656,1.31-0.821,1.89-1.394a17.55,17.55,0,0,0-1.89.738,3.468,3.468,0,0,1-1.56.491v0.082a7.287,7.287,0,0,1,2.79-1.967c0.57-.247,1.15-0.492,1.72-0.738a0.4,0.4,0,0,0,0-.738,1.721,1.721,0,0,0-1.47-.41,9.251,9.251,0,0,0-3.86,1.229,7.136,7.136,0,0,1-1.31.821,13.439,13.439,0,0,0-2.95,2.787q-1.11,1.476-2.22,3.2a9.934,9.934,0,0,0-1.06,8.2,38.353,38.353,0,0,0,1.39,3.936,7.841,7.841,0,0,0,3.04,3.854A16.288,16.288,0,0,0,1130.1,404.78Zm-6.4-21.155c0.16-.082.25-0.164,0.41-0.246a1.108,1.108,0,0,1-.33.164A0.08,0.08,0,0,1,1123.7,383.625Zm4.43,4.182a1.112,1.112,0,0,1,.33-0.328c-0.09.082-.25,0.164-0.33,0.246v0.082Zm14.02,15.333a5.688,5.688,0,0,0,2.87-.983A3.726,3.726,0,0,0,1142.15,403.14Zm-13.69-15.661,0.32-.328a0.633,0.633,0,0,0-.32.328h0Zm0.32-.328c0.09-.082.17-0.164,0.33-0.328h-0.08C1128.95,386.905,1128.87,387.069,1128.78,387.151Zm9.19,14.513c-0.09-.082-0.25-0.164-0.33-0.246a0.755,0.755,0,0,1,.08-0.41,1.711,1.711,0,0,1,.82-0.492c2.13-.9,4.18-1.968,6.31-2.952a1.548,1.548,0,0,1,.58-0.164c0.08,0,.24,0,0.24.082a0.234,0.234,0,0,1,0,.329c-0.16.164-.32,0.409-0.49,0.573a14.305,14.305,0,0,1-3.69,2.214c-0.98.328-1.88,0.656-2.87,0.984C1138.46,401.582,1138.21,401.664,1137.97,401.664Zm-8.94-14.841a1.44,1.44,0,0,0,.41-0.328h-0.08A1.28,1.28,0,0,1,1129.03,386.823Zm4.1,9.019a1.043,1.043,0,0,1-.49-0.081,0.185,0.185,0,0,1-.17-0.164v-0.164a2.9,2.9,0,0,1,.66-0.41,53.244,53.244,0,0,0,7.05-2.87,2.685,2.685,0,0,1,1.39-.328v-0.082l-0.08.082a3.3,3.3,0,0,1-1.23,1.148A22.418,22.418,0,0,1,1133.13,395.842Zm3.03,0.493-0.08-.082c-0.08-.083,0-0.083,0-0.164l0.08-.083c1.72-.819,3.36-1.639,5.09-2.377,0.08-.082.32-0.082,0.32,0.082a0.433,0.433,0,0,1-.16.41,11.584,11.584,0,0,1-3.61,1.8A5.3,5.3,0,0,1,1136.16,396.335Zm8.94,5.657a5.319,5.319,0,0,0,2.71-1.722A7.247,7.247,0,0,0,1145.1,401.992Zm-14.18-16.727h0Zm-2.46-5a2.454,2.454,0,0,0,.65-0.328,4.818,4.818,0,0,1-.65.328h0Zm0.57-.328a5.871,5.871,0,0,0,.66-0.247h0A5.871,5.871,0,0,1,1129.03,379.936Zm0.66-.247a0.292,0.292,0,0,1,.24-0.081A0.292,0.292,0,0,0,1129.69,379.689Zm18.2,20.5a7.3,7.3,0,0,0,4.59-4.346c-0.25.247-.57,0.493-0.82,0.739a27.588,27.588,0,0,1-3.2,3.033A1.926,1.926,0,0,0,1147.89,400.188Zm-4.02-9.429a0.306,0.306,0,0,1,.16-0.164,1.406,1.406,0,0,1,.33-0.328,1.28,1.28,0,0,1,.33-0.328c-0.08.082-.25,0.246-0.33,0.328s-0.24.246-.33,0.328a0.079,0.079,0,0,0-.08.082Zm8.61,5.083h0Zm-17.79-43.949c-0.08-.082-0.08-0.164.08-0.164,0.08-.082.16-0.082,0.25-0.164,0.16-.082.4-0.164,0.57-0.246-0.17.082-.41,0.164-0.57,0.246-0.09.082-.17,0.164-0.25,0.246Zm4.83,6.888a0.08,0.08,0,0,1-.08-0.082c-0.08-.082-0.08-0.246,0-0.246a1.984,1.984,0,0,1,1.23-.9c1.07-.574,2.22-1.148,3.36-1.64a43,43,0,0,1,6.97-2.132c0.58-.082,1.15-0.246,1.64-0.328a4.04,4.04,0,0,1,.99-0.082,0.306,0.306,0,0,1,.16.164,0.84,0.84,0,0,1-.08.246c-0.66.164-1.23,0.41-1.8,0.492a47.31,47.31,0,0,0-10.99,3.936c-0.33.164-.74,0.41-1.07,0.574h-0.33Zm-0.16-3.116a3.09,3.09,0,0,1,1.89-1.312,49.329,49.329,0,0,1,11.23-3.444c0.9-.164,1.8-0.246,2.62-0.41a2.756,2.756,0,0,1,.82.082,0.983,0.983,0,0,1,.25.328,0.394,0.394,0,0,1-.16.41,2.751,2.751,0,0,1-1.32.41c-1.96.328-3.93,0.656-5.82,0.984a55.538,55.538,0,0,0-7.38,2.378A6.871,6.871,0,0,1,1139.36,355.665Zm0.57-5.9h0.09a30.229,30.229,0,0,1,6.47-2.214,49.626,49.626,0,0,1,6.07-1.148,9.7,9.7,0,0,1,2.63-.163,0.488,0.488,0,0,1,.41.163c0.08,0.328-.17.246-0.33,0.328l-3.45.492a59.52,59.52,0,0,0-9.34,2.05,13.074,13.074,0,0,1-2.46.492h-0.09Zm-1.55-1.148a1.684,1.684,0,0,1,1.06-.574c1.48-.492,2.95-1.066,4.43-1.476a59.574,59.574,0,0,1,9.27-1.722,11,11,0,0,1,4.83.411c-1.47.164-2.7,0.328-3.93,0.409a67.377,67.377,0,0,0-14.43,2.952A0.978,0.978,0,0,1,1138.38,348.613Zm23.45,12.054a1.125,1.125,0,0,1,.33-0.328A0.613,0.613,0,0,0,1161.83,360.667Zm0.65-3.116h0Z" transform="translate(-1009.59 -338.75)"/>
  <path id="Record" class="cls-2" d="M1199.93,403.707a0.151,0.151,0,0,0,.17-0.126c0-.042,0-0.125-0.04-0.125a3.316,3.316,0,0,0-1.01-.672c-1.22-.546-2.44-1.134-3.7-1.68-2.6-1.092-5.2-2.1-7.85-3.065-1.26-.462-2.52-0.84-3.78-1.26-0.33-.126-0.67-0.252-0.96-0.378a0.177,0.177,0,0,1-.13-0.21,0.965,0.965,0,0,1,.21-0.126,3.024,3.024,0,0,1,1.05.294c3.32,1.218,6.68,2.394,9.95,3.737a62.317,62.317,0,0,1,6.01,2.562c0.12,0.042.25,0.084,0.37,0.126a1.192,1.192,0,0,0,1.31-.336,0.4,0.4,0,0,0-.05-0.63c-0.21-.126-0.42-0.294-0.63-0.42-1.42-.84-2.89-1.47-4.36-2.183a2.7,2.7,0,0,1-.88-0.546,1.919,1.919,0,0,1-.89-0.379,1.24,1.24,0,0,1,.89.379,2.007,2.007,0,0,1,.84.252c0.96,0.462,1.93.881,2.89,1.343,0.67,0.294,1.3.714,2.02,0.966-0.17-.126-0.3-0.294-0.46-0.42-0.59-.336-1.18-0.714-1.81-1.008-1.38-.671-2.81-1.344-4.24-2.015a4.951,4.951,0,0,1-1.3-.714,4.731,4.731,0,0,1-.84-0.21c-0.63-.252-1.26-0.462-1.85-0.756-1.13-.5-2.27-0.923-3.4-1.344a1.575,1.575,0,0,1-.59-0.294v-0.126a0.064,0.064,0,0,1,.09,0c0.54,0.168,1.09.378,1.63,0.588a7.88,7.88,0,0,1,.89.337c1.04,0.419,2.14.839,3.19,1.3a3.712,3.712,0,0,1,.88.5,3.5,3.5,0,0,1,1.43.378c0.54,0.252,1.05.462,1.55,0.713,1.64,0.8,3.32,1.512,4.91,2.478,0.09,0.042.17,0.126,0.25,0.168a0.3,0.3,0,0,0,.42-0.252,1.521,1.521,0,0,0-.67-1.511,4.625,4.625,0,0,0-1.26-.673,3.771,3.771,0,0,1-1.3-.629,5.188,5.188,0,0,0-1.22-.714c-0.96-.462-1.97-0.84-2.94-1.26-0.12-.084-0.29-0.126-0.42-0.21a11.534,11.534,0,0,0-3.36-1.595c-0.62-.252-1.17-0.546-1.76-0.8a0.54,0.54,0,0,1-.33-0.5,0.7,0.7,0,0,1,.37-0.588c0.13-.042.3-0.084,0.42-0.126a4.1,4.1,0,0,0,1.68-1.092,1.318,1.318,0,0,1,.67-0.5,5.34,5.34,0,0,0,1.85-1.217,6.977,6.977,0,0,1,1.05-.882,1.518,1.518,0,0,0,.42-0.336,1.208,1.208,0,0,1,.42-0.378,3.686,3.686,0,0,0,1.09-.924c0.26-.252.47-0.5,0.72-0.714a7.916,7.916,0,0,0,1.38-1.763,2.471,2.471,0,0,0,.3-0.756,13.563,13.563,0,0,0,.37-2.6,26.864,26.864,0,0,0-.12-3.232,6.442,6.442,0,0,0-.97-2.772,5.72,5.72,0,0,0-2.73-2.268,5.876,5.876,0,0,0-.79-0.293,14.062,14.062,0,0,0-5.08-1.008c-0.76,0-1.56.084-2.31,0.042a10.755,10.755,0,0,0-2.61.168,3.242,3.242,0,0,1-.63.084,12.194,12.194,0,0,0-2.52.42,29.218,29.218,0,0,0-5.58,1.973,6.842,6.842,0,0,0-.76.42,1.28,1.28,0,0,0-.67,1.26,0.926,0.926,0,0,1-.13.672c-0.21.5-.08,0.713,0.51,0.8a0.7,0.7,0,0,0,.29.042,0.49,0.49,0,0,1,.34.126c-0.25.042-.46,0.084-0.67,0.126a0.229,0.229,0,0,0-.17.253,0.545,0.545,0,0,0,.25.167,2.785,2.785,0,0,0,1.01-.126c1.01-.252,1.97-0.5,2.94-0.756a19.287,19.287,0,0,1,3.44-.713,6.175,6.175,0,0,1,.88-0.042,0.151,0.151,0,0,1,.09.126,0.1,0.1,0,0,1-.09.084c-0.33.083-.67,0.125-1.13,0.251,0.42,0.042.67,0.042,0.96,0.084a0.22,0.22,0,0,1,.13.378c-0.34.63-.67,1.218-1.05,1.848-0.08.21-.21,0.42-0.29,0.672a12.976,12.976,0,0,1-1.01,2.142c-0.42.839-.88,1.637-1.26,2.519-0.29.63-.59,1.3-0.92,1.931-0.42.924-.84,1.848-1.22,2.772a5.766,5.766,0,0,1-1.51,2.687,0.486,0.486,0,0,0-.17.252,0.942,0.942,0,0,0-.25.8,2.448,2.448,0,0,1-.26,1.553,13.446,13.446,0,0,0-.71,2.478,3.145,3.145,0,0,0,.08,1.637,0.773,0.773,0,0,0,.93.673v0a3.768,3.768,0,0,0,.33,1.511,1.3,1.3,0,0,0,.51.63,1.058,1.058,0,0,0,.63-0.084,0.143,0.143,0,0,1,.21.126,0.557,0.557,0,0,1,.04.252,0.314,0.314,0,0,0,.46.252,1.422,1.422,0,0,0,.63-0.378,0.587,0.587,0,0,1,.55-0.21c0.33,0.084.42-.126,0.46-0.378,0.25-1.008.8-1.847,1.05-2.855a0.574,0.574,0,0,1,.8-0.42,8.112,8.112,0,0,1,.92.336c1.09,0.377,2.18.756,3.28,1.176,1.68,0.587,3.4,1.133,5.08,1.763,1.38,0.5,2.77,1.05,4.15,1.6a14.693,14.693,0,0,0,1.94.672,3.775,3.775,0,0,0-.89-0.5c-1.72-.672-3.4-1.386-5.12-2.016-2.48-.882-5-1.721-7.47-2.6-0.55-.21-1.14-0.462-1.68-0.714a0.107,0.107,0,0,1-.09-0.168,0.142,0.142,0,0,1,.17-0.042c0.17,0.042.34,0.084,0.5,0.126,1.26,0.42,2.52.882,3.78,1.3,2.52,0.925,5,1.806,7.48,2.772,1.72,0.714,3.48,1.344,5.16,2.142A6.017,6.017,0,0,0,1199.93,403.707Zm-20.03-4.66a0.159,0.159,0,0,0,.04-0.126h0.09c0,0.042-.04.084-0.04,0.126h-0.09Zm10.46-2.6h0Zm7.01,6.677c-0.17-.042-0.29-0.084-0.46-0.126h-0.04C1197.03,403.036,1197.2,403.078,1197.37,403.12Zm1.26,0.671a2.5,2.5,0,0,0-1.26-.671A3.376,3.376,0,0,0,1198.63,403.791Zm0.13,0.042a0.173,0.173,0,0,0-.13-0.042h0.08A0.047,0.047,0,0,0,1198.76,403.833Zm-14.24-14.99a0.262,0.262,0,0,1-.04-0.168,1.619,1.619,0,0,1,.63-0.714c0.04-.126.08-0.294,0.12-0.462a2.114,2.114,0,0,1-.16.462,1.136,1.136,0,0,1-.42.84A0.153,0.153,0,0,0,1184.52,388.843Zm17.17,12.555v-0.042c-0.12-.042-0.21-0.084-0.33-0.126A1.226,1.226,0,0,1,1201.69,401.4Zm-23.13-23.977h0Zm0,0h0Zm7.77,7.811v-0.084a0.486,0.486,0,0,1,.33-0.462c0-.042.04-0.042,0.04,0,0.05,0,.05,0,0.05.042a0.642,0.642,0,0,1-.3.5C1186.45,385.274,1186.37,385.232,1186.33,385.232Zm-6.39-8.189h0Zm-3.82-1.679h0.04a2.774,2.774,0,0,1,1.26-.5,0.879,0.879,0,0,1,.47-0.126,0.778,0.778,0,0,1,.5-0.168c0.17-.042.29-0.126,0.46-0.168a1.494,1.494,0,0,0,.34-0.21,0.592,0.592,0,0,1,.38-0.042c0.12,0.042-.09.168-0.34,0.21a1.175,1.175,0,0,1-.38.042,1.512,1.512,0,0,0-.46.168,2.536,2.536,0,0,1-.5.168,0.879,0.879,0,0,1-.47.126A2.881,2.881,0,0,1,1176.12,375.364Zm4.79,1.511h0.04c0.04-.042.09-0.042,0.13-0.084h-0.13C1180.87,376.833,1180.87,376.833,1180.91,376.875Zm0.17-.084h0.25a1.47,1.47,0,0,1,.13-0.084h-0.17A0.325,0.325,0,0,1,1181.08,376.791Zm-1.72-.629a0.09,0.09,0,0,1-.09-0.084c-0.04-.042.04-0.084,0.04-0.126a0.085,0.085,0,0,0,.09-0.042,25.365,25.365,0,0,1,4.41-.756h0.12c0.42-.042.63,0.042,0.55,0.126a0.428,0.428,0,0,1-.46.21,1.462,1.462,0,0,1-.42.042,15.148,15.148,0,0,0-3.36.588A1.577,1.577,0,0,1,1179.36,376.162Zm6.04,12.387c-0.17-.084-0.12-0.21-0.08-0.336a3.732,3.732,0,0,1,.38-0.882,2.756,2.756,0,0,0,.33-0.966c-0.08.042-.21,0.126-0.29,0.168a0.3,0.3,0,0,0-.17.168,0.542,0.542,0,0,1,.17-0.168c0.04-.126.04-0.252,0.08-0.378a0.445,0.445,0,0,1,.17-0.126c0.08,0,.08.126,0.08,0.21a0.159,0.159,0,0,0-.04.126,1.7,1.7,0,0,0,.34-0.42c0.54-.965,1.09-1.931,1.64-2.9a0.454,0.454,0,0,0,.04-0.588,0.316,0.316,0,0,1,.04-0.378,4.569,4.569,0,0,1,.42-0.5,1.044,1.044,0,0,0,.38-0.967,0.26,0.26,0,0,1,.04-0.167,10.8,10.8,0,0,1,.71-1.554,2.357,2.357,0,0,0,.34-1.05c0.04-.251.04-0.293-0.29-0.42-0.13-.042-0.21-0.084-0.17-0.21a0.2,0.2,0,0,1,.21-0.21c0.42-.042.84-0.042,1.26-0.042h0a1.135,1.135,0,0,1,.5-0.168,0.367,0.367,0,0,1,.38.252,0.5,0.5,0,0,0,.5.294,2.7,2.7,0,0,1,.84.084h0a23.53,23.53,0,0,1,2.23,1.386c0.08,0.042.12,0.084,0.21,0.126,0.88,0.756.71,0.84,0.12,1.554a15.669,15.669,0,0,1-2.22,2.225c-0.97.84-1.93,1.6-2.9,2.394-1.05.839-2.14,1.6-3.23,2.309a10.961,10.961,0,0,0-1.39.924c-0.08.084-.17,0.126-0.25,0.21A0.406,0.406,0,0,1,1185.4,388.549Zm-0.67-15.033c-0.04-.042,0-0.042.04-0.042a0.258,0.258,0,0,1,.17-0.042,1.292,1.292,0,0,1,.88-0.168,0.23,0.23,0,0,1,.13.084,0.14,0.14,0,0,1-.09.084,1.821,1.821,0,0,1-.46.042c-0.17,0-.33-0.042-0.46-0.042a0.529,0.529,0,0,1-.17.084h-0.04Zm6.34,3.485c0-.042-0.04-0.042-0.08-0.042h0C1191.03,376.959,1191.07,376.959,1191.07,377Zm2.56-3.4c-1.72-.21-3.44-0.546-5.2-0.588s-3.49-.084-5.25.042a11.683,11.683,0,0,1,2.39-.378,23.015,23.015,0,0,1,6.13.252A4.637,4.637,0,0,1,1193.63,373.6Zm-0.54,2.772a1.638,1.638,0,0,1-.47-0.042c-0.75-.168-1.47-0.336-2.18-0.462-0.17-.042-0.33-0.126-0.5-0.168a0.2,0.2,0,0,1-.17-0.252,0.224,0.224,0,0,1,.25-0.126c0.04-.042.04,0,0.17,0a11.179,11.179,0,0,1,2.94.84c0.04,0.042.08,0.126,0.04,0.126C1193.17,376.33,1193.13,376.413,1193.09,376.372Zm0.12,1.091v-0.042h0v0.042Zm-0.5-3.485a0.1,0.1,0,0,1-.09-0.042h-0.04a9.158,9.158,0,0,1-1.51-.126c-0.96-.126-1.93-0.21-2.9-0.336a0.545,0.545,0,0,1-.37-0.084c0.04-.168.16-0.126,0.25-0.126a12.709,12.709,0,0,1,4.36.588,0.21,0.21,0,0,1,.17.084A0.162,0.162,0,0,1,1192.71,373.978Zm20.96,26.58a1.308,1.308,0,0,0,.8-0.168,0.368,0.368,0,0,0,.08-0.672,0.413,0.413,0,0,1-.16-0.545,0.76,0.76,0,0,0-.26-1.05,2.476,2.476,0,0,0-.42-0.336,1.449,1.449,0,0,1-.46-0.546,1.771,1.771,0,0,0-1.09-.882,5.966,5.966,0,0,0-.92-0.294c-1.39-.252-2.78-0.462-4.16-0.588-0.59-.084-1.13-0.168-1.68-0.251a0.34,0.34,0,0,1-.29-0.463,7.154,7.154,0,0,0,.21-0.755h-0.17c0.08-.084.12-0.042,0.17,0a3.679,3.679,0,0,0,.46-1.3h-0.13c0.09-.084.13-0.21,0.21-0.294a4.344,4.344,0,0,0,.72-1.218,0.211,0.211,0,0,0-.13-0.252v0.042a1.112,1.112,0,0,1,.17-0.42,0.178,0.178,0,0,1,.29-0.084h0a1.86,1.86,0,0,1,.67-0.252,5.552,5.552,0,0,1,1.18.042,4.576,4.576,0,0,0,1.51-.084,27.718,27.718,0,0,1,3.7-.419c0.16-.042.33-0.042,0.46-0.084a0.716,0.716,0,0,0,.42-0.294,0.27,0.27,0,0,0-.13-0.42c-0.17-.042-0.33-0.084-0.46-0.126a0.088,0.088,0,0,1-.08-0.084,0.21,0.21,0,0,1,.04-0.168c0.08-.042.17-0.084,0.25-0.126,0.46-.294.5-0.5,0.13-0.882-0.17-.126-0.34-0.21-0.47-0.294-0.16-.126-0.29-0.21-0.46-0.336a0.317,0.317,0,0,1-.08-0.378c0.21-.294.04-0.462-0.17-0.672a1.529,1.529,0,0,0-.84-0.377,10.185,10.185,0,0,0-1.6-.042,2.669,2.669,0,0,1-1,0,0.415,0.415,0,0,1-.3-0.462,9.176,9.176,0,0,1,.55-1.47,15.889,15.889,0,0,0,1.26-2.646,2.219,2.219,0,0,1,1.01-1.3v0.042c0-.168,0-0.294.16-0.336a4.018,4.018,0,0,1,.68-0.168c0.79-.126,1.59-0.252,2.39-0.378a21.275,21.275,0,0,1,2.85-.126,3.379,3.379,0,0,1,1.56.336,1.357,1.357,0,0,0,.59.126,0.246,0.246,0,0,0,.29-0.294,0.6,0.6,0,0,1,.17-0.588,0.771,0.771,0,0,0,.04-1.008,0.664,0.664,0,0,0-.13-0.21,1.335,1.335,0,0,1-.29-0.965,1.372,1.372,0,0,0-.25-0.672,2.659,2.659,0,0,0-.72-0.5,3.75,3.75,0,0,0-1.8-.252c-0.38.042-.8,0.042-1.18,0.084-1.21.084-2.47,0.168-3.65,0.294a19.045,19.045,0,0,0-2.14.378,8.508,8.508,0,0,0-1.98.672,1.389,1.389,0,0,0-.75.629,0.5,0.5,0,0,0-.04.546,0.449,0.449,0,0,0,.46,0c0.08,0,.12-0.042.21-0.042s0.17,0,.17.126c0.04,0-.05.084-0.09,0.084a0.53,0.53,0,0,0-.38.252,3.432,3.432,0,0,1-.5.966,3.883,3.883,0,0,1-.46.84c-0.88,1.133-1.76,2.309-2.56,3.527a38.45,38.45,0,0,0-3.03,4.787,0.224,0.224,0,0,0-.08.126,28.425,28.425,0,0,0-2.35,4.619,3.021,3.021,0,0,1-.46.84,2.086,2.086,0,0,0-.38,1.595,3.946,3.946,0,0,0,.46,1.512,4.41,4.41,0,0,1,.67,1.428c0.09,0.21.21,0.461,0.3,0.672a1.063,1.063,0,0,0,.42.462,5.951,5.951,0,0,0,3.9,1.343h1.43c1.47-.042,2.94.042,4.41,0.126C1211.49,400.516,1212.58,400.516,1213.67,400.558Zm-6.76-10.078h0Zm2.23-1.175a0.14,0.14,0,0,1-.09-0.084,0.23,0.23,0,0,1,.13-0.084c0.42-.084.88-0.126,1.3-0.168,0.59-.084,1.13-0.126,1.68-0.21a0.085,0.085,0,0,0,.04.084,0.211,0.211,0,0,1-.12.084l-2.78.378h-0.16Zm2.01-8.483a0.1,0.1,0,0,1-.08-0.126c0.04-.042.04-0.084,0.08-0.126s0.09,0,.13.042A0.224,0.224,0,0,1,1211.15,380.822Zm1.35-1.175v-0.042a3.179,3.179,0,0,0,.63-0.042,2.32,2.32,0,0,0,.5-0.126v-0.084A10.536,10.536,0,0,0,1212.5,379.647Zm0.5-.924a0.611,0.611,0,0,1-.25-0.042,0.041,0.041,0,0,1-.04-0.042v-0.168c0.12-.042.25-0.126,0.37-0.168a27.407,27.407,0,0,1,3.24-.462c0.54-.042,1.09-0.084,1.63-0.084a4.141,4.141,0,0,1,1.26.084,0.2,0.2,0,0,1,.09.126,0.135,0.135,0,0,1-.09.126,2.321,2.321,0,0,1-.54.084,32.927,32.927,0,0,0-5.38.546H1213ZM1212.71,377a0.142,0.142,0,0,1-.05-0.084,0.06,0.06,0,0,1,0-.084,0.8,0.8,0,0,1,.21-0.084,39.028,39.028,0,0,1,4.45-.5c0.34,0,.72.042,1.1,0.042a0.137,0.137,0,0,1-.05.125c-0.54.042-1.09,0.126-1.63,0.168-1.26.084-2.48,0.294-3.7,0.42A0.872,0.872,0,0,1,1212.71,377Zm0-.378a1.145,1.145,0,0,1-.38-0.042,0.15,0.15,0,0,1-.13-0.084,0.134,0.134,0,0,1,.09-0.125,1.765,1.765,0,0,1,.46-0.126c0.59-.084,1.22-0.21,1.8-0.252a18.688,18.688,0,0,1,3.11-.252,2.752,2.752,0,0,1,1.26.168,2.788,2.788,0,0,1-1.3.168A48.72,48.72,0,0,0,1212.71,376.623Zm5.92,2.31h0.21a0.041,0.041,0,0,0,.04-0.042c0-.126.04,0-0.04,0a0.284,0.284,0,0,0-.26,0C1218.5,378.891,1218.54,378.933,1218.63,378.933Zm8.18,21.331c0.13,0,.21-0.042.34-0.042a5.488,5.488,0,0,0,3.49-2.351v-0.126a1.131,1.131,0,0,0-.51.378,6.87,6.87,0,0,1-2.64,1.721,5.378,5.378,0,0,1,1.21-1.007,15.224,15.224,0,0,0,1.6-1.344,2.055,2.055,0,0,1,.67-0.5,0.823,0.823,0,0,0,.51-0.462,0.241,0.241,0,0,1,0-.336h0v0.336a2.208,2.208,0,0,0,.5-0.84,0.271,0.271,0,0,1,.08-0.336,1.413,1.413,0,0,0,.55-0.756h0a3.454,3.454,0,0,1,.21-0.755,10.75,10.75,0,0,0,.42-1.218,0.9,0.9,0,0,0-.04-0.84,2.264,2.264,0,0,1-.25-0.924,2.263,2.263,0,0,0-.72-1.385,2.1,2.1,0,0,1-.5-0.714,1.122,1.122,0,0,0-.67-0.63c-0.34-.168-0.59-0.084-0.63.294a3.854,3.854,0,0,1-.63,1.637,13.66,13.66,0,0,1-2.19,2.73,2.692,2.692,0,0,1-.96.672c-0.34.126-.63,0.252-0.97,0.378a3.594,3.594,0,0,1-1.34.21,0.386,0.386,0,0,1-.42-0.378,2.05,2.05,0,0,1-.09-0.882,11.976,11.976,0,0,1,.42-2.394,0.653,0.653,0,0,0,.09-0.42,1.74,1.74,0,0,1,.25-0.881c0.25-.63.5-1.218,0.75-1.848a2.911,2.911,0,0,1,.8-1.176,0.811,0.811,0,0,0,.38-0.587h0a0.209,0.209,0,0,1-.08-0.252,6.517,6.517,0,0,0,.79-1.344,0.625,0.625,0,0,1,.3-0.252,1.793,1.793,0,0,0,.42-0.546h0.04c-0.21-.168-0.17-0.336.04-0.5,0.09-.042.17-0.084,0.25-0.126h0a2.014,2.014,0,0,1,.51-0.965,1.984,1.984,0,0,0,.46-0.757,1.45,1.45,0,0,1,.59-0.923,7,7,0,0,0,.71-0.84,1.672,1.672,0,0,1,.88-0.714,1.814,1.814,0,0,0,.68-0.42h0a0.275,0.275,0,0,1,0-.42,5.686,5.686,0,0,1,2.72-1.553,2.174,2.174,0,0,1,.55-0.084,0.267,0.267,0,0,1,.13.084,0.908,0.908,0,0,1-.09.126l-0.5.126a2.452,2.452,0,0,0-1.18.587c0.42-.126.8-0.252,1.18-0.377a0.5,0.5,0,0,1,.54.042,0.372,0.372,0,0,1-.04.5c-0.17.336-.33,0.631-0.5,0.924-0.21.378-.42,0.756-0.63,1.092a1.544,1.544,0,0,0-.21.84c0.04,0.462.04,0.923,0.04,1.344a0.373,0.373,0,0,0,.34.42,1.179,1.179,0,0,1,.37.084,0.129,0.129,0,0,1,0,.209c-0.08.126-.12,0.21,0.09,0.21a2.027,2.027,0,0,0,.71-0.042h0.17a0.735,0.735,0,0,1,.17-0.251,17.04,17.04,0,0,0,1.55-2.688,5.523,5.523,0,0,0,.46-1.427,8.737,8.737,0,0,0-.54-4.158c-0.09-.21-0.21-0.378-0.3-0.588a2.609,2.609,0,0,0-1.59-1.133,6.7,6.7,0,0,0-3.15.21,2.282,2.282,0,0,0-.92.419,4.812,4.812,0,0,1-1.01.5,5.85,5.85,0,0,0-1.93,1.134c-0.72.588-1.47,1.218-2.19,1.848a14.556,14.556,0,0,0-1.38,1.385c-0.88,1.134-1.72,2.31-2.56,3.485-0.3.421-.59,0.841-0.84,1.26a11.318,11.318,0,0,1-.72,1.176,15.974,15.974,0,0,0-.88,1.386c-0.25.588-.5,1.134-0.76,1.679a9.681,9.681,0,0,0-.79,2.1,9.063,9.063,0,0,0,.29,4.619,21.906,21.906,0,0,0,1.6,3.653,7.693,7.693,0,0,0,2.31,2.52A6.438,6.438,0,0,0,1226.81,400.264Zm0.38-1.6a0.443,0.443,0,0,1-.21-0.084,0.193,0.193,0,0,1,.04-0.211,3.832,3.832,0,0,1,1.52-.8c0.08-.042.12,0.042,0.12,0.168a0.159,0.159,0,0,1-.04.126A3.016,3.016,0,0,1,1227.19,398.669Zm-0.59-2.436a0.075,0.075,0,0,1-.12-0.042c0-.042,0-0.126.04-0.126a1.1,1.1,0,0,1,.76-0.378h0.08v0.168A1.3,1.3,0,0,1,1226.6,396.233Zm-1.05-.294a0.573,0.573,0,0,0-.12-0.084,0.325,0.325,0,0,1,.08-0.168,18.12,18.12,0,0,1,1.77-.924,2.156,2.156,0,0,1,.29-0.084,0.267,0.267,0,0,1,.13.084c0,0.042,0,.126-0.05.126A4.291,4.291,0,0,1,1225.55,395.939Zm4.33,0.882c0.04-.042.13-0.126,0.17-0.168h0A0.339,0.339,0,0,1,1229.88,396.821Zm-5.71-8.188a0.149,0.149,0,0,1-.04-0.084,0.079,0.079,0,0,0,.08-0.042c0,0.042,0,.042.04,0.042Zm0.29-.756h0Zm7.94,5.669c-0.08,0-.13-0.042-0.08-0.084a0.266,0.266,0,0,1,.25-0.252,0.155,0.155,0,0,1,.08.084A0.364,0.364,0,0,1,1232.4,393.546Zm-5.88-8.062a0.339,0.339,0,0,0,.17-0.168h0A0.677,0.677,0,0,1,1226.52,385.484Zm0.17-.168h0Zm1.26-2.226h0.04c0.04-.084.08-0.21,0.13-0.336A1.04,1.04,0,0,1,1227.95,383.09Zm0.17-.336h0a0.556,0.556,0,0,0,.16-0.126A0.556,0.556,0,0,1,1228.12,382.754Zm0.16-.126h0v0Zm-0.29-1.133h0Zm1.6-1.974c-0.05,0-.09-0.042-0.05-0.042a0.994,0.994,0,0,1,.51-0.63c0.04-.042.04,0,0.08,0,0,0.042.04,0.042,0.04,0.084a1.2,1.2,0,0,1-.54.588h-0.04Zm6.04,2.435h0Zm-3.52-4.115,0.16-.168h0l-0.16.168h0Zm0.16-.168h0Zm0.97-.714a0.644,0.644,0,0,0,.46-0.252h0.04a1.138,1.138,0,0,0-.54.168v0.042A0.04,0.04,0,0,0,1233.24,376.959Zm-1.89-2.645c0.08-.042.21-0.126,0.29-0.168a1.279,1.279,0,0,0,.34-0.168,3.092,3.092,0,0,0,.46-0.168h0.09l0.04-.042c-0.04.042-.09,0.042-0.13,0.084-0.17.042-.29,0.084-0.46,0.126a1.279,1.279,0,0,1-.34.168A1.035,1.035,0,0,1,1231.35,374.314Zm2.9,1.05c-0.05,0-.05-0.084-0.05-0.126a0.142,0.142,0,0,1,.05-0.084,1.986,1.986,0,0,1,1.3-.168,0.088,0.088,0,0,1,.08.084,0.107,0.107,0,0,1-.08.168c-0.25.042-.51,0.084-0.67,0.126A1.548,1.548,0,0,1,1234.25,375.364Zm-1.26-2.142h0.12a3.445,3.445,0,0,1,2.14-.378c0.09,0,.26,0,0.26.126a0.392,0.392,0,0,1-.3.126,17.811,17.811,0,0,1-2.14.084C1233.07,373.222,1233.03,373.222,1232.99,373.222Zm1.34,0.378a0.041,0.041,0,0,1-.04-0.042c0-.042,0-0.126.04-0.126a1.506,1.506,0,0,1,1.05,0A1.8,1.8,0,0,1,1234.33,373.6Zm9.1,26.916a4.236,4.236,0,0,0,2.65-.63,0.588,0.588,0,0,1,.62-0.126h0c0.17-.084.38-0.168,0.59-0.252a14.048,14.048,0,0,0,2.48-1.973,21.922,21.922,0,0,0,2.44-3.024c0.58-.839,1.13-1.721,1.63-2.6a11.1,11.1,0,0,0,1.18-2.855c-0.08.042-.17,0.126-0.25,0.168a0.04,0.04,0,0,1-.04.042c0-.042-0.05-0.126,0-0.126,0.04-.168.16-0.168,0.29-0.084a8.069,8.069,0,0,0,.92-3.108,0.325,0.325,0,0,1,.04-0.167,10.332,10.332,0,0,0,.34-2.016,14.5,14.5,0,0,0-.04-4.829,9.357,9.357,0,0,0-1.85-4.157,17.917,17.917,0,0,0-1.51-1.68,3.76,3.76,0,0,0-2.98-1.259,3.819,3.819,0,0,1-1.18-.168,4.651,4.651,0,0,1-1.89.923v0.042a2.648,2.648,0,0,1,1.93-.965,0.848,0.848,0,0,0-1.05-.546,6.685,6.685,0,0,0-1.72.63,12.011,12.011,0,0,0-2.85,2.393,8.124,8.124,0,0,1-.84.84c-0.13.21-.34,0.336-0.46,0.546a19.944,19.944,0,0,0-2.4,3.569,1.7,1.7,0,0,1-.21.336,21.709,21.709,0,0,0-1.51,2.519c-0.42.84-.67,1.68-1.05,2.52a10.234,10.234,0,0,0-.92,3.191c-0.09.756-.21,1.512-0.34,2.309a5.478,5.478,0,0,0,.04,1.806c0.09,0.378.13,0.714,0.21,1.092a10.5,10.5,0,0,0,1.14,2.981,23.062,23.062,0,0,0,2.39,2.982,3.908,3.908,0,0,0,.92.713A6.629,6.629,0,0,0,1243.43,400.516Zm3.27-.756h0Zm1.43-1.259c0-.043.04-0.043,0.09-0.043v-0.042A1.177,1.177,0,0,0,1248.13,398.5Zm-3.86-2.268a0.144,0.144,0,0,1,.04-0.21c0.97-.839,1.85-1.806,2.9-2.561,0.04-.042.08-0.042,0.12-0.084,0.05-.126.13-0.21,0.17-0.336a1.769,1.769,0,0,0-.17.336,7.25,7.25,0,0,1-2.89,2.855h-0.17Zm1.13,0c-0.08-.042-0.04-0.126.05-0.21a16.55,16.55,0,0,1,2.22-2.015,2.03,2.03,0,0,1-.38.671,6.671,6.671,0,0,1-1.72,1.554A0.237,0.237,0,0,1,1245.4,396.233Zm0.97,2.225a0.04,0.04,0,0,1-.04-0.042c-0.04-.042-0.09-0.084-0.04-0.126a1.091,1.091,0,0,1,.33-0.419,22.33,22.33,0,0,0,3.15-3.15c0.34-.378.76-0.755,1.13-1.133,0.05-.042.13-0.084,0.17-0.126a0.185,0.185,0,0,1,0,.252,39.669,39.669,0,0,1-2.94,3.569,5.28,5.28,0,0,1-1.47,1.091A2.156,2.156,0,0,1,1246.37,398.458Zm-3.82-12.261c0.04-.168.12-0.336,0.17-0.5C1242.67,385.861,1242.59,386.029,1242.55,386.2Zm6.46,11.548c0-.042-0.08-0.084-0.04-0.126a1.981,1.981,0,0,1,.51-0.672c0.71-.882,1.47-1.721,2.14-2.688a9.118,9.118,0,0,0,.88-1.3,7.779,7.779,0,0,1,1.22-1.638,0.935,0.935,0,0,1,.33-0.672,1.123,1.123,0,0,1-.33.63,2.49,2.49,0,0,1-.42,1.05,19.806,19.806,0,0,1-2.19,3.191c-0.54.672-1.09,1.3-1.63,1.932a2.837,2.837,0,0,1-.38.294C1249.1,397.787,1249.01,397.787,1249.01,397.745Zm1.05-7.559a0.872,0.872,0,0,1,.26-0.5A0.6,0.6,0,0,1,1250.06,390.186Zm-7.81,5a0.7,0.7,0,0,1-.92-0.084,1.359,1.359,0,0,0-.21-0.127,0.345,0.345,0,0,0-.17.169h0a0.659,0.659,0,0,1,.17-0.169,26.709,26.709,0,0,1,.97-7.054,5.637,5.637,0,0,1,.16-0.8h-0.16c0.08-.126.08,0,0.12,0a2.393,2.393,0,0,0,.34-0.924c-0.09-.042-0.21-0.042-0.21-0.168a0.324,0.324,0,0,1,.08-0.209,0.917,0.917,0,0,1,.3-0.126,4.382,4.382,0,0,0,.5-0.966c0-.042-0.04-0.126-0.04-0.168a0.162,0.162,0,0,1-.13.042c-0.08.084-.12,0.168-0.21,0.126a0.529,0.529,0,0,1,0-.252,1.108,1.108,0,0,1,.42-0.546,3.936,3.936,0,0,0,.59-0.84,30.4,30.4,0,0,0,1.55-3.149,4.2,4.2,0,0,1-.46.5,2.035,2.035,0,0,0-.12.293,0.493,0.493,0,0,1-.3.337c-0.12.042-.04-0.211,0.17-0.421a1.1,1.1,0,0,1,.25-0.209,4.6,4.6,0,0,1,.84-1.764c0.04-.084.17-0.21,0.25-0.084,0.05,0.084,0,.168.05,0.252h0c0.29-.462.62-0.882,0.88-1.3a4.68,4.68,0,0,1,1.84-1.764,7.614,7.614,0,0,1,1.31-.714,1.287,1.287,0,0,1,.37-0.126,0.142,0.142,0,0,1,.09.042,0.243,0.243,0,0,1,0,.168,1.366,1.366,0,0,1-.51.336c-0.54.336-1.05,0.672-1.55,1.007-0.04,0-.04.084-0.04,0.126a0.143,0.143,0,0,0,.12.042,2.633,2.633,0,0,0,.8-0.335,3.245,3.245,0,0,1,1.51-.5c0.34-.042.63-0.126,0.93-0.168a0.393,0.393,0,0,1,.54.336,3.144,3.144,0,0,1,.09.713,12.955,12.955,0,0,1-1.01,6,19.779,19.779,0,0,1-.84,2.058,17.437,17.437,0,0,1-1.39,2.477c-0.37.546-.67,1.092-1,1.638a13.921,13.921,0,0,1-1.43,2.015,16.105,16.105,0,0,1-2.06,2.436c-0.46.42-.92,0.8-1.38,1.217A5.8,5.8,0,0,1,1242.25,395.184Zm1.64-12.85c-0.12.084,0-.168,0.25-0.462v0A0.625,0.625,0,0,1,1243.89,382.334Zm6.97,6.257c0-.042.04-0.042,0.04-0.084a0.2,0.2,0,0,0,.13-0.084c0.04-.084.08-0.21,0.13-0.294l0.04-.042h-0.04a1.769,1.769,0,0,1-.17.336,0.159,0.159,0,0,1-.04.126C1250.95,388.633,1250.9,388.633,1250.86,388.591Zm-8.94-9.742a0.159,0.159,0,0,1,.04-0.126c0.04-.084.04-0.084,0.08-0.042a0.041,0.041,0,0,1-.04.042C1241.96,378.765,1241.96,378.807,1241.92,378.849Zm3.48,1.092h0Zm-2.85-2.058a0.764,0.764,0,0,1,.33-0.462,0.832,0.832,0,0,1,.13-0.168,1.329,1.329,0,0,0,.17-0.336,0.827,0.827,0,0,0,.17-0.168c0.04-.042.12-0.084,0.16-0.126v-0.042l-0.16.168c-0.05.042-.13,0.126-0.17,0.168a1.329,1.329,0,0,1-.17.336,0.5,0.5,0,0,1-.17.126A0.756,0.756,0,0,1,1242.55,377.883Zm3.19,1.428h0.04a1.141,1.141,0,0,0,.3-0.462,0.8,0.8,0,0,0-.38.378A0.133,0.133,0,0,0,1245.74,379.311Zm0.71-1.512c-0.08,0-.08-0.168,0-0.293,0.09-.085.17-0.169,0.3-0.295h0.04c0.04,0.042.08,0.084,0.04,0.126a1.055,1.055,0,0,1-.17.336A0.769,0.769,0,0,1,1246.45,377.8Zm8.61,8.734a0.142,0.142,0,0,1-.08-0.126,3.033,3.033,0,0,1,.33-0.839,0.262,0.262,0,0,0,.04-0.168,0.053,0.053,0,0,1,.09-0.042,0.149,0.149,0,0,0-.04.084,0.249,0.249,0,0,1-.09.126,2.241,2.241,0,0,1-.12.881A0.548,0.548,0,0,1,1255.06,386.533Zm-10.12-11.673a0.339,0.339,0,0,1,.17-0.168,0.3,0.3,0,0,1,.17-0.168c0.04-.042.08-0.126,0.12-0.168a0.3,0.3,0,0,0,.17-0.168c0.04-.042.13-0.084,0.17-0.126a0.638,0.638,0,0,1,.17-0.168h0a0.638,0.638,0,0,0-.17.168,0.5,0.5,0,0,1-.17.126,0.3,0.3,0,0,1-.17.168,0.578,0.578,0,0,1-.12.168,0.542,0.542,0,0,0-.17.168A0.638,0.638,0,0,0,1244.94,374.86Zm36.38,28.847a0.151,0.151,0,0,0,.17-0.126c0-.042,0-0.125-0.05-0.125a3.271,3.271,0,0,0-1-.672c-1.22-.546-2.44-1.134-3.7-1.68-2.6-1.092-5.21-2.1-7.85-3.065-1.26-.462-2.52-0.84-3.78-1.26-0.34-.126-0.67-0.252-0.97-0.378a0.179,0.179,0,0,1-.12-0.21,0.769,0.769,0,0,1,.21-0.126,3.024,3.024,0,0,1,1.05.294c3.32,1.218,6.67,2.394,9.95,3.737a62.142,62.142,0,0,1,6,2.562c0.13,0.042.26,0.084,0.38,0.126a1.172,1.172,0,0,0,1.3-.336,0.4,0.4,0,0,0-.04-0.63c-0.21-.126-0.42-0.294-0.63-0.42-1.43-.84-2.9-1.47-4.36-2.183a2.855,2.855,0,0,1-.89-0.546,1.932,1.932,0,0,1-.88-0.379,1.234,1.234,0,0,1,.88.379,1.923,1.923,0,0,1,.84.252c0.97,0.462,1.93.881,2.9,1.343,0.67,0.294,1.3.714,2.02,0.966-0.17-.126-0.3-0.294-0.47-0.42-0.58-.336-1.17-0.714-1.8-1.008-1.39-.671-2.81-1.344-4.24-2.015a4.8,4.8,0,0,1-1.3-.714,4.731,4.731,0,0,1-.84-0.21c-0.63-.252-1.26-0.462-1.85-0.756-1.14-.5-2.27-0.923-3.4-1.344a1.575,1.575,0,0,1-.59-0.294v-0.126a0.054,0.054,0,0,1,.08,0c0.55,0.168,1.1.378,1.64,0.588a7.737,7.737,0,0,1,.88.337c1.05,0.419,2.14.839,3.19,1.3a3.775,3.775,0,0,1,.89.5,3.415,3.415,0,0,1,1.42.378c0.55,0.252,1.05.462,1.56,0.713,1.63,0.8,3.31,1.512,4.91,2.478,0.08,0.042.17,0.126,0.25,0.168a0.3,0.3,0,0,0,.42-0.252,1.539,1.539,0,0,0-.67-1.511,4.625,4.625,0,0,0-1.26-.673,3.771,3.771,0,0,1-1.3-.629,5.188,5.188,0,0,0-1.22-.714c-0.96-.462-1.97-0.84-2.94-1.26-0.12-.084-0.29-0.126-0.42-0.21a11.656,11.656,0,0,0-3.36-1.595c-0.63-.252-1.17-0.546-1.76-0.8a0.55,0.55,0,0,1-.34-0.5,0.713,0.713,0,0,1,.38-0.588c0.13-.042.29-0.084,0.42-0.126a4.169,4.169,0,0,0,1.68-1.092,1.318,1.318,0,0,1,.67-0.5,5.434,5.434,0,0,0,1.85-1.217,6.977,6.977,0,0,1,1.05-.882,1.68,1.68,0,0,0,.42-0.336,1.208,1.208,0,0,1,.42-0.378,3.686,3.686,0,0,0,1.09-.924,9.3,9.3,0,0,1,.72-0.714,8.218,8.218,0,0,0,1.38-1.763,2.224,2.224,0,0,0,.29-0.756,12.82,12.82,0,0,0,.38-2.6,29.1,29.1,0,0,0-.12-3.232,6.575,6.575,0,0,0-.97-2.772,5.72,5.72,0,0,0-2.73-2.268,5.53,5.53,0,0,0-.8-0.293,13.978,13.978,0,0,0-5.08-1.008c-0.75,0-1.55.084-2.31,0.042a10.705,10.705,0,0,0-2.6.168,3.242,3.242,0,0,1-.63.084,12.194,12.194,0,0,0-2.52.42,29.218,29.218,0,0,0-5.58,1.973,6.049,6.049,0,0,0-.76.42,1.264,1.264,0,0,0-.67,1.26,0.926,0.926,0,0,1-.13.672c-0.21.5-.08,0.713,0.51,0.8a0.7,0.7,0,0,0,.29.042,0.49,0.49,0,0,1,.34.126c-0.26.042-.47,0.084-0.68,0.126a0.221,0.221,0,0,0-.16.253,0.5,0.5,0,0,0,.25.167,2.812,2.812,0,0,0,1.01-.126c1-.252,1.97-0.5,2.94-0.756a19.106,19.106,0,0,1,3.44-.713,6.175,6.175,0,0,1,.88-0.042,0.142,0.142,0,0,1,.08.126,0.088,0.088,0,0,1-.08.084c-0.34.083-.67,0.125-1.13,0.251,0.42,0.042.67,0.042,0.96,0.084a0.223,0.223,0,0,1,.13.378c-0.34.63-.67,1.218-1.05,1.848-0.09.21-.21,0.42-0.3,0.672a12.938,12.938,0,0,1-1,2.142c-0.42.839-.89,1.637-1.26,2.519-0.3.63-.59,1.3-0.93,1.931-0.42.924-.84,1.848-1.21,2.772a5.7,5.7,0,0,1-1.52,2.687,0.538,0.538,0,0,0-.16.252,0.983,0.983,0,0,0-.26.8,2.382,2.382,0,0,1-.25,1.553,13.446,13.446,0,0,0-.71,2.478,3.044,3.044,0,0,0,.08,1.637,0.773,0.773,0,0,0,.93.673v0a3.768,3.768,0,0,0,.33,1.511,1.248,1.248,0,0,0,.51.63,1.058,1.058,0,0,0,.63-0.084,0.143,0.143,0,0,1,.21.126,0.557,0.557,0,0,1,.04.252,0.314,0.314,0,0,0,.46.252,1.422,1.422,0,0,0,.63-0.378,0.587,0.587,0,0,1,.55-0.21c0.33,0.084.42-.126,0.46-0.378,0.25-1.008.79-1.847,1.05-2.855a0.568,0.568,0,0,1,.79-0.42,8.258,8.258,0,0,1,.93.336c1.09,0.377,2.18.756,3.27,1.176,1.68,0.587,3.4,1.133,5.08,1.763,1.39,0.5,2.78,1.05,4.16,1.6a15.07,15.07,0,0,0,1.93.672,3.526,3.526,0,0,0-.88-0.5c-1.72-.672-3.4-1.386-5.12-2.016-2.48-.882-5-1.721-7.48-2.6-0.54-.21-1.13-0.462-1.68-0.714a0.107,0.107,0,0,1-.08-0.168,0.14,0.14,0,0,1,.17-0.042l0.5,0.126c1.26,0.42,2.52.882,3.78,1.3,2.52,0.925,5,1.806,7.48,2.772,1.72,0.714,3.48,1.344,5.16,2.142A6.017,6.017,0,0,0,1281.32,403.707Zm-20.03-4.66a0.159,0.159,0,0,0,.04-0.126h0.09c0,0.042-.05.084-0.05,0.126h-0.08Zm10.45-2.6h0Zm7.02,6.677c-0.17-.042-0.3-0.084-0.46-0.126h-0.05Zm1.26,0.671a2.5,2.5,0,0,0-1.26-.671A3.3,3.3,0,0,0,1280.02,403.791Zm0.12,0.042a0.143,0.143,0,0,0-.12-0.042h0.08A0.04,0.04,0,0,0,1280.14,403.833Zm-14.23-14.99a0.262,0.262,0,0,1-.04-0.168,1.619,1.619,0,0,1,.63-0.714c0.04-.126.08-0.294,0.12-0.462a1.729,1.729,0,0,1-.17.462,1.072,1.072,0,0,1-.42.84A0.143,0.143,0,0,0,1265.91,388.843Zm17.17,12.555v-0.042c-0.12-.042-0.21-0.084-0.33-0.126A1.226,1.226,0,0,1,1283.08,401.4Zm-23.13-23.977h0Zm0,0h0Zm7.76,7.811v-0.084a0.5,0.5,0,0,1,.34-0.462c0-.042.04-0.042,0.04,0,0.04,0,.04,0,0.04.042a0.631,0.631,0,0,1-.29.5C1267.84,385.274,1267.76,385.232,1267.71,385.232Zm-6.38-8.189h0Zm-3.82-1.679h0.04a2.774,2.774,0,0,1,1.26-.5,0.869,0.869,0,0,1,.46-0.126,0.823,0.823,0,0,1,.51-0.168c0.17-.042.29-0.126,0.46-0.168a1.494,1.494,0,0,0,.34-0.21,0.569,0.569,0,0,1,.37-0.042c0.13,0.042-.08.168-0.33,0.21a1.175,1.175,0,0,1-.38.042,1.419,1.419,0,0,0-.46.168,2.416,2.416,0,0,1-.51.168,0.821,0.821,0,0,1-.46.126A2.926,2.926,0,0,1,1257.51,375.364Zm4.79,1.511h0.04c0.04-.042.08-0.042,0.12-0.084h-0.12C1262.25,376.833,1262.25,376.833,1262.3,376.875Zm0.16-.084h0.26c0.04-.042.08-0.042,0.12-0.084h-0.17A0.3,0.3,0,0,1,1262.46,376.791Zm-1.72-.629a0.088,0.088,0,0,1-.08-0.084c-0.04-.042.04-0.084,0.04-0.126a0.1,0.1,0,0,0,.09-0.042,25.252,25.252,0,0,1,4.4-.756h0.13c0.42-.042.63,0.042,0.55,0.126a0.436,0.436,0,0,1-.47.21,1.4,1.4,0,0,1-.42.042,15.353,15.353,0,0,0-3.36.588A1.569,1.569,0,0,1,1260.74,376.162Zm6.05,12.387c-0.17-.084-0.13-0.21-0.08-0.336a4.145,4.145,0,0,1,.37-0.882,2.585,2.585,0,0,0,.34-0.966c-0.08.042-.21,0.126-0.29,0.168a0.3,0.3,0,0,0-.17.168,0.542,0.542,0,0,1,.17-0.168c0.04-.126.04-0.252,0.08-0.378a0.445,0.445,0,0,1,.17-0.126c0.08,0,.08.126,0.08,0.21a0.159,0.159,0,0,0-.04.126,1.7,1.7,0,0,0,.34-0.42c0.54-.965,1.09-1.931,1.63-2.9a0.456,0.456,0,0,0,.05-0.588,0.3,0.3,0,0,1,.04-0.378,3.671,3.671,0,0,1,.42-0.5,1.016,1.016,0,0,0,.37-0.967,0.22,0.22,0,0,1,.05-0.167,9.816,9.816,0,0,1,.71-1.554,2.489,2.489,0,0,0,.34-1.05c0.04-.251.04-0.293-0.3-0.42-0.12-.042-0.21-0.084-0.17-0.21a0.2,0.2,0,0,1,.21-0.21c0.42-.042.84-0.042,1.26-0.042h0a1.218,1.218,0,0,1,.51-0.168,0.375,0.375,0,0,1,.38.252,0.5,0.5,0,0,0,.5.294,2.727,2.727,0,0,1,.84.084h0c0.71,0.5,1.55.8,2.23,1.386,0.08,0.042.12,0.084,0.21,0.126,0.88,0.756.71,0.84,0.12,1.554a16.21,16.21,0,0,1-2.22,2.225c-0.97.84-1.94,1.6-2.9,2.394-1.05.839-2.14,1.6-3.23,2.309a10.961,10.961,0,0,0-1.39.924c-0.08.084-.17,0.126-0.25,0.21A0.406,0.406,0,0,1,1266.79,388.549Zm-0.67-15.033c-0.04-.042,0-0.042.04-0.042a0.258,0.258,0,0,1,.17-0.042,1.292,1.292,0,0,1,.88-0.168,0.267,0.267,0,0,1,.13.084,0.206,0.206,0,0,1-.09.084,1.86,1.86,0,0,1-.46.042c-0.17,0-.34-0.042-0.46-0.042a0.666,0.666,0,0,1-.17.084h-0.04Zm6.34,3.485c0-.042-0.04-0.042-0.09-0.042h0C1272.42,376.959,1272.46,376.959,1272.46,377Zm2.56-3.4c-1.72-.21-3.44-0.546-5.21-0.588s-3.48-.084-5.25.042a11.887,11.887,0,0,1,2.4-.378,23.032,23.032,0,0,1,6.13.252A4.637,4.637,0,0,1,1275.02,373.6Zm-0.55,2.772a1.6,1.6,0,0,1-.46-0.042c-0.75-.168-1.47-0.336-2.18-0.462-0.17-.042-0.34-0.126-0.51-0.168a0.193,0.193,0,0,1-.16-0.252,0.219,0.219,0,0,1,.25-0.126c0.04-.042.04,0,0.17,0a11.179,11.179,0,0,1,2.94.84c0.04,0.042.08,0.126,0.04,0.126C1274.56,376.33,1274.52,376.413,1274.47,376.372Zm0.13,1.091v-0.042h0v0.042Zm-0.5-3.485a0.085,0.085,0,0,1-.09-0.042h-0.04a9.158,9.158,0,0,1-1.51-.126c-0.97-.126-1.93-0.21-2.9-0.336a0.587,0.587,0,0,1-.38-0.084c0.05-.168.17-0.126,0.26-0.126a12.742,12.742,0,0,1,4.36.588,0.21,0.21,0,0,1,.17.084A0.173,0.173,0,0,1,1274.1,373.978Zm9.53,25.992a2.008,2.008,0,0,0,1.05-.587,0.98,0.98,0,0,1,.75-0.336,12.428,12.428,0,0,0,3.99-1.05,29.547,29.547,0,0,0,2.86-1.428,15.588,15.588,0,0,0,2.39-1.6c0.72-.546,1.43-1.049,2.19-1.553a8.759,8.759,0,0,0,.71-0.588,1.6,1.6,0,0,0,.42-0.63,1.557,1.557,0,0,0-.38.252,27.632,27.632,0,0,1-3.15,2.393,28.429,28.429,0,0,1-4.83,2.772,14.718,14.718,0,0,1-2.68.966,3.166,3.166,0,0,1-.68.126c-0.04-.21.13-0.21,0.26-0.253a26.378,26.378,0,0,0,6.13-2.855,16.555,16.555,0,0,0,2.64-1.805,4.078,4.078,0,0,1,.67-0.5,16.467,16.467,0,0,0,1.52-1.05,0.468,0.468,0,0,1,.29-0.168c0.08-.042.13,0.084,0.17,0.126a1.928,1.928,0,0,0,1.01-1.26,3.238,3.238,0,0,1,.21-0.462,1.634,1.634,0,0,0,.29-0.5,5.883,5.883,0,0,0,.46-2.393,13.29,13.29,0,0,0-.29-3.107,15.958,15.958,0,0,0-.72-2.6,14.107,14.107,0,0,0-1.97-4.073,9.193,9.193,0,0,0-2.44-2.351,4.121,4.121,0,0,0-1.88-.714,10.8,10.8,0,0,0-3.49.042,0.318,0.318,0,0,1-.21.042,7.92,7.92,0,0,0-2.23.546,1.263,1.263,0,0,0-.71.5,0.334,0.334,0,0,0,.38.545,26.215,26.215,0,0,1,2.6-.461,11.335,11.335,0,0,1,3.36.126,0.585,0.585,0,0,1,.38.21,0.36,0.36,0,0,1-.29.042,28.485,28.485,0,0,0-3.28,0,6.5,6.5,0,0,0-2.44.419c0.42-.084.89-0.126,1.31-0.168,0.63-.084,1.26-0.126,1.89-0.168a3.051,3.051,0,0,1,1.21.084,0.153,0.153,0,0,1,.17.168,0.39,0.39,0,0,1-.12.042,6.893,6.893,0,0,1-.93.042,19.408,19.408,0,0,0-3.53.294c-0.16.042-.29,0.042-0.42,0.084a0.3,0.3,0,0,0-.21.336,0.466,0.466,0,0,0,.26.42,1.445,1.445,0,0,0,.37.168c0.13,0.042.21,0.084,0.17,0.21a5,5,0,0,1-.25,1.176,28.545,28.545,0,0,0-1.39,3.107c-0.2.462-.33,0.924-0.5,1.428-0.5,1.3-1.01,2.561-1.47,3.905-0.42,1.512-.92,2.981-1.38,4.451-0.17.63-.34,0.672-0.89,0.252-0.04-.042-0.08-0.042-0.12-0.084-0.46-.21-0.76-0.084-0.8.378a3.921,3.921,0,0,0,.25,1.343c0.21,0.8.51,1.638,0.72,2.436a2.1,2.1,0,0,0,.33.714,2.393,2.393,0,0,1,.72,1.26,1.279,1.279,0,0,0,.08.378,0.631,0.631,0,0,0,.59.419,0.414,0.414,0,0,1,.46.378A0.305,0.305,0,0,0,1283.63,399.97Zm1.85-1.091v-0.042l0.04,0.042h-0.04Zm0.96-3.444c-0.04.042-.08,0-0.08-0.084l0.04-.042c0.08,0,.17-0.041.25-0.041,0.09-.042.13-0.126,0.21-0.168h0.13a0.247,0.247,0,0,1-.09.126c-0.08,0-.16.042-0.25,0.042A0.787,0.787,0,0,1,1286.44,395.435Zm-0.75,2.52a0.629,0.629,0,0,1-.26-0.084,0.186,0.186,0,0,1,.09-0.252,1.419,1.419,0,0,1,.46-0.168,7.21,7.21,0,0,1,.88-0.294,19.282,19.282,0,0,0,4.2-1.931,1.1,1.1,0,0,1,.72-0.126c0.08-.042.16-0.127,0.25-0.169-0.09.042-.17,0.127-0.25,0.169a5.818,5.818,0,0,1-1.35.923c-0.88.462-1.85,0.924-2.73,1.344a8.053,8.053,0,0,1-1.72.546A0.7,0.7,0,0,1,1285.69,397.955Zm1.09-3.318a0.135,0.135,0,0,0-.09-0.042c-0.08-.042-0.08-0.126,0-0.126a1.29,1.29,0,0,1,.21-0.126,0.548,0.548,0,0,1,.13.084,0.149,0.149,0,0,0-.04.084C1286.9,394.553,1286.86,394.6,1286.78,394.637Zm0.25-2.729h0Zm3.02,1.26a0.121,0.121,0,0,1-.08-0.042c-0.04,0,0-.042,0-0.042a0.989,0.989,0,0,1,.42-0.21,1.279,1.279,0,0,1,.34-0.168,0.811,0.811,0,0,0-.34.168A0.717,0.717,0,0,1,1290.05,393.168Zm-1.59-4.283a0.331,0.331,0,0,1-.04-0.168A0.331,0.331,0,0,0,1288.46,388.885Zm3.06,3.191h0.05a1.063,1.063,0,0,1,.79-0.672A1.14,1.14,0,0,1,1291.52,392.076Zm-3.65-.378a0.258,0.258,0,0,1-.29-0.294,17.073,17.073,0,0,1,.54-1.679,3.294,3.294,0,0,0,.34-0.84h-0.17a0.173,0.173,0,0,1,.13-0.168,12.064,12.064,0,0,0,1.17-2.6c0.25-.8.59-1.511,0.76-2.267a5.969,5.969,0,0,0,.38-1.386,0.57,0.57,0,0,0-.09-0.462,2.98,2.98,0,0,1-.42-1.511c-0.04-.21-0.08-0.462-0.12-0.714-0.05-.378.08-0.546,0.46-0.5,0.21,0,.42.042,0.63,0.042a1,1,0,0,0,.33.042,5.06,5.06,0,0,1,2.82.966,4.439,4.439,0,0,1,1.76,1.973,1.2,1.2,0,0,1,.08,1.008c-0.08.168-.16,0.378-0.25,0.588-0.42.714-.8,1.428-1.26,2.1a3.126,3.126,0,0,1-.46.63,12.572,12.572,0,0,0-1.22,1.344,5.552,5.552,0,0,1-1.51,1.47,7.461,7.461,0,0,0-.63.545,3.712,3.712,0,0,1-1.26.756,2.062,2.062,0,0,0-.88.588A1.89,1.89,0,0,1,1287.87,391.7Zm2.1-8.566h0Zm-3.7-6.3h0.05a2.708,2.708,0,0,0,.29-0.084h-0.29C1286.23,376.749,1286.23,376.791,1286.27,376.833Zm5.67,1.68a6.746,6.746,0,0,1-.92-0.042,8.212,8.212,0,0,1-1.05-.084c-0.17-.042-0.38,0-0.38-0.21s0.21-.168.38-0.168h0.34a8.08,8.08,0,0,1,1.63.252,1.57,1.57,0,0,1,.13.126C1292.11,378.471,1292.03,378.513,1291.94,378.513Z" transform="translate(-1009.59 -338.75)"/>
  <path id="Drums" class="cls-1" d="M1322.58,408.224a6.47,6.47,0,0,0,2.14-.328,12.94,12.94,0,0,1,3.93-.82,2.55,2.55,0,0,0,.99-0.41,40.115,40.115,0,0,1,6.06-3.526,2.852,2.852,0,0,1,1.4-.492,7.942,7.942,0,0,1,4.42-2.788h0a3.133,3.133,0,0,1,1.15-1.148c2.54-1.8,5-3.607,7.38-5.575a82.818,82.818,0,0,0,11.32-10.824,8.941,8.941,0,0,0,1.23-1.8,4,4,0,0,1,.9-1.393,2.116,2.116,0,0,0,1.07-2.05,2.364,2.364,0,0,1,.49-0.9,4.876,4.876,0,0,0,.74-2.05,3.49,3.49,0,0,1,.49-1.8,2.963,2.963,0,0,0,.24-0.9,26.89,26.89,0,0,0,.17-4.51,3.706,3.706,0,0,1-.17-1.312,17.748,17.748,0,0,0-.41-3.608,51.646,51.646,0,0,0-4.67-13.775,16.613,16.613,0,0,0-3.94-5.247,13.966,13.966,0,0,0-7.21-3.772,20.511,20.511,0,0,0-5.5-.41,3.921,3.921,0,0,1-.98.082,11.935,11.935,0,0,0-5,1.066,6.154,6.154,0,0,1-1.31.328,23.369,23.369,0,0,0-6.64,2.624,3.933,3.933,0,0,0-1.23,1.148,1.812,1.812,0,0,0-.33,1.8,2.543,2.543,0,0,1,0,1.721,1,1,0,0,0,.33,1.149c0.49,0.328,1.23.409,1.47,1.065a0.758,0.758,0,0,0,.58.246h1.06a0.988,0.988,0,0,1,.9,1.558,8.069,8.069,0,0,1-1.64,2.788,8.1,8.1,0,0,0-1.23,1.968,71.932,71.932,0,0,0-4.26,9.183c-1.23,3.28-2.87,6.4-4.43,9.594-0.9,1.8-2.05,3.608-2.95,5.493-0.82,1.8-1.72,3.526-2.62,5.248-0.66,1.148-1.23,2.3-1.89,3.444a3.026,3.026,0,0,0-.25,2.214c0.17,0.738.58,0.9,1.07,0.492,0.41-.329.82-0.738,1.23-1.066,0.08,0,.25,0,0.25.082,0.08,0,.08.164,0,0.246a13.8,13.8,0,0,0-.91,1.394c-0.08.164-.16,0.328,0,0.41,0,0.082.17,0,.25,0,0.49-.41.9-0.738,1.31-1.066,0.17-.082.33-0.164,0.41,0a0.254,0.254,0,0,1,0,.328,15.989,15.989,0,0,0-1.06,1.312,1.33,1.33,0,0,0,0,1.968,4.883,4.883,0,0,1,.65.656,0.666,0.666,0,0,1-.24,1.147c-0.41.164-.82,0.247-1.23,0.411a13.773,13.773,0,0,0-1.64.328,1.442,1.442,0,0,0-1.07,2.049,2.2,2.2,0,0,0,.74.984,3.625,3.625,0,0,1,.98,1.722,5.577,5.577,0,0,0,3.69,3.936c0.49,0.246.99,0.492,1.48,0.738A4.622,4.622,0,0,0,1322.58,408.224Zm9.19-2.05,0.08-.082Zm-11.81-9.839a0.329,0.329,0,0,1-.33-0.165,0.254,0.254,0,0,1,0-.328c0.17-.164.33-0.409,0.49-0.573,0.82-.657,1.73-1.394,2.55-2.05a2.475,2.475,0,0,0,.41-0.164c0.08,0,.16,0,0.16.082s0.08,0.164.08,0.246A7.361,7.361,0,0,1,1319.96,396.335Zm13.69,8.855a1.108,1.108,0,0,0,.33-0.164,0.08,0.08,0,0,1,.08-0.082C1333.9,405.026,1333.82,405.108,1333.65,405.19Zm0,0h0Zm1.56-.984a5.886,5.886,0,0,0,.66-0.246C1335.62,404.042,1335.46,404.124,1335.21,404.206Zm0,0h0Zm0.66-.246h0a1.222,1.222,0,0,1,.32-0.328A1.222,1.222,0,0,0,1335.87,403.96Zm-14.6-17.465a5.141,5.141,0,0,1,.41-0.984h0.08a0.159,0.159,0,0,1,.09.164A1.922,1.922,0,0,1,1321.27,386.5Zm5.66,5.576a0.382,0.382,0,0,1,0-.411,6.228,6.228,0,0,1,.57-0.983c0.66-.984,1.32-1.968,1.97-2.87a1.959,1.959,0,0,1,.58-0.574c0-.082.16-0.082,0.24-0.082a0.646,0.646,0,0,0,.08.246,4.885,4.885,0,0,1-.32.656,31.942,31.942,0,0,1-2.79,3.936C1327.18,392.071,1327.01,392.235,1326.93,392.071Zm9.26,11.561a3.128,3.128,0,0,0,1.73-.574c0.82-.492,1.55-0.984,2.37-1.476a8.478,8.478,0,0,1,1.81-1.148,19.077,19.077,0,0,0,2.95-2.05c0.08-.082.25-0.164,0.08-0.328,0-.081-0.16,0-0.24,0-0.66.41-1.4,0.821-1.97,1.23a3.323,3.323,0,0,1-1.4.574h0l-2.46,1.968a3.014,3.014,0,0,1-1.96.82h0.08Zm-9.42-3.772c-0.09.082-.17,0-0.25-0.082a0.3,0.3,0,0,1,.08-0.245,3.585,3.585,0,0,1,.58-0.328,120.982,120.982,0,0,0,15.16-10,7.583,7.583,0,0,1,1.89-1.23,2.929,2.929,0,0,1,1.31-.9,1.241,1.241,0,0,0,.33-0.328,1.042,1.042,0,0,1,.33-0.246h0a1.042,1.042,0,0,0-.33.246c-0.16.164-.25,0.246-0.33,0.328a2.386,2.386,0,0,1-1.23.984,3.185,3.185,0,0,1-1.15,1.23,76.478,76.478,0,0,1-14.26,9.675A8.391,8.391,0,0,1,1326.77,399.86Zm-3.53.082c-0.08,0-.16,0-0.16-0.082v-0.246c0.49-.328.9-0.574,1.31-0.82a112.331,112.331,0,0,0,10.08-5.9c3.12-2.132,6.07-4.346,8.94-6.724,0.82-.656,1.64-1.312,2.38-1.968a4.421,4.421,0,0,1,1.31-.82,11.383,11.383,0,0,1-1.31,1.476,83.452,83.452,0,0,1-17.47,12.873,38.512,38.512,0,0,1-4.18,2.05C1323.81,399.86,1323.49,399.86,1323.24,399.942Zm4.26,5c-0.16,0-.41,0-0.41-0.246a0.4,0.4,0,0,1,.17-0.41,1.708,1.708,0,0,1,.49-0.328,64.269,64.269,0,0,0,9.1-4.838,147.96,147.96,0,0,0,13.12-9.511c1.31-1.066,2.62-2.214,3.94-3.28a2.113,2.113,0,0,1,1.14-.738h0.17a0.288,0.288,0,0,1,.08.164,0.8,0.8,0,0,1-.25.328c-0.82.9-1.64,1.722-2.46,2.542a114.254,114.254,0,0,1-9.18,7.543c-0.82.574-1.72,1.149-2.54,1.722-2.63,1.722-5.17,3.362-7.87,4.838a27.083,27.083,0,0,1-4.43,1.968C1328.24,404.78,1327.91,404.862,1327.5,404.944Zm7.79-26.321c0.09,0.083.09,0.083,0.17,0,0-.081.08-0.163,0.08-0.245h0a0.307,0.307,0,0,1-.16.164Zm0.25-.245a6.74,6.74,0,0,0,1.56-3.116h0A5.893,5.893,0,0,0,1335.54,378.378Zm1.88-5a0.285,0.285,0,0,0,.09-0.246c0.08-.082.16-0.164,0.16-0.082a0.165,0.165,0,0,1-.08.164S1337.51,373.294,1337.42,373.376Zm9.35,23.7h0.08a1.6,1.6,0,0,0,.66-0.328c1.8-1.394,3.69-2.705,5.41-4.181a52.035,52.035,0,0,0,4.59-3.936,42.723,42.723,0,0,0,3.2-3.608,6.12,6.12,0,0,0,1.64-2.624,6.524,6.524,0,0,1-.74.82,36.3,36.3,0,0,1-4.83,5.248,68.7,68.7,0,0,1-5.83,5.084c-1.23.9-2.46,1.8-3.6,2.706a1.268,1.268,0,0,0-.66.655A0.255,0.255,0,0,0,1346.77,397.072Zm-7.13-26.812a4.08,4.08,0,0,1,.33-0.656,2.247,2.247,0,0,0-.33.656h0Zm0.24-.656h0Zm-10.49,21.565a0.5,0.5,0,0,1-.08-0.328,4.731,4.731,0,0,1,.9-1.968,11.541,11.541,0,0,0,1.64-3.69,2.9,2.9,0,0,1-.66.41c-0.08.082-.24,0.082-0.24,0a0.512,0.512,0,0,1,.24-0.656c0.17-.164.33-0.246,0.5,0,0.08,0.082.08,0.164,0.16,0.246a16.257,16.257,0,0,0,1.72-2.87,0.267,0.267,0,0,0,0-.246,0.674,0.674,0,0,0-.49.328,1.093,1.093,0,0,1-.9.656,1.292,1.292,0,0,1,.33-0.984,4.716,4.716,0,0,1,.65-1.065,10.292,10.292,0,0,0,1.15-2.051,19.3,19.3,0,0,1,1.47-2.869,1.936,1.936,0,0,1,.82-0.984,0.435,0.435,0,0,1,.5.164h0a10.651,10.651,0,0,0,1.72-2.952,21.888,21.888,0,0,0,.82-2.05c-0.33.082-.58,0.082-0.49-0.328a3.9,3.9,0,0,1,1.06-1.886,1.527,1.527,0,0,0,.41-1.148,3.02,3.02,0,0,1,.49-1.64,13.607,13.607,0,0,0,.91-4.017,0.784,0.784,0,0,0-.58-0.984,0.637,0.637,0,0,1-.49-0.738,15,15,0,0,0-.16-1.886,5.091,5.091,0,0,0-.5-1.8,3.137,3.137,0,0,0-1.31-1.64,2.189,2.189,0,0,1-1.31-1.476,2.8,2.8,0,0,0-1.15-1.558,0.531,0.531,0,0,1,.25-0.984c1.15-.164,2.21-0.738,3.44-0.492a8.369,8.369,0,0,0,2.46-.246,3.387,3.387,0,0,1,1.81,0c1.47,0.246,2.87.492,4.34,0.738a15.694,15.694,0,0,1,5.41,2.214,8.472,8.472,0,0,1,2.96,3.2,3.4,3.4,0,0,1,.41,2.214,39.846,39.846,0,0,1-1.15,5.165,53.247,53.247,0,0,1-3.53,7.216,5.688,5.688,0,0,1-1.39,1.722c-0.66.82-1.31,1.64-1.89,2.46a2.974,2.974,0,0,1-.74.983c-1.8,1.477-3.11,3.445-5,4.838a13.717,13.717,0,0,0-3.03,2.707c-0.33.327-.82,0.655-1.23,0.983-1.72,1.394-3.45,2.87-5.17,4.182-1.55,1.148-3.11,2.05-4.67,3.116A0.366,0.366,0,0,1,1329.39,391.169Zm23.45-12.463-0.08-.083a3.041,3.041,0,0,1,.9-0.9,1.256,1.256,0,0,0,.33-0.328h0c-0.17.164-.25,0.245-0.33,0.328a2.055,2.055,0,0,1-.66.984C1352.92,378.788,1352.84,378.788,1352.84,378.706Zm9.51,3.689a0.616,0.616,0,0,0,.33-0.328h0a0.616,0.616,0,0,1-.33.328h0Zm0.33-.328a2.1,2.1,0,0,0,.33-0.574h0c-0.08.165-.25,0.41-0.33,0.574h0Zm0.33-.574h0c0.08-.082.08-0.163,0.16-0.246v-0.164A0.874,0.874,0,0,1,1363.01,381.493Zm-26.49-31.732c-0.16,0-.16-0.164,0-0.246h0.25v0.164C1336.69,349.679,1336.6,349.761,1336.52,349.761Zm-4.01-.574a0.6,0.6,0,0,1-.33-0.082,0.183,0.183,0,0,1-.17-0.164,0.156,0.156,0,0,1,.09-0.245,1.548,1.548,0,0,1,.49-0.328,58.138,58.138,0,0,1,9.84-1.395,2.321,2.321,0,0,1,.73.165,0.082,0.082,0,0,1,.09.081v0.164c-0.09.083-.17,0.083-0.25,0.164a5.577,5.577,0,0,1-1.07.164c-3.03.328-5.98,0.82-8.93,1.394A1.012,1.012,0,0,0,1332.51,349.187Zm-0.17-3.2c-0.08,0-.08-0.081-0.16-0.081-0.08-.082,0-0.164.08-0.247a5.177,5.177,0,0,1,.98-0.409,37.189,37.189,0,0,1,7.22-1.805,4.085,4.085,0,0,1,1.72.083,2.44,2.44,0,0,1-1.23.41c-2.71.491-5.33,1.148-8.03,1.886C1332.75,345.908,1332.51,345.908,1332.34,345.989Zm-0.24-.9c-0.09,0-.25,0-0.25-0.083-0.08-.164,0-0.245.16-0.327a2.447,2.447,0,0,1,.66-0.328,37.638,37.638,0,0,1,10.41-2.378,1.453,1.453,0,0,1,.49-0.082h0.33c0.58,0.082.99,0.246,0.82,0.41a0.944,0.944,0,0,1-.82.328,45.243,45.243,0,0,0-10.9,2.3C1332.67,345.005,1332.42,345.005,1332.1,345.088Zm84.4,61.66a0.285,0.285,0,0,0,.33-0.246c0-.082,0-0.246-0.08-0.246a6.3,6.3,0,0,0-1.97-1.312c-2.38-1.066-4.75-2.214-7.21-3.28-5.09-2.131-10.17-4.1-15.34-5.986-2.46-.9-4.92-1.639-7.38-2.459-0.65-.246-1.31-0.492-1.88-0.738a0.346,0.346,0,0,1-.25-0.41,1.838,1.838,0,0,1,.41-0.246,5.833,5.833,0,0,1,2.05.574c6.48,2.378,13.04,4.673,19.43,7.3a122.213,122.213,0,0,1,11.73,5c0.25,0.082.49,0.164,0.74,0.246a2.305,2.305,0,0,0,2.54-.656,0.772,0.772,0,0,0-.08-1.23c-0.41-.246-0.82-0.574-1.23-0.82-2.79-1.64-5.66-2.87-8.53-4.263a5.48,5.48,0,0,1-1.72-1.067,3.715,3.715,0,0,1-1.72-.738,2.421,2.421,0,0,1,1.72.738,3.827,3.827,0,0,1,1.64.492c1.88,0.9,3.77,1.722,5.66,2.624,1.31,0.574,2.54,1.394,3.93,1.886-0.33-.246-0.57-0.574-0.9-0.82-1.15-.656-2.3-1.394-3.53-1.968-2.7-1.311-5.49-2.624-8.28-3.935a8.957,8.957,0,0,0-4.18-1.8c-1.23-.492-2.46-0.9-3.61-1.476-2.21-.984-4.43-1.8-6.64-2.624a3.052,3.052,0,0,1-1.15-.574v-0.246a0.122,0.122,0,0,1,.17,0c1.06,0.328,2.13.738,3.19,1.148a14.9,14.9,0,0,1,1.73.656c2.05,0.82,4.18,1.64,6.23,2.542a7.223,7.223,0,0,1,1.72.984,6.738,6.738,0,0,1,2.79.738c1.06,0.492,2.05.9,3.03,1.394,3.2,1.557,6.48,2.952,9.6,4.837,0.16,0.082.32,0.246,0.49,0.328a0.585,0.585,0,0,0,.82-0.492,3.031,3.031,0,0,0-1.31-2.951,8.89,8.89,0,0,0-2.46-1.312,7.322,7.322,0,0,1-2.55-1.23,9.827,9.827,0,0,0-2.37-1.394c-1.89-.9-3.86-1.64-5.74-2.46-0.25-.164-0.58-0.246-0.82-0.41a22.986,22.986,0,0,0-6.56-3.116c-1.23-.492-2.3-1.066-3.45-1.558a1.06,1.06,0,0,1-.65-0.984,1.38,1.38,0,0,1,.73-1.148c0.25-.082.58-0.164,0.82-0.246a8.08,8.08,0,0,0,3.28-2.131,2.534,2.534,0,0,1,1.32-.984,10.588,10.588,0,0,0,3.6-2.379,14.026,14.026,0,0,1,2.05-1.721,3.1,3.1,0,0,0,.82-0.656,2.422,2.422,0,0,1,.82-0.738,7.441,7.441,0,0,0,2.14-1.8c0.49-.492.9-0.984,1.39-1.394a15.636,15.636,0,0,0,2.71-3.444,4.7,4.7,0,0,0,.57-1.476,25.173,25.173,0,0,0,.74-5.084,53.319,53.319,0,0,0-.25-6.313,12.567,12.567,0,0,0-1.88-5.412,11.289,11.289,0,0,0-5.33-4.427,12.541,12.541,0,0,0-1.56-.574,27.44,27.44,0,0,0-9.92-1.968c-1.48,0-3.04.163-4.51,0.082a21.008,21.008,0,0,0-5.09.328,6.407,6.407,0,0,1-1.23.164,23.765,23.765,0,0,0-4.92.82,57.328,57.328,0,0,0-10.9,3.853,13.478,13.478,0,0,0-1.48.82,2.494,2.494,0,0,0-1.31,2.46,1.815,1.815,0,0,1-.25,1.312c-0.41.984-.16,1.394,0.99,1.558a1.377,1.377,0,0,0,.57.082,0.944,0.944,0,0,1,.66.246c-0.49.082-.9,0.164-1.31,0.246a0.447,0.447,0,0,0-.33.492,1.049,1.049,0,0,0,.49.328,5.427,5.427,0,0,0,1.97-.246c1.97-.492,3.85-0.984,5.74-1.476a37.666,37.666,0,0,1,6.72-1.394,12.152,12.152,0,0,1,1.72-.082,0.269,0.269,0,0,1,.17.246,0.176,0.176,0,0,1-.17.164c-0.65.164-1.31,0.246-2.21,0.492,0.82,0.082,1.31.082,1.89,0.164a0.43,0.43,0,0,1,.24.738c-0.65,1.23-1.31,2.378-2.05,3.608-0.16.41-.41,0.82-0.57,1.312a24.116,24.116,0,0,1-1.97,4.182c-0.82,1.639-1.72,3.2-2.46,4.919-0.57,1.23-1.15,2.542-1.8,3.772-0.82,1.8-1.64,3.608-2.38,5.412-0.74,1.886-1.23,3.853-2.95,5.247a0.994,0.994,0,0,0-.33.492,1.865,1.865,0,0,0-.49,1.558,4.749,4.749,0,0,1-.5,3.034,25.641,25.641,0,0,0-1.39,4.838,6.11,6.11,0,0,0,.16,3.2c0.33,1.066.58,1.229,1.81,1.311v0a7.364,7.364,0,0,0,.65,2.952,2.5,2.5,0,0,0,.99,1.23c0.49,0.246.82-.164,1.23-0.164a0.278,0.278,0,0,1,.41.246,1.065,1.065,0,0,1,.08.492,0.615,0.615,0,0,0,.9.492,2.765,2.765,0,0,0,1.23-.738,1.139,1.139,0,0,1,1.07-.41c0.65,0.164.82-.246,0.9-0.738,0.49-1.968,1.56-3.607,2.05-5.576a1.12,1.12,0,0,1,1.56-.819,15.7,15.7,0,0,1,1.8.656c2.13,0.738,4.27,1.476,6.4,2.3,3.28,1.148,6.64,2.214,9.92,3.444,2.7,0.984,5.41,2.05,8.12,3.116a29.349,29.349,0,0,0,3.77,1.312,7.223,7.223,0,0,0-1.72-.984c-3.37-1.312-6.65-2.706-10.01-3.936-4.84-1.722-9.75-3.362-14.59-5.084-1.07-.41-2.22-0.9-3.28-1.394a0.208,0.208,0,0,1-.17-0.327,0.273,0.273,0,0,1,.33-0.082l0.99,0.246c2.46,0.819,4.92,1.721,7.38,2.542,4.91,1.8,9.75,3.525,14.59,5.411,3.36,1.394,6.81,2.624,10.09,4.182A11.4,11.4,0,0,0,1416.5,406.748Zm-39.11-9.1a0.309,0.309,0,0,0,.08-0.247h0.17c0,0.082-.08.164-0.08,0.247h-0.17Zm20.42-5.084h0ZM1411.5,405.6c-0.33-.082-0.57-0.164-0.9-0.246h-0.08Zm2.46,1.312a4.8,4.8,0,0,0-2.46-1.312A6.555,6.555,0,0,0,1413.96,406.912Zm0.25,0.082a0.309,0.309,0,0,0-.25-0.082h0.17A0.079,0.079,0,0,0,1414.21,406.994Zm-27.8-29.272a0.5,0.5,0,0,1-.08-0.328,3.361,3.361,0,0,1,1.23-1.394c0.08-.246.16-0.574,0.25-0.9a4.713,4.713,0,0,1-.33.9,2.143,2.143,0,0,1-.82,1.639A0.307,0.307,0,0,0,1386.41,377.722Zm33.54,24.516v-0.081c-0.25-.083-0.41-0.165-0.66-0.247A2.476,2.476,0,0,1,1419.95,402.238Zm-45.18-46.819h0Zm0,0h0Zm15.17,15.251v-0.164a0.954,0.954,0,0,1,.65-0.9c0-.082.09-0.082,0.09,0,0.08,0,.08,0,0.08.082a1.252,1.252,0,0,1-.58.984C1390.18,370.752,1390.02,370.67,1389.94,370.67Zm-12.47-15.989h0Zm-7.46-3.28h0.08a5.4,5.4,0,0,1,2.46-.984,1.685,1.685,0,0,1,.91-0.246,1.546,1.546,0,0,1,.98-0.328c0.33-.082.57-0.246,0.9-0.328a2.9,2.9,0,0,0,.66-0.41,1.156,1.156,0,0,1,.74-0.081c0.24,0.081-.17.327-0.66,0.409a2.282,2.282,0,0,1-.74.082,2.944,2.944,0,0,0-.9.328,4.784,4.784,0,0,1-.98.328,1.685,1.685,0,0,1-.91.246A5.657,5.657,0,0,1,1370.01,351.4Zm9.35,2.952h0.08c0.08-.082.17-0.082,0.25-0.164h-0.25C1379.28,354.271,1379.28,354.271,1379.36,354.353Zm0.33-.164h0.49c0.08-.082.16-0.082,0.25-0.164h-0.33A0.631,0.631,0,0,1,1379.69,354.189Zm-3.36-1.23a0.176,0.176,0,0,1-.17-0.164c-0.08-.082.08-0.164,0.08-0.246a0.165,0.165,0,0,0,.17-0.082,49.779,49.779,0,0,1,8.61-1.476h0.24c0.82-.082,1.23.082,1.07,0.246a0.818,0.818,0,0,1-.9.41,2.823,2.823,0,0,1-.82.082,29.653,29.653,0,0,0-6.56,1.148A3.082,3.082,0,0,1,1376.33,352.959Zm11.8,24.189a0.449,0.449,0,0,1-.16-0.656,7.5,7.5,0,0,1,.74-1.722,5.092,5.092,0,0,0,.65-1.886c-0.16.082-.41,0.246-0.57,0.328a0.651,0.651,0,0,0-.33.328,1.28,1.28,0,0,1,.33-0.328c0.08-.246.08-0.492,0.16-0.738a0.946,0.946,0,0,1,.33-0.246c0.17,0,.17.246,0.17,0.41a0.285,0.285,0,0,0-.09.246,3.062,3.062,0,0,0,.66-0.82c1.07-1.886,2.13-3.772,3.2-5.658a0.883,0.883,0,0,0,.08-1.148,0.621,0.621,0,0,1,.08-0.738,8.9,8.9,0,0,1,.82-0.984,2.021,2.021,0,0,0,.74-1.886,0.505,0.505,0,0,1,.08-0.328c0.57-.983.66-2.131,1.39-3.033a4.621,4.621,0,0,0,.66-2.05c0.08-.492.08-0.574-0.57-0.82-0.25-.082-0.41-0.164-0.33-0.41a0.385,0.385,0,0,1,.41-0.41c0.82-.082,1.64-0.082,2.46-0.082h0a2.315,2.315,0,0,1,.98-0.328,0.716,0.716,0,0,1,.74.492,0.986,0.986,0,0,0,.98.574,5.287,5.287,0,0,1,1.64.164h0c1.4,0.984,3.04,1.558,4.35,2.706,0.16,0.082.25,0.164,0.41,0.246,1.72,1.476,1.39,1.64.25,3.034a31.5,31.5,0,0,1-4.35,4.345c-1.89,1.64-3.77,3.116-5.66,4.674-2.05,1.64-4.18,3.116-6.31,4.51a22.534,22.534,0,0,0-2.71,1.8c-0.16.164-.32,0.246-0.49,0.41A0.788,0.788,0,0,1,1388.13,377.148Zm-1.31-29.355c-0.08-.082,0-0.082.08-0.082a0.517,0.517,0,0,1,.33-0.081,2.519,2.519,0,0,1,1.72-.328,0.409,0.409,0,0,1,.25.164,0.31,0.31,0,0,1-.16.164,3.775,3.775,0,0,1-.91.081c-0.32,0-.65-0.081-0.9-0.081a1.135,1.135,0,0,1-.33.163h-0.08Zm12.38,6.806c0-.082-0.08-0.082-0.16-0.082h0C1399.12,354.517,1399.2,354.517,1399.2,354.6Zm5-6.642c-3.36-.41-6.72-1.066-10.16-1.147s-6.81-.165-10.25.081a22.986,22.986,0,0,1,4.67-.737,45,45,0,0,1,11.97.491A9.008,9.008,0,0,1,1404.2,347.957Zm-1.06,5.412a3.034,3.034,0,0,1-.9-0.082c-1.48-.328-2.87-0.656-4.27-0.9-0.33-.082-0.65-0.246-0.98-0.328a0.388,0.388,0,0,1-.33-0.492,0.439,0.439,0,0,1,.49-0.246c0.08-.082.08,0,0.33,0a21.618,21.618,0,0,1,5.74,1.64c0.08,0.082.16,0.246,0.08,0.246C1403.3,353.287,1403.22,353.451,1403.14,353.369Zm0.24,2.132v-0.082h0V355.5Zm-0.98-6.8a0.158,0.158,0,0,1-.16-0.083h-0.09a17.992,17.992,0,0,1-2.95-.245c-1.88-.247-3.77-0.411-5.66-0.657a1.083,1.083,0,0,1-.73-0.164c0.08-.328.32-0.245,0.49-0.245a24.94,24.94,0,0,1,8.53,1.147,0.412,0.412,0,0,1,.32.164A0.3,0.3,0,0,1,1402.4,348.7Zm28.45,55.92a7.847,7.847,0,0,0,3.03-.738c0.16-.082.33,0,0.33,0.246-0.08.492,0.24,0.492,0.57,0.328a15.622,15.622,0,0,0,4.43-2.46,16.644,16.644,0,0,0,3.77-3.444,64.983,64.983,0,0,0,4.18-5.575c0.33-.41.25-0.492-0.32-0.656a13.7,13.7,0,0,1,.9-1.23,7.163,7.163,0,0,0,2.38-3.444c0.82-1.968,2.13-3.772,2.62-5.9a0.164,0.164,0,0,0,.08-0.164,26.521,26.521,0,0,0,1.97-4.017,3.994,3.994,0,0,0,.57-1.23c0.5-1.8,1.32-3.444,1.89-5.166,0.41-1.148.82-2.378,1.31-3.608a0.917,0.917,0,0,0-.24-1.148c-0.09.082-.17,0.246-0.25,0.328h0a1.137,1.137,0,0,1,.33-0.328,3.862,3.862,0,0,0,1.14-2.459,11.564,11.564,0,0,1,.41-1.476c0.5-2.624,1.15-5.166.91-7.872a28.407,28.407,0,0,0-2.71-10.331,4.468,4.468,0,0,0-1.56-1.722,0.765,0.765,0,0,0-1.23.41,3.5,3.5,0,0,0-.32,1.23c-0.17.983-.17,1.968-0.33,2.869-0.17,1.313-.25,2.624-0.49,3.854a59.873,59.873,0,0,1-4.19,11.644,90.832,90.832,0,0,1-5.16,9.757c-0.82,1.23-1.48,2.624-2.38,3.772l-2.46,3.2c-1.39,1.885-2.95,3.608-4.51,5.411-0.41.41-.9,0.82-1.39,1.23a4.674,4.674,0,0,0-1.81,1.968,3.629,3.629,0,0,1-2.87,1.968,0.9,0.9,0,0,1-1.15-.738,5.167,5.167,0,0,1-.08-1.066,9.469,9.469,0,0,0,.08-1.558c-0.08-2.378.82-4.51,1.23-6.723,0.25-1.149.74-2.3,1.07-3.444a1.429,1.429,0,0,0,0-1.148h0c1.07-1.722,1.15-3.69,1.97-5.412a3.316,3.316,0,0,1,.82-2.46,4.051,4.051,0,0,0,.24-0.574c0.58-1.64,1.07-3.362,1.64-5s1.23-3.28,1.81-5a10.8,10.8,0,0,0,.74-2.378,1.779,1.779,0,0,0-.17-1.148,1.152,1.152,0,0,1-.24-1.148,16.476,16.476,0,0,0,.08-2.788,2.789,2.789,0,0,0-1.07-2.459,1.852,1.852,0,0,1-.82-1.805,1.827,1.827,0,0,0-1.23-2.049,1.851,1.851,0,0,0-2.21.164,12.327,12.327,0,0,0-2.3,2.706,48.841,48.841,0,0,0-4.92,7.871c-1.31,2.87-2.54,5.74-3.77,8.609a55.948,55.948,0,0,0-3.52,12.054,34.839,34.839,0,0,0-.33,12.381,26.728,26.728,0,0,0,1.8,6.642c0.9,1.967,1.97,3.853,2.95,5.822a15.41,15.41,0,0,0,1.4,1.8,21.156,21.156,0,0,0,4.92,3.28A5.127,5.127,0,0,0,1430.85,404.616Zm1.8-2.624a0.4,0.4,0,0,1-.41-0.492,2.142,2.142,0,0,1,.82-0.9,16.262,16.262,0,0,1,1.64-.9c0.57-.163,1.07-0.9,1.8-0.574-0.16.738-.82,0.984-1.31,1.476a7.887,7.887,0,0,1-1.97,1.23A3.231,3.231,0,0,1,1432.65,401.992Zm-2.3-5.248a0.3,0.3,0,0,1-.16-0.163,0.276,0.276,0,0,1,.16-0.246,2.348,2.348,0,0,1,1.48-.738,0.3,0.3,0,0,1,.16.164A1.912,1.912,0,0,1,1430.35,396.744Zm-0.65-1.311a0.392,0.392,0,0,1-.41-0.083,0.518,0.518,0,0,1,.08-0.41,7.645,7.645,0,0,1,3.44-1.721A6.442,6.442,0,0,1,1429.7,395.433Zm6.64,7.543a0.245,0.245,0,0,0-.16-0.082,0.415,0.415,0,0,1,0-.328,4.621,4.621,0,0,0,.57-0.656c1.97-1.476,3.94-2.952,5.82-4.591,0.17-.083.25-0.165,0.41-0.247h0.17c0,0.082.08,0.247,0,.247a25.656,25.656,0,0,1-6.4,5.493A2.159,2.159,0,0,0,1436.34,402.976Zm-1.8-10.331a0.259,0.259,0,0,1-.17-0.082,2.607,2.607,0,0,1,1.15-1.148C1436.01,391.251,1435.44,392.071,1434.54,392.645Zm14.76-6.97c0-.082,0-0.082.08-0.082,0.08-.082.16-0.082,0.24-0.164C1449.54,385.511,1449.38,385.593,1449.3,385.675Zm56.57,21.974a2.379,2.379,0,0,0,.66-0.655,0.537,0.537,0,0,1,.57-0.164c0.5,0.246.66,0,.82-0.41,0.17-.738.41-1.558,0.5-2.3,0.49-3.2,1.55-6.313,2.21-9.512a0.977,0.977,0,0,1,.25-0.737,28.983,28.983,0,0,0,1.23-5.822,0.516,0.516,0,0,1-.25-0.656,23.781,23.781,0,0,0,.66-3.444,2.985,2.985,0,0,1,1.31-2.214,1.435,1.435,0,0,0,.65-0.9c0.41-1.721,1.23-3.361,1.4-5.247-0.33.738-.58,1.394-0.9,2.049-0.09.083-.17,0.247-0.33,0.165a0.5,0.5,0,0,1-.08-0.328,42.5,42.5,0,0,1,2.54-7.134,2.415,2.415,0,0,1,.98-1.886h-0.08a2.463,2.463,0,0,1-.9,1.886v1.476a9.881,9.881,0,0,0,1.56-3.69,0.785,0.785,0,0,0-.25-0.82,0.634,0.634,0,0,1,0-.9,8.908,8.908,0,0,0,.98-2.951,17.034,17.034,0,0,1,.91-2.624,8.156,8.156,0,0,0,.65-3.116,0.365,0.365,0,0,0-.24-0.246,0.3,0.3,0,0,0-.25.082,2.529,2.529,0,0,0-.74,1.64,3.951,3.951,0,0,1-.9,1.968c-0.08.163-.25,0.246-0.33,0.163a0.247,0.247,0,0,1-.08-0.327,1.559,1.559,0,0,1,.16-0.575,11.423,11.423,0,0,0,1.15-5.247,3.338,3.338,0,0,0-.82-2.378,3.4,3.4,0,0,0-1.06-.738,2.287,2.287,0,0,1-1.4-1.476,1.046,1.046,0,0,0-.65-0.656c-0.33-.164-0.74-0.328-1.15-0.492a1.508,1.508,0,0,0-1.89.246,2.54,2.54,0,0,1-1.47.738,5.093,5.093,0,0,0-3.45,2.46c-0.41.41-.65,0.9-1.06,1.312-2.46,2.788-4.6,5.9-6.81,8.938-1.15,1.558-2.13,3.279-3.36,4.837a35.424,35.424,0,0,0-2.95,4.018c-2.05,3.2-4.18,6.313-6.07,9.593a1.048,1.048,0,0,1-.9.738,1.487,1.487,0,0,1-.82-0.9,0.619,0.619,0,0,1,.08-0.737,1.806,1.806,0,0,0,.49-1.066c0.08-.82.25-1.558,0.33-2.378a2.872,2.872,0,0,0-.25-1.64h0.09a19.336,19.336,0,0,1,.65-3.034,4.666,4.666,0,0,0,.08-2.624,2.732,2.732,0,0,1,.09-1.8,2.417,2.417,0,0,0,.08-1.066,5.273,5.273,0,0,1,0-2.788,8.146,8.146,0,0,0,.08-1.394,55.9,55.9,0,0,0-.49-7.3,2.02,2.02,0,0,0-.49-1.476,5.52,5.52,0,0,1-1.4-2.542,3.354,3.354,0,0,0-1.06-1.886,11.938,11.938,0,0,1-1.64-1.968,2.759,2.759,0,0,0-1.07-.9,4.549,4.549,0,0,1-1.72-1.313,3.1,3.1,0,0,0-3.94-.328,6.028,6.028,0,0,0-1.56,1.969,9.093,9.093,0,0,1-1.96,2.787,3.48,3.48,0,0,0-.66,1.23c-0.41.82-.74,1.722-1.23,2.542-0.41.82-.9,1.64-1.23,2.46-0.66,1.476-1.31,2.952-1.97,4.428-0.74,1.476-1.39,3.034-2.05,4.509-1.23,3.116-2.46,6.232-3.69,9.266-0.49,1.311-.98,2.542-1.55,3.772a3.324,3.324,0,0,0-.41.984c-0.74,1.967-1.4,4.017-2.22,5.985a57.52,57.52,0,0,0-2.29,7.3,3.108,3.108,0,0,0,1.06,3.034,7.6,7.6,0,0,0,1.31.9,4.911,4.911,0,0,1,.58,1.312,1.631,1.631,0,0,0,1.97.983,0.507,0.507,0,0,1,.65.164,1.035,1.035,0,0,0,1.72.083,0.9,0.9,0,0,1,.58-0.247,0.911,0.911,0,0,0,.9-1.066c0-.328.08-0.738,0.08-1.066h0a0.446,0.446,0,0,1-.33-0.409,6.6,6.6,0,0,1,.41-1.805,43.558,43.558,0,0,1,1.72-4.509c1.4-3.2,2.71-6.4,4.19-9.594,1.23-2.869,2.62-5.739,3.93-8.609,0.17-.246.33-0.492,0.49-0.738a0.428,0.428,0,0,1,.25-0.082,1.183,1.183,0,0,1,.16.246,6.666,6.666,0,0,0-.41,1.066,0.257,0.257,0,0,0,.25.41c0.57-.082.66,0.246,0.66,0.738a6.846,6.846,0,0,1-.09,1.394,23.512,23.512,0,0,0-.24,4.1,19.656,19.656,0,0,1-.17,3.115c-0.49,4.1-.24,8.282-0.49,12.382a10.169,10.169,0,0,0,.08,1.558,5.052,5.052,0,0,0,.74,2.378,0.625,0.625,0,0,0,.66.491c1.15-.246,1.64.41,1.88,1.394a3.8,3.8,0,0,0,.25.9,2.849,2.849,0,0,0,.98.984,9.485,9.485,0,0,0,1.48.247c0.49,0.163.66,0.819,1.23,0.983h0.25c1.39,0.328,2.62.082,3.28-1.312h0.08c-0.49-.328-0.25-0.656,0-0.984,0.98-1.558,1.97-3.116,2.87-4.755,2.05-3.362,4.1-6.806,6.15-10.25,0.57-.9,1.15-1.8,1.72-2.706,0.82-1.394,1.48-2.869,3.03-3.689a1.819,1.819,0,0,0,.25-0.411h0a0.7,0.7,0,0,1,0-1.066c0.49-.9,1.06-1.8,1.56-2.624a2.8,2.8,0,0,1,.9-1.065c0-.082.16-0.082,0.24,0a0.229,0.229,0,0,1,0,.246,6.148,6.148,0,0,1-.57,1.066,0.891,0.891,0,0,1,.9-0.164,0.617,0.617,0,0,1,.17.82c-0.09.41-.17,0.82-0.25,1.23-0.9,3.361-1.64,6.805-2.38,10.249-0.65,3.28-1.06,6.559-1.47,9.839a11.692,11.692,0,0,0,0,3.444,3,3,0,0,0,1.96,3.034,1.558,1.558,0,0,1,.99,1.148,12.21,12.21,0,0,0,.74,1.558,1.183,1.183,0,0,0,1.8.492,0.872,0.872,0,0,1,1.31.328A0.506,0.506,0,0,0,1505.87,407.649Zm-47.06-16.07v0Zm5,4.919a7.522,7.522,0,0,0,1.23-3.443A7.312,7.312,0,0,0,1463.81,396.5Zm-4.1-7.707v-0.082l0.08-.082v0.082Zm5.33,4.264a9.511,9.511,0,0,0,1.56-3.608A14.065,14.065,0,0,0,1465.04,393.055Zm-4.26-6.888a0.267,0.267,0,0,1,0-.246c0.08-.082.16-0.246,0.24-0.328v0a0.755,0.755,0,0,0-.08.41A0.307,0.307,0,0,0,1460.78,386.167Zm6.47,1.886c0.09-.082.17-0.246,0.25-0.328v-0.246a0.307,0.307,0,0,0-.16.164A0.823,0.823,0,0,0,1467.25,388.053Zm0.91-2.132a11.075,11.075,0,0,0,1.88-4.263,3.714,3.714,0,0,0-.74,1.065C1468.89,383.707,1468.57,384.855,1468.16,385.921Zm-4.43-7.133,0.08-.082a0.632,0.632,0,0,1,.08-0.411,0.184,0.184,0,0,1,.17-0.163,0.267,0.267,0,0,1,0,.246c-0.08.082-.17,0.245-0.25,0.328Zm21.32,20.17v-0.246l0.24-.492c0.33,0.246-.08.328-0.08,0.574A0.313,0.313,0,0,0,1485.05,398.958Zm2.79-1.23a2.083,2.083,0,0,1,.32-0.574A1.336,1.336,0,0,0,1487.84,397.728Zm-22.8-22.057V375.59a4.857,4.857,0,0,0,.33-0.656c0.08-.164.24-0.41,0.33-0.574,0-.164.08-0.328,0.08-0.492,0-.082.08-0.164,0.16-0.082v0.164c-0.08.164-.16,0.246-0.24,0.41a1.883,1.883,0,0,0-.33.574c-0.08.246-.25,0.409-0.33,0.656v0.081Zm5,5.822a8.3,8.3,0,0,0,1.56-3.443v0.082A7.108,7.108,0,0,0,1470.04,381.493Zm18.7,14.677a6.3,6.3,0,0,0,.33-0.656h0C1488.98,395.761,1488.82,395.925,1488.74,396.17Zm0.33-.656h0ZM1471.6,378.05a8.458,8.458,0,0,0,1.56-3.362A7.961,7.961,0,0,0,1471.6,378.05Zm-4.76-6.724,0.09-.082a2.48,2.48,0,0,1,.32-0.656h0v0.082c-0.08.164-.24,0.41-0.32,0.574Zm6.32,3.362a0.436,0.436,0,0,0,.16-0.246,0.08,0.08,0,0,0,.08-0.082c-0.08-.082-0.08-0.082-0.16.082C1473.24,374.524,1473.16,374.606,1473.16,374.688Zm17.79,17.793a1.677,1.677,0,0,1,.33-0.656,2.116,2.116,0,0,0-.33.574v0.082Zm-22.79-24.353c-0.09-.082.08-0.492,0.24-0.41,0.08,0,.08.082,0.17,0.082a1.343,1.343,0,0,1-.25.328C1468.32,368.21,1468.24,368.21,1468.16,368.128Zm24.27,21.565,0.08-.082Zm0.08-.082h0c0.16-.328.41-0.574,0.57-0.9C1492.92,389.037,1492.67,389.283,1492.51,389.611Zm1.31-2.132c0.08-.082.17-0.246,0.25-0.328a0.442,0.442,0,0,1-.25.164v0.164Zm0.25-.328a4.08,4.08,0,0,1,.33-0.656h-0.09c-0.08.246-.16,0.41-0.24,0.656h0Zm0.24-.656h0.09l0.32-.328h-0.08A0.616,0.616,0,0,1,1494.31,386.5Zm0.33-.328h0.08c0.09-.164.17-0.41,0.25-0.574A1.883,1.883,0,0,1,1494.64,386.167Zm0.33-.574c0.08-.082.25-0.246,0.33-0.328A1.241,1.241,0,0,0,1494.97,385.593Zm0.33-.328c0.08-.164.24-0.41,0.33-0.574A1.25,1.25,0,0,0,1495.3,385.265Zm-23.7-24.6v-0.082a1.871,1.871,0,0,1,.33-0.574C1471.85,360.257,1471.68,360.42,1471.6,360.667Zm37.96,36-0.08-.082,0.08-.083v0.165Zm-13.28-13.2a1.134,1.134,0,0,1,.25-0.328,0.184,0.184,0,0,0-.17.164C1496.28,383.3,1496.28,383.379,1496.28,383.461Zm-9.43-11.889h0Zm23.12,22.877a0.161,0.161,0,0,1,.09-0.165h0.08v0.165C1510.06,394.531,1510.06,394.531,1509.97,394.449Zm-37.14-36.57V357.8a1.234,1.234,0,0,1,.49-0.9c0.25-.164,0,0.328-0.49.9v0.082Zm12.63,11.069v-0.082l0.08-.082C1485.54,368.948,1485.54,368.948,1485.46,368.948Zm12.38,11.971c0.08-.082.16-0.245,0.24-0.328a0.439,0.439,0,0,0-.16.246A0.08,0.08,0,0,0,1497.84,380.919Zm12.87,11.4a0.607,0.607,0,0,1-.24-0.246c0-.082.08-0.246,0.08-0.328a0.491,0.491,0,0,1,.33-0.246,0.29,0.29,0,0,1,.08.41C1510.88,392.071,1510.79,392.153,1510.71,392.317Zm-36.32-37.554v-0.082a1.13,1.13,0,0,0,.24-0.328v0.164c-0.08.082-.16,0.082-0.24,0.164v0.082Zm24.68,24.27a2.143,2.143,0,0,0,.57-0.9A2.143,2.143,0,0,0,1499.07,379.033Zm0.57-.9c0.17-.165.25-0.246,0.33-0.328h0A1.226,1.226,0,0,0,1499.64,378.132Zm12.47,9.921h0Zm1.72-7.379a0.2,0.2,0,0,1-.08-0.328c0.08-.082.16-0.082,0.24-0.165a0.38,0.38,0,0,1,0,.41C1513.99,380.674,1513.83,380.755,1513.83,380.674Zm-11.97-15.333h0Zm0.9-1.231h0Zm0.65-.983h0Zm12.47,12.463a6.4,6.4,0,0,0,.33-0.656h0A4.08,4.08,0,0,0,1515.88,375.59Zm0.82-2.624c0.24,0.082.24-.082,0.33-0.246,0-.246.08-0.574,0.08-0.9h0c-0.08.328-.25,0.574-0.33,0.9A0.412,0.412,0,0,0,1516.7,372.966Zm-11.07-12.955h0Zm24.3,44.769a9.183,9.183,0,0,0,2.14-.082,3.63,3.63,0,0,1,2.29.082,1.672,1.672,0,0,0,.9,0,12.552,12.552,0,0,1,1.73-.246,4.823,4.823,0,0,0,2.05-.738,12.012,12.012,0,0,1,2.87-1.558,29.15,29.15,0,0,0,8.61-5.657,19.09,19.09,0,0,1,1.96-1.641,2.589,2.589,0,0,0,1.07-1.229h0a1.818,1.818,0,0,1,.33-1.722,12.146,12.146,0,0,0,1.47-6.068c0-1.558-.33-3.2-0.49-4.756a21.125,21.125,0,0,0-1.72-6.641c-0.74-1.8-1.56-3.608-2.46-5.33a16.078,16.078,0,0,0-5.74-6.641c-1.07-.82-2.21-1.476-3.36-2.214-0.25-.164-0.41-0.328-0.66-0.492a0.425,0.425,0,0,1,0-.738,4.72,4.72,0,0,1,1.07-.656,34.743,34.743,0,0,1,7.3-2.952c1.06-.328,2.13-0.492,3.19-0.738a0.684,0.684,0,0,1,.9.82,7.578,7.578,0,0,0,.5,2.3V357.8a1.307,1.307,0,0,1,0,1.23,2.871,2.871,0,0,0-.25,1.64,0.964,0.964,0,0,0,1.23.9,1.32,1.32,0,0,1,.57,0c0.17,0,.33.164,0.25,0.246a3.56,3.56,0,0,1-.33.574,0.58,0.58,0,0,0,.58.9,5.77,5.77,0,0,0,1.96-.492,5.178,5.178,0,0,1,1.56-.574,13.61,13.61,0,0,1-1.97,1.558,4.755,4.755,0,0,0,2.55-1.312c0.57-.574,1.06-1.23,1.64-1.8a0.768,0.768,0,0,1,.41-0.9,6.232,6.232,0,0,0,1.14-.983h0a8.59,8.59,0,0,0,1.64-2.952,1.387,1.387,0,0,0,0-1.394,4.648,4.648,0,0,1-.16-1.476,8.587,8.587,0,0,0-.9-4.51,15.736,15.736,0,0,1-.99-2.46,7.244,7.244,0,0,0-3.11-3.853,2.8,2.8,0,0,0-.99-0.41,16.252,16.252,0,0,0-4.01-.246c-0.99.082-2.05,0.082-3.12,0.082a13.757,13.757,0,0,0-4.43.574,16.313,16.313,0,0,1-2.87.82c-0.98.246-1.96-.164-2.95,0.246a26.6,26.6,0,0,1-2.7,1.066,8.029,8.029,0,0,0-2.63,1.065,10.763,10.763,0,0,1-2.79,1.312,7.073,7.073,0,0,0-2.95,1.886,12.043,12.043,0,0,0-1.72,1.8,6.334,6.334,0,0,0-1.07,1.886,8.685,8.685,0,0,0-.24,4.346c0.24,1.558.49,3.2,0.57,4.755a12.994,12.994,0,0,0,.33,1.722,2.9,2.9,0,0,0,.66,1.558,27.9,27.9,0,0,0,1.96,2.624,9,9,0,0,0,2.46,2.132,29.177,29.177,0,0,0,5.33,2.542,15.022,15.022,0,0,1,2.71.984,39.22,39.22,0,0,1,3.69,1.886c1.56,0.9,1.8,1.639,1.31,3.362a13.065,13.065,0,0,1-1.72,3.771c-0.66.9-1.31,1.8-1.97,2.706a6.178,6.178,0,0,1-1.64,1.64,3.245,3.245,0,0,0-.82.656,13.213,13.213,0,0,1-4.1,2.542,65.14,65.14,0,0,1-7.62,2.706,6.306,6.306,0,0,1-2.14.164,0.922,0.922,0,0,1-.98-0.574,1.018,1.018,0,0,1,.33-1.148,11.827,11.827,0,0,0,2.38-2.87v0.082c-0.33.082-.58,0.164-0.91,0.246a1.868,1.868,0,0,1-.98,1.23v0.082a2.249,2.249,0,0,1,.98-1.312,3.233,3.233,0,0,1,.91-1.394c0.65-.574,1.23-1.066,1.88-1.64s1.4-1.066,2.05-1.64c0.17-.082.41-0.246,0.17-0.491a9.215,9.215,0,0,0-2.05.983l-2.46,1.722c-0.33.164-.66,0.246-0.66,0a0.692,0.692,0,0,1,.25-0.492c0.49-.41.9-0.82,1.39-1.23,0.57-.41,1.23-0.82,1.8-1.23a3.464,3.464,0,0,0,.91-0.574,1.278,1.278,0,0,0,.16-1.721,0.89,0.89,0,0,0-1.23-.082c-0.57.245-1.15,0.491-1.72,0.738-0.49.245-1.07,0.491-1.56,0.737-0.16.082-.33,0.246-0.49-0.081,0.49-.656,1.31-0.821,1.88-1.394a17.4,17.4,0,0,0-1.88.738,3.508,3.508,0,0,1-1.56.491v0.082a7.212,7.212,0,0,1,2.79-1.967c0.57-.247,1.15-0.492,1.72-0.738a0.4,0.4,0,0,0,0-.738,1.733,1.733,0,0,0-1.48-.41,9.254,9.254,0,0,0-3.85,1.229,7.136,7.136,0,0,1-1.31.821,13.439,13.439,0,0,0-2.95,2.787q-1.11,1.476-2.22,3.2a9.934,9.934,0,0,0-1.06,8.2,38.353,38.353,0,0,0,1.39,3.936,7.878,7.878,0,0,0,3.03,3.854A16.314,16.314,0,0,0,1529.93,404.78Zm-6.39-21.155c0.16-.082.24-0.164,0.41-0.246a1.251,1.251,0,0,1-.33.164A0.08,0.08,0,0,1,1523.54,383.625Zm4.43,4.182a1.222,1.222,0,0,1,.32-0.328c-0.08.082-.24,0.164-0.32,0.246v0.082Zm14.02,15.333a5.688,5.688,0,0,0,2.87-.983A3.726,3.726,0,0,0,1541.99,403.14Zm-13.7-15.661c0.09-.082.25-0.246,0.33-0.328a0.691,0.691,0,0,0-.33.328h0Zm0.33-.328c0.08-.082.17-0.164,0.33-0.328h-0.08C1528.79,386.905,1528.7,387.069,1528.62,387.151Zm9.19,14.513c-0.09-.082-0.25-0.164-0.33-0.246a0.755,0.755,0,0,1,.08-0.41,1.711,1.711,0,0,1,.82-0.492c2.13-.9,4.18-1.968,6.31-2.952a1.548,1.548,0,0,1,.58-0.164c0.08,0,.24,0,0.24.082a0.234,0.234,0,0,1,0,.329c-0.16.164-.32,0.409-0.49,0.573a14.305,14.305,0,0,1-3.69,2.214c-0.98.328-1.88,0.656-2.87,0.984C1538.3,401.582,1538.05,401.664,1537.81,401.664Zm-8.94-14.841a1.59,1.59,0,0,0,.41-0.328h-0.08A1.462,1.462,0,0,1,1528.87,386.823Zm4.1,9.019a1.024,1.024,0,0,1-.49-0.081,0.177,0.177,0,0,1-.17-0.164v-0.164a2.9,2.9,0,0,1,.66-0.41,53.244,53.244,0,0,0,7.05-2.87,2.685,2.685,0,0,1,1.39-.328v-0.082l-0.08.082a3.3,3.3,0,0,1-1.23,1.148A22.418,22.418,0,0,1,1532.97,395.842Zm3.03,0.493-0.08-.082c-0.08-.083,0-0.083,0-0.164l0.08-.083c1.72-.819,3.36-1.639,5.09-2.377,0.08-.082.32-0.082,0.32,0.082a0.433,0.433,0,0,1-.16.41,11.584,11.584,0,0,1-3.61,1.8A5.3,5.3,0,0,1,1536,396.335Zm8.94,5.657a5.319,5.319,0,0,0,2.71-1.722A7.247,7.247,0,0,0,1544.94,401.992Zm-14.19-16.727h0Zm-2.46-5a2.506,2.506,0,0,0,.66-0.328,4.851,4.851,0,0,1-.66.328h0Zm0.58-.328a5.64,5.64,0,0,0,.65-0.247h0A5.64,5.64,0,0,1,1528.87,379.936Zm0.65-.247a0.322,0.322,0,0,1,.25-0.081A0.322,0.322,0,0,0,1529.52,379.689Zm18.21,20.5a7.3,7.3,0,0,0,4.59-4.346c-0.25.247-.57,0.493-0.82,0.739a27.588,27.588,0,0,1-3.2,3.033A1.926,1.926,0,0,0,1547.73,400.188Zm-4.02-9.429a0.306,0.306,0,0,1,.16-0.164,1.406,1.406,0,0,1,.33-0.328,1.28,1.28,0,0,1,.33-0.328c-0.08.082-.25,0.246-0.33,0.328s-0.24.246-.33,0.328a0.079,0.079,0,0,0-.08.082Zm8.61,5.083h0Zm-17.79-43.949c-0.09-.082-0.09-0.164.08-0.164,0.08-.082.16-0.082,0.24-0.164,0.17-.082.41-0.164,0.58-0.246-0.17.082-.41,0.164-0.58,0.246l-0.24.246Zm4.83,6.888a0.08,0.08,0,0,1-.08-0.082c-0.08-.082-0.08-0.246,0-0.246a1.984,1.984,0,0,1,1.23-.9c1.07-.574,2.22-1.148,3.36-1.64a43,43,0,0,1,6.97-2.132c0.58-.082,1.15-0.246,1.64-0.328a4.04,4.04,0,0,1,.99-0.082,0.306,0.306,0,0,1,.16.164,0.84,0.84,0,0,1-.08.246c-0.66.164-1.23,0.41-1.8,0.492a47.31,47.31,0,0,0-10.99,3.936c-0.33.164-.74,0.41-1.07,0.574h-0.33Zm-0.16-3.116a3.09,3.09,0,0,1,1.89-1.312,49.329,49.329,0,0,1,11.23-3.444c0.9-.164,1.8-0.246,2.62-0.41a2.756,2.756,0,0,1,.82.082,1.134,1.134,0,0,1,.25.328,0.384,0.384,0,0,1-.17.41,2.715,2.715,0,0,1-1.31.41c-1.96.328-3.93,0.656-5.82,0.984a55.538,55.538,0,0,0-7.38,2.378A6.871,6.871,0,0,1,1539.2,355.665Zm0.57-5.9h0.09a30.229,30.229,0,0,1,6.47-2.214,49.626,49.626,0,0,1,6.07-1.148,9.65,9.65,0,0,1,2.62-.163,0.473,0.473,0,0,1,.41.163c0.09,0.328-.16.246-0.32,0.328l-3.45.492a59.52,59.52,0,0,0-9.34,2.05,13.074,13.074,0,0,1-2.46.492h-0.09Zm-1.55-1.148a1.684,1.684,0,0,1,1.06-.574c1.48-.492,2.95-1.066,4.43-1.476a59.574,59.574,0,0,1,9.27-1.722,11,11,0,0,1,4.83.411c-1.47.164-2.7,0.328-3.93,0.409a67.377,67.377,0,0,0-14.43,2.952A0.978,0.978,0,0,1,1538.22,348.613Zm23.45,12.054a1.209,1.209,0,0,1,.32-0.328A0.629,0.629,0,0,0,1561.67,360.667Zm0.65-3.116h0Z" transform="translate(-1009.59 -338.75)"/>
</svg>
